SplineFontDB: 3.0
FontName: Mina-Bold
FullName: Mina Bold
FamilyName: Mina
Weight: Bold
Copyright: Copyright 2015 The Mina Project Authors, with Reserved Font Name 'Exo'
UComments: "2015-7-16: Created with FontForge (http://fontforge.org)"
Version: 001.000
ItalicAngle: 0
UnderlinePosition: -24
UnderlineWidth: 24
Ascent: 800
Descent: 200
InvalidEm: 0
LayerCount: 2
Layer: 0 0 "Back" 1
Layer: 1 0 "Fore" 0
XUID: [1021 37 -475828938 8093]
FSType: 0
OS2Version: 4
OS2_WeightWidthSlopeOnly: 0
OS2_UseTypoMetrics: 0
CreationTime: 1437065704
ModificationTime: 1459632885
PfmFamily: 17
TTFWeight: 700
TTFWidth: 5
LineGap: 0
VLineGap: 0
OS2TypoAscent: 1075
OS2TypoAOffset: 0
OS2TypoDescent: -515
OS2TypoDOffset: 0
OS2TypoLinegap: 0
OS2WinAscent: 1075
OS2WinAOffset: 0
OS2WinDescent: 515
OS2WinDOffset: 0
HheadAscent: 1075
HheadAOffset: 0
HheadDescent: -515
HheadDOffset: 0
OS2SubXSize: 700
OS2SubYSize: 650
OS2SubXOff: 0
OS2SubYOff: 93
OS2SupXSize: 700
OS2SupYSize: 650
OS2SupXOff: 0
OS2SupYOff: 313
OS2StrikeYSize: 50
OS2StrikeYPos: 313
OS2CapHeight: 712
OS2XHeight: 511
OS2Vendor: 'SUBY'
OS2CodePages: 00000001.00000000
OS2UnicodeRanges: 80018003.80002042.00000000.00000000
Lookup: 5 0 0 "'psts' Post Base Substitutions lookup 34" { "'psts' Post Base Substitutions lookup 34 subtable"  } ['psts' ('beng' <'dflt' > 'bng2' <'dflt' > ) ]
Lookup: 4 0 0 "Ligature Substitution lookup 33" { "Ligature Substitution lookup 33 subtable"  } []
Lookup: 5 0 0 "'psts' Post Base Substitutions lookup 32" { "'psts' Post Base Substitutions lookup 32 subtable"  } ['psts' ('beng' <'dflt' > 'bng2' <'dflt' > ) ]
Lookup: 1 0 0 "Single Substitution lookup 31" { "Single Substitution lookup 31 subtable"  } []
Lookup: 6 0 0 "'psts' Post Base Substitutions lookup 30" { "'psts' Post Base Substitutions lookup 30 subtable"  } ['psts' ('beng' <'dflt' > 'bng2' <'dflt' > ) ]
Lookup: 1 0 0 "Single Substitution lookup 29" { "Single Substitution lookup 29 subtable"  } []

StartChar: bnA
Encoding: 2437 2437 0
Width: 960
VWidth: 0
Flags: HW
HStem: 0 21G<817 885> 40 73<366.514 511.631> 446 72<320.271 643.438> 575 61<-14 817 885 971>
VStem: 674 69<283.063 418.171> 817 68<0 143 202 574>
LayerCount: 2
Back
Fore
SplineSet
721 249 m 17
 796 232.004882812 l 1
 796 530 l 1
 -14 530 l 1
 -14 636.328125 l 1
 971 636.328125 l 1
 971 530 l 1
 905 530 l 25
 905 0 l 1
 796 0 l 1
 796 137 l 25
 674 156 l 9
 674 156 609 51 475 51 c 0
 418 51 346.000976562 76.052734375 273 153 c 0
 199 231 109 373 109 373 c 1
 166 418 l 1
 332 242 l 2
 380.038085938 189.958007812 421 160 468 160 c 0
 570.1015625 160 629 252.7265625 629 325 c 0
 629 378 560 378 495 378 c 0
 431 378 347 378 347 378 c 1
 334 466 l 1
 334 466 468 485 548 485 c 0
 681.126953125 485 734 408.158203125 734 326 c 0
 734 288.84375 721 249 721 249 c 17
EndSplineSet
EndChar

StartChar: bnAA
Encoding: 2438 2438 1
Width: 1145
VWidth: 0
Flags: HW
HStem: 16 112<346.086 471.966> 379 109<255 569.741> 526 110<864 927>
VStem: 583 104<260.838 367.07>
AnchorPoint: "anchor0" 922 634.328 basechar 0
LayerCount: 2
Back
Fore
SplineSet
914 636.328125 m 1
 986 628 l 1
 982 702 l 1
 1058 702 l 1
 1081 636.328125 l 9
 1159 636.328125 l 17
 1159 530 l 1
 1092 530 l 25
 1092 0 l 1
 983 0 l 1
 983 530 l 1
 905 530 l 25
 905 0 l 1
 796 0 l 1
 796 137 l 25
 674 156 l 9
 674 156 609 51 475 51 c 0
 418 51 346.000976562 76.052734375 273 153 c 0
 199 231 109 373 109 373 c 1
 166 418 l 1
 332 242 l 2
 380.038085938 189.958007812 421 160 468 160 c 0
 570.1015625 160 629 252.7265625 629 325 c 0
 629 378 560 378 495 378 c 0
 431 378 347 378 347 378 c 1
 334 466 l 1
 334 466 468 485 548 485 c 0
 681.126953125 485 734 408.158203125 734 326 c 0
 734 288.84375 721 249 721 249 c 17
 796 232.004882812 l 1
 796 530 l 1
 -14 530 l 1
 -14 636.328125 l 1
 914 636.328125 l 1
EndSplineSet
EndChar

StartChar: bnTA
Encoding: 2468 2468 2
Width: 765
VWidth: 0
Flags: HW
HStem: 14 113<376.889 500.514> 379 109<285 599.741>
VStem: 613 104<261.558 367.07>
AnchorPoint: "anchor 1" 393 11 basechar 0
AnchorPoint: "anchor0" 513 636 basechar 0
LayerCount: 2
Back
Fore
SplineSet
408 9 m 4
 338 9 279 37 206 112 c 4
 129.061523438 191.046875 54 333 54 333 c 5
 121 383 l 5
 249 234 l 6
 298.533203125 176.028320312 356 124 412 124 c 4
 520 124 598 247.651367188 598 304 c 4
 598 363 558 377 467 377 c 4
 416 377 306 377 306 377 c 5
 294 468 l 5
 294 468 452 488 523 488 c 4
 660 488 712 418 712 330 c 4
 712 173.055664062 569.876953125 9 408 9 c 4
780 636.328125 m 17xf0
 780 530 l 25
 -14 530 l 1
 -14 636.328125 l 1
 780 636.328125 l 17xf0
EndSplineSet
EndChar

StartChar: bnI
Encoding: 2439 2439 3
Width: 585
VWidth: 0
Flags: HW
HStem: 443 74<94 407.623> 575 61<-14 406 476 596> 708 64<119.066 394.863>
VStem: 406 70<636 696.193> 429.003 64.9992<305.705 422.523>
LayerCount: 2
Back
Fore
SplineSet
321 378 m 4xe8
 258 378 97 378 97 378 c 5
 86 468 l 5
 86 468 216.418780146 489 311 489 c 4
 479 489 518 436.578125 518 329 c 4
 518 189 264 130 264 130 c 5
 510 7 l 5
 470 -78 l 5
 470 -78 192 20 68 96 c 13
 80 198 l 5
 80 198 401 269 401 334 c 4
 401 368 391 378 321 378 c 4xe8
385 636.328125 m 17xf0
 385 679.328125 369 682 321 682 c 0
 235.614257812 682 71 682 71 682 c 9
 67 765 l 1
 67 765 318.281219307 779 378 779 c 0
 480 779 506 714.328125 506 636.328125 c 9
 596 636.328125 l 1
 596 530 l 25
 -14 530 l 1
 -14 636.328125 l 1
 385 636.328125 l 17xf0
EndSplineSet
EndChar

StartChar: e
Encoding: 101 101 4
Width: 525
Flags: W
HStem: -5 111.95 208.5 100.5<177.9 346.9 177.9 177.9> 428 107<241.076 311.701>
VStem: 37.9 140 354.9 140
LayerCount: 2
Back
Fore
SplineSet
37.900390625 268 m 0
 37.900390625 496.200195312 101.5 535 269.900390625 535 c 0
 423.5 535 494.900390625 517.5 494.900390625 341.5 c 0
 494.900390625 246.900390625 442.900390625 208.5 346.900390625 208.5 c 2
 177.900390625 208.5 l 1
 177.900390625 112.650390625 214.100585938 106.950195312 289.900390625 106.950195312 c 0
 370.900390625 106.950195312 409.900390625 106.5 484.900390625 117.5 c 1
 484.900390625 23 l 1
 409.950195312 -4.9501953125 295.900390625 -5 212.900390625 -5 c 0
 77.900390625 -5 37.900390625 73.2001953125 37.900390625 268 c 0
177.900390625 309 m 1
 310.599609375 309.000976562 l 2
 339.75 309.000976562 354.900390625 323.350585938 354.900390625 348.650390625 c 0
 354.900390625 415.700195312 345.350585938 428 278.05078125 428 c 0
 204.100585938 428 176.80078125 423.700195312 177.900390625 309 c 1
EndSplineSet
Validated: 33
EndChar

StartChar: bnHA
Encoding: 2489 2489 5
Width: 585
VWidth: 0
Flags: HW
HStem: 378 111<97 397.948> 526 110<-14 596>
VStem: 404 112<302.941 371.615>
AnchorPoint: "anchor 1" 269 0 basechar 0
AnchorPoint: "anchor0" 323 636 basechar 0
LayerCount: 2
Back
Fore
SplineSet
322 378 m 4xe8
 259 378 97 378 97 378 c 5
 86 468 l 5
 86 468 216.418780146 489 311 489 c 4
 479 489 518 436.578125 518 329 c 4
 518 189 264 130 264 130 c 5
 510 7 l 5
 470 -78 l 5
 470 -78 192 20 68 96 c 13
 80 198 l 5
 80 198 401 269 401 334 c 4
 401 368 392 378 322 378 c 4xe8
596 636.328125 m 17xf0
 596 530 l 25
 -14 530 l 1
 -14 636.328125 l 1
 596 636.328125 l 17xf0
EndSplineSet
EndChar

StartChar: bnU
Encoding: 2441 2441 6
Width: 760
VWidth: 0
Flags: HW
HStem: -0.356499 76.9109<347.063 449.277> 358 70<390.16 603.586> 575 61<-14 325 390 527 597 759> 708 64<243.425 515.718>
VStem: 325 65<412 575> 527 70<636 696.221> 613.638 69.363<250.444 347.265>
LayerCount: 2
Back
Fore
SplineSet
315 530 m 13
 -14 530 l 1
 -14 636.328125 l 1
 535 636.328125 l 17xf0
 535 679.328125 519 682 471 682 c 0
 385.614257812 682 101 682 101 682 c 9
 97 765 l 1
 97 765 279 779 498 779 c 0
 650 779 656 714.328125 656 636.328125 c 9
 778 636.328125 l 1
 778 530 l 17
 433 530 l 21
 433 447.267578125 l 5
 433 447.267578125 523 456 559 456 c 4
 641.998046875 456 704.001953125 406.59765625 704.001953125 328.791992188 c 4
 704.001953125 223.922851562 594 0 409.94921875 -0.3564453125 c 4
 349.999015531 -0.472548970283 272.525390625 31.8935546875 214 108 c 4
 92.5 266 56 399 56 399 c 5
 126 435.267578125 l 5
 126 435.267578125 236.165039062 268.72265625 300 186.267578125 c 4
 335.737304688 140.106445312 372.638671875 112.53515625 412.638671875 112.53515625 c 4
 496 112.53515625 591.638671875 251 591.638671875 308 c 4
 591.638671875 336 567.724609375 350 529 350 c 4
 475 350 315 340 315 340 c 5
 315 530 l 13
EndSplineSet
EndChar

StartChar: bnDDA
Encoding: 2465 2465 7
Width: 760
VWidth: 0
Flags: HW
HStem: -0.356445 116.892<358.407 465.899> 354 102<443.149 596.554> 526 110<-14 338 443 798>
VStem: 338 105<447.268 526> 601.639 108.363<259.943 347.438>
AnchorPoint: "anchor 1" 387 4 basechar 0
AnchorPoint: "anchor0" 524 636 basechar 0
LayerCount: 2
Back
Fore
SplineSet
324 530 m 13
 -14 530 l 5
 -14 636.328125 l 5
 798 636.328125 l 21
 798 530 l 5
 442 530 l 21
 442 447.267578125 l 5
 442 447.267578125 532 456 568 456 c 4
 650.998046875 456 713.001953125 406.59765625 713.001953125 328.791992188 c 4
 713.001953125 223.922851562 603 0 418.94921875 -0.3564453125 c 4
 358.999023438 -0.47265625 281.525390625 31.8935546875 223 108 c 4
 101.5 266 65 399 65 399 c 5
 135 435.267578125 l 5
 135 435.267578125 245.165039062 268.72265625 309 186.267578125 c 4
 344.737304688 140.106445312 381.638671875 112.53515625 421.638671875 112.53515625 c 4
 505 112.53515625 600.638671875 251 600.638671875 308 c 4
 600.638671875 336 576.724609375 350 538 350 c 4
 484 350 324 340 324 340 c 5
 324 530 l 13
EndSplineSet
EndChar

StartChar: bnDDxA
Encoding: 2524 2524 8
Width: 785
VWidth: 0
Flags: HW
HStem: -190 138<312.146 446.837> -0.356445 116.892<358.407 465.899> 354 102<443.149 596.554> 526 110<-14 338 443 798>
VStem: 312 135<-189.896 -52.0717> 338 105<447.268 526> 601.639 108.363<259.943 347.438>
AnchorPoint: "anchor0" 443 634 basechar 0
LayerCount: 2
Back
Fore
SplineSet
325 530 m 13
 -14 530 l 5
 -14 636.328125 l 5
 798 636.328125 l 21
 798 530 l 5
 443 530 l 21
 443 447.267578125 l 5
 443 447.267578125 533 456 569 456 c 4
 651.998046875 456 714.001953125 406.59765625 714.001953125 328.791992188 c 4
 714.001953125 223.922851562 604 0 419.94921875 -0.3564453125 c 4
 359.999023438 -0.47265625 282.525390625 31.8935546875 224 108 c 4
 102.5 266 66 399 66 399 c 5
 136 435.267578125 l 5
 136 435.267578125 246.165039062 268.72265625 310 186.267578125 c 4
 345.737304688 140.106445312 382.638671875 112.53515625 422.638671875 112.53515625 c 4
 506 112.53515625 601.638671875 251 601.638671875 308 c 4
 601.638671875 336 577.724609375 350 539 350 c 4
 485 350 325 340 325 340 c 5
 325 530 l 13
312 -167 m 6xfa
 312 -77 l 6
 312 -62 320 -52 336 -52 c 6
 424 -52 l 6
 439 -52 447 -63 447 -77 c 6
 447 -167 l 6
 447 -182 438 -190 424 -190 c 6
 336 -190 l 6
 322 -190 312 -181 312 -167 c 6xfa
EndSplineSet
EndChar

StartChar: bnUU
Encoding: 2442 2442 9
Width: 850
VWidth: 0
Flags: HW
HStem: -0.356499 76.9109<346.063 448.277> 358 70<389.16 602.586> 575 61<-15 324 389 526 596 758> 708 64<242.425 514.718>
VStem: 324 65<412 575> 526 70<636 696.221> 612.638 69.363<250.444 347.265>
LayerCount: 2
Back
Fore
SplineSet
504.94921875 -0.3564453125 m 0
 684 -0.3564453125 800.001953125 223.922851562 800.001953125 328.791992188 c 0
 800.001953125 406.59765625 737.998046875 456 655 456 c 0
 619 456 529 447.267578125 529 447.267578125 c 1
 529 530 l 9
 864 530 l 9
 864 636.328125 l 1
 752 636.328125 l 17
 752 714.328125 746 779 594 779 c 0
 375 779 193 765 193 765 c 1
 197 682 l 17
 197 682 481.614257812 682 567 682 c 0
 615 682 631 679.328125 631 636.328125 c 9xf0
 -18 636.328125 l 1
 -18 530 l 1
 411 530 l 17
 411 341 l 5
 411 341 571 351 625 351 c 4
 663.724609375 351 687.638671875 337 687.638671875 309 c 4
 687.638671875 252 596 112.53515625 508.638671875 112.53515625 c 0
 468.638671875 112.53515625 431 147 396 186.267578125 c 24
 317 276 221 435.267578125 221 435.267578125 c 1
 151 399 l 1
 151 399 196.077148438 284 248 208 c 1
 112 359 l 1
 50 317 l 1
 50 317 101 219 186 134 c 0
 254.107421875 65.892578125 375.083984375 -0.3564453125 504.94921875 -0.3564453125 c 0
EndSplineSet
EndChar

StartChar: bnKA
Encoding: 2453 2453 10
Width: 860
VWidth: 0
Flags: HW
HStem: 0 21G<393.517 529.051> 526 110<-14 423 529 872>
VStem: 423 106<132 388 507 526> 682 126.705<255.77 347.587>
AnchorPoint: "anchor 1" 423 0 basechar 0
AnchorPoint: "anchor0" 573 637 basechar 0
LayerCount: 2
Back
Fore
SplineSet
81 232 m 5
 81 379 l 5
 423 507 l 5
 423 530 l 5
 -14 530 l 5
 -14 636.328125 l 5
 872 636.328125 l 5
 872 530 l 5
 529 530 l 29
 530 502 l 5
 696 447 l 6
 757.698549236 424.699319553 808.705078125 390.88671875 808.705078125 327.375976562 c 4
 808.705078125 306.4765625 803.489257812 282.556640625 790 256 c 4
 758 193 711 134 711 134 c 5
 622 187 l 5
 658 252 l 6
 665.963465195 266.378478824 678 291.34765625 678 303 c 4
 678 334.176757812 664.077148438 340.971679688 618 358 c 6
 529 386.990234375 l 5
 529 0 l 5
 423 0 l 5
 81 232 l 5
194 296 m 21
 423 132 l 5
 423 388 l 5
 194 296 l 21
EndSplineSet
EndChar

StartChar: bnvR
Encoding: 2443 2443 11
Width: 810
VWidth: 0
Flags: HW
HStem: 0 21G<405.5 539> 451 60<149.053 266.926> 575 61<713 812>
VStem: 80 59<520.063 583.756> 474 65<82 198 271 418 491 636> 648 65<39 160 219 575>
LayerCount: 2
Back
Fore
SplineSet
640 150 m 25
 549 178 l 25
 549 0 l 1
 434 0 l 1
 61 242 l 1
 61 330 l 1
 316 435 l 1
 301 471 l 1
 301 471 217.338804689 433.334328125 177 426 c 0
 133 418 96 437 80 452 c 0
 61.9376847349 468.933420561 42 497 42 538 c 0
 42 582 65 617 92 631 c 0
 115.953125 643.419921875 184 656 184 656 c 1
 208 593 l 1
 208 593 182.782226562 581.439453125 155 567 c 0
 138.6875 558.521484375 131 528 164 528 c 0
 208 528 362 601 362 601 c 1
 415 470 l 1
 434 477 l 1
 434 636.328125 l 1
 549 636.328125 l 1
 549 301 l 25
 640 264 l 25
 640 628 l 1
 635 702 l 1
 711 702 l 1
 734 636.328125 l 1
 822 636.328125 l 17
 822 530 l 1
 755 530 l 25
 755 39 l 1
 640 39 l 1
 640 150 l 25
434 132 m 1
 434 360 l 1
 221 272 l 1
 434 132 l 1
EndSplineSet
EndChar

StartChar: bnJHA
Encoding: 2461 2461 12
Width: 820
VWidth: 0
Flags: HW
HStem: 0 21G<416.517 564> 526 110<-14 446 772 852>
VStem: 446 118<132 168 296 388 507 526> 663 189<526 636> 663 109<39 140 246 526>
AnchorPoint: "anchor 1" 412 0 basechar 0
AnchorPoint: "anchor0" 556 634 basechar 0
LayerCount: 2
Back
Fore
SplineSet
177 296 m 21xe0
 406 132 l 5
 406 388 l 5
 177 296 l 21xe0
406 0 m 5
 64 232 l 5
 64 379 l 5
 406 507 l 13
 406 530 l 5
 -14 530 l 21
 -14 636.328125 l 5
 524 636.328125 l 13
 524 293 l 5
 643 254 l 29xe8
 643 628 l 5
 638 702 l 5
 714 702 l 5
 737 636.328125 l 5
 832 636.328125 l 5
 832 530 l 5xf0
 752 530 l 29
 752 39 l 5
 643 39 l 5
 643 140 l 5xe8
 524 168 l 29
 524 0 l 5
 406 0 l 5
EndSplineSet
EndChar

StartChar: bnDHA
Encoding: 2471 2471 13
Width: 620
VWidth: 0
Flags: HW
HStem: 0 21G<378.5 512> 575 61<512 587> 606.29 55.7998<160.3 291.959>
VStem: 88.4199 62.707<516.104 597.539> 447 65<77 459 528 575>
LayerCount: 2
Back
Fore
SplineSet
323 461 m 5
 434 505 l 5
 434 628 l 5xd8
 430 702 l 5
 508 702 l 5
 531 636.328125 l 5
 627 636.328125 l 21
 627 530 l 5
 548 530 l 5
 548 0 l 5
 434 0 l 5
 61 270 l 5
 61 358 l 5
 189 410 l 5
 189 410 66 457.061523438 66 534 c 4
 66 580.846679688 109.70703125 668.357421875 160.70703125 668.357421875 c 4
 215.70703125 668.357421875 306 635 306 635 c 5
 284 559 l 5
 284 559 220.84765625 571 200 571 c 4
 187 571 177 560.705078125 177 544.486328125 c 4
 177 514.209960938 323 461 323 461 c 5
434 140 m 5
 434 378 l 5
 223 294 l 5
 434 140 l 5
EndSplineSet
EndChar

StartChar: bnBA
Encoding: 2476 2476 14
Width: 580
VWidth: 0
Flags: HW
HStem: 0 21G<378.5 512.035> 575 61<-14 447 513 615>
VStem: 447 65<82 459 532 575>
LayerCount: 2
Back
Fore
SplineSet
167 296 m 21
 396 138 l 5
 396 388 l 5
 167 296 l 21
594 530 m 13
 514 530 l 29
 514 0 l 5
 396 0 l 5
 54 232 l 5
 54 379 l 5
 396 507 l 13
 396 530 l 5
 -14 530 l 21
 -14 636.328125 l 5
 594 636.328125 l 13
 594 530 l 13
EndSplineSet
EndChar

StartChar: bnRA
Encoding: 2480 2480 15
Width: 580
VWidth: 0
Flags: HW
HStem: -179.752 97.9033<-204.327 -109>
VStem: -204.327 95.3271<-179.752 -81.8486>
LayerCount: 2
Back
Fore
SplineSet
167 296 m 21
 396 138 l 5
 396 388 l 5
 167 296 l 21
594 530 m 13
 514 530 l 29
 514 0 l 5
 396 0 l 5
 54 232 l 5
 54 379 l 5
 396 507 l 13
 396 530 l 5
 -14 530 l 21
 -14 636.328125 l 5
 594 636.328125 l 13
 594 530 l 13
96.052734375 -55 m 2xe0
 96.052734375 35 l 2
 96.052734375 50 104.052734375 60 120.052734375 60 c 2
 208.052734375 60 l 2
 223.052734375 60 231.052734375 49 231.052734375 35 c 2
 231.052734375 -55 l 2
 231.052734375 -70 222.052734375 -78 208.052734375 -78 c 2
 120.052734375 -78 l 2
 106.052734375 -78 96.052734375 -69 96.052734375 -55 c 2xe0
EndSplineSet
EndChar

StartChar: bnE
Encoding: 2447 2447 16
Width: 725
VWidth: 0
Flags: HW
HStem: -0 72<242.42 416.639> 556 74<399.532 531.126>
VStem: 553 69<152 533.946> 575 47<0 26.7273>
LayerCount: 2
Back
Fore
SplineSet
538 207 m 5
 538 433 l 1
 538 491 499 516 457 516 c 0
 389.774414062 516 228 413 228 413 c 1xe0
 175 484 l 1
 289 592 376 636 456 636 c 0
 554 636 654 599 654 463 c 2xe0
 654 0 l 1
 560 0 l 1xd0
 538 84 l 21
 538 84 421.524414062 0 327 0 c 4
 284 0 191 2 130 91 c 4
 104.284179688 128.51953125 74 186 54 253 c 5
 120 286 l 5
 186 189 l 6
 232.042052262 119.936921607 287 113 324 113 c 4
 414.877929688 113 538 207 538 207 c 5
EndSplineSet
EndChar

StartChar: bnAI
Encoding: 2448 2448 17
Width: 875
VWidth: 0
Flags: HW
HStem: -0 72<242.42 416.639> 279 70<622 695.773> 556 74<399.532 531.126>
VStem: 553 69<152 279 349 533.946> 575 47<0 26.7273> 713 64<367.233 632.575>
LayerCount: 2
Back
Fore
SplineSet
654 268 m 17
 732 268 825 288 825 388 c 0
 825 446.061523438 811 743 811 743 c 1
 717 739 l 17
 717 739 717 549.432617188 717 443 c 0
 717 395 694 379 654 379 c 9
 654 463 l 2xe0
 654 599 554 636 456 636 c 0
 376 636 289 592 175 484 c 1
 228 413 l 1xe0
 228 413 389.774414062 516 457 516 c 0
 499 516 538 491 538 433 c 1
 538 207 l 1
 538 207 414.877929688 113 324 113 c 0
 287 113 232.042052262 119.936921607 186 189 c 2
 120 286 l 1
 54 253 l 1
 74 186 104.284179688 128.51953125 130 91 c 0
 191 2 284 0 327 0 c 0
 421.524414062 0 538 84 538 84 c 9
 560 0 l 1xd0
 654 0 l 1
 654 268 l 17
EndSplineSet
EndChar

StartChar: bnNYA
Encoding: 2462 2462 18
Width: 965
VWidth: 0
Flags: HW
HStem: -0 118<245.478 410.643> 81 105<660.053 814.637> 278 101<715 808.599> 464 105<660.953 805.412> 516 120<399.051 529.11>
VStem: 553 107<202 462.197> 811 102<381.937 460.215> 821 91<190.032 272.248>
AnchorPoint: "anchor 1" 559.994 0 basechar 0
AnchorPoint: "anchor0" 533 634 basechar 0
LayerCount: 2
Back
Fore
SplineSet
635 547.081054688 m 1
 635 547 733 569 770 569 c 0
 834 569 908 568 908 455 c 2
 908 417 l 2x36
 908 384 904 337 863 331 c 1
 904 324 907 277 907 244 c 2
 907 193 l 2
 907 81 827.017578125 81 770 81 c 0x75
 728 81 655 90 655 90 c 9
 655 0 l 1
 560 0 l 1xd0
 538 84 l 17
 538 84 421.524414062 0 327 0 c 0
 284 0 191 2 130 91 c 0
 104.284179688 128.51953125 74 186 54 253 c 1
 120 286 l 1
 186 189 l 2
 232.042052262 119.936921607 287 113 324 113 c 0
 414.877929688 113 538 207 538 207 c 1
 538 433 l 1
 538 491 499 516 457 516 c 0
 389.774414062 516 228 413 228 413 c 1xe0
 175 484 l 1
 289 592 376 636 456 636 c 0
 588.6171875 636 635 547.081054688 635 547.081054688 c 1
655 186 m 17x76
 655 186 729.905273438 186 770 186 c 0
 796 186 816 196 816 228 c 0x75
 816 266.677734375 800.59765625 278 763 278 c 2
 710 278 l 17
 710 379 l 9
 753 379 l 2
 792.34375 379 806 381.376953125 806 422 c 0
 806 455 787 464 762 464 c 0
 721.35546875 464 655 464 655 464 c 9
 655 186 l 17x76
EndSplineSet
EndChar

StartChar: bnTTA
Encoding: 2463 2463 19
Width: 650
VWidth: 0
Flags: HW
HStem: 0 131<199.102 299.182> 337 104<279 422.918> 526 110<-14 79 192 415 536 664> 682 97<117.961 411.018>
VStem: 79 113<137.109 526> 434 124<239.095 324.073>
AnchorPoint: "anchor 1" 173 14 basechar 0
LayerCount: 2
Back
Fore
SplineSet
192 530 m 1
 192 530 192 264 192 223 c 0
 192 177.6015625 193 131 252 131 c 0
 316 131 376.399456876 161.74223643 423 215 c 0
 451 247 454 277 454 292 c 0
 454 332 400 337 333 337 c 0
 288 337 279 337 279 337 c 1
 269 433 l 1
 269 433 363 441 413 441 c 0
 521 441 578 376.557617188 578 305 c 0
 578 279 570.4609375 241.928710938 551 202 c 0
 493 83 338 0 238 0 c 0
 173 0 79 37 79 159 c 2
 79 530 l 9
 -14 530 l 1
 -14 636.328125 l 1
 415 636.328125 l 21
 415 679.328125 399 682 351 682 c 4
 265.614257812 682 61 682 61 682 c 13
 57 765 l 5
 57 765 224 779 378 779 c 4
 530 779 536 714.328125 536 636.328125 c 13
 664 636.328125 l 1
 664 530 l 17
 192 530 l 1
EndSplineSet
EndChar

StartChar: bnDDHA
Encoding: 2466 2466 20
Width: 650
VWidth: 0
Flags: HW
HStem: 0 131<199.102 299.182> 337 104<279 422.918> 526 110<-14 79 192 664>
VStem: 79 113<137.109 526> 434 124<239.095 324.073>
AnchorPoint: "anchor 1" 179 10 basechar 0
AnchorPoint: "anchor0" 263 636 basechar 0
LayerCount: 2
Back
Fore
SplineSet
664 636.328125 m 21
 664 530 l 21
 192 530 l 5
 192 530 192 264 192 223 c 4
 192 177.6015625 193 131 252 131 c 4
 316 131 376.399456876 161.74223643 423 215 c 4
 451 247 454 277 454 292 c 4
 454 332 400 337 333 337 c 4
 288 337 279 337 279 337 c 5
 269 433 l 5
 269 433 363 441 413 441 c 4
 521 441 578 376.557617188 578 305 c 4
 578 279 570.4609375 241.928710938 551 202 c 4
 493 83 338 0 238 0 c 4
 173 0 79 37 79 159 c 6
 79 530 l 13
 -14 530 l 5
 -14 636.328125 l 5
 664 636.328125 l 21
EndSplineSet
EndChar

StartChar: bnDDHxA
Encoding: 2525 2525 21
Width: 650
VWidth: 0
Flags: HW
HStem: -190 138<174.146 308.837> 0 131<199.102 299.182> 337 104<279 422.918> 526 110<-14 79 192 664>
VStem: 79 113<137.109 526> 174 135<-189.896 -52.0717> 434 124<239.095 324.073>
AnchorPoint: "anchor0" 243 634 basechar 0
LayerCount: 2
Back
Fore
SplineSet
664 636.328125 m 17
 664 530 l 17
 192 530 l 1
 192 530 192 264 192 223 c 0
 192 177.6015625 193 131 252 131 c 0
 316 131 376.399456876 161.74223643 423 215 c 0
 451 247 454 277 454 292 c 0
 454 332 400 337 333 337 c 0
 288 337 279 337 279 337 c 1
 269 433 l 1
 269 433 363 441 413 441 c 0
 521 441 578 376.557617188 578 305 c 0
 578 279 570.4609375 241.928710938 551 202 c 0
 493 83 338 0 238 0 c 0
 173 0 79 37 79 159 c 2
 79 530 l 9
 -14 530 l 1
 -14 636.328125 l 1
 664 636.328125 l 17
174 -167 m 2xf6
 174 -77 l 2
 174 -62 182 -52 198 -52 c 2
 286 -52 l 2
 301 -52 309 -63 309 -77 c 2
 309 -167 l 2
 309 -182 300 -190 286 -190 c 2
 198 -190 l 2
 184 -190 174 -181 174 -167 c 2xf6
EndSplineSet
EndChar

StartChar: bnYA
Encoding: 2479 2479 22
Width: 650
VWidth: 0
Flags: HW
HStem: 0 21G<-45.5 88.035> 575 61<-501 -372 -340 23 89 196>
VStem: -182.952 88.1683<380.118 431.281> 23 65<82 575>
LayerCount: 2
Back
Fore
SplineSet
101 529.998046875 m 5
 -10 530 l 5
 -10 636.328125 l 5
 661 636.328125 l 5
 661 530 l 13
 588 530 l 29
 588 0 l 5
 463 0 l 5
 110 185 l 5
 110.001953125 269 l 5
 110.001953125 269 262 343 262 377 c 4
 262 407.25 88 488 88 488 c 5
 101 529.998046875 l 5
259 240 m 5
 478 122 l 5
 478 530 l 5
 191 530 l 5
 191 530 245 509 293 478 c 4
 327.287402974 455.856052246 376 425 376 378 c 4
 376 325 328 285 259 240 c 5
EndSplineSet
EndChar

StartChar: bnYxA
Encoding: 2527 2527 23
Width: 650
VWidth: 0
Flags: HW
HStem: 0 21G<-45.5 88.035> 575 61<-501 -372 -340 23 89 196>
VStem: -182.952 88.1683<380.118 431.281> 23 65<82 575>
LayerCount: 2
Back
Fore
SplineSet
101 529.998046875 m 1
 -10 530 l 1
 -10 636.328125 l 1
 661 636.328125 l 1
 661 530 l 9
 588 530 l 25
 588 0 l 1
 463 0 l 1
 110 185 l 1
 110.001953125 269 l 1
 110.001953125 269 262 343 262 377 c 0
 262 407.25 88 488 88 488 c 1
 101 529.998046875 l 1
259 240 m 1
 478 122 l 1
 478 530 l 1
 191 530 l 1
 191 530 245 509 293 478 c 0
 327.287402974 455.856052246 376 425 376 378 c 0
 376 325 328 285 259 240 c 1
163 -84 m 2xe0
 163 6 l 2
 163 21 171 31 187 31 c 2
 275 31 l 2
 290 31 298 20 298 6 c 2
 298 -84 l 2
 298 -99 289 -107 275 -107 c 2
 187 -107 l 2
 173 -107 163 -98 163 -84 c 2xe0
EndSplineSet
EndChar

StartChar: bnSSA
Encoding: 2487 2487 24
Width: 650
VWidth: 0
Flags: HW
HStem: 0 21G<-45.5 88.035> 575 61<-501 -372 -340 23 89 196>
VStem: -182.952 88.1683<380.118 431.281> 23 65<82 575>
LayerCount: 2
Back
Fore
SplineSet
101 529.998046875 m 5
 -10 530 l 5
 -10 636.328125 l 5
 661 636.328125 l 5
 661 530 l 13
 588 530 l 29
 588 0 l 5
 463 0 l 5
 110 185 l 5
 110.001953125 269 l 5
 110.001953125 269 262 343 262 377 c 4
 262 407.25 88 488 88 488 c 5
 101 529.998046875 l 5
478 401 m 5
 478 530 l 5
 193 530 l 5
 193 530 257 499 312 468 c 4
 377.360033574 431.160708349 434 401 478 401 c 5
478 297 m 5
 426 297 363 330 363 330 c 5
 363 330 344.057617188 303.403320312 330 292 c 4
 276.993164062 249 260.006835938 239 260.006835938 239 c 5
 478 122 l 5
 478 297 l 5
EndSplineSet
EndChar

StartChar: bnPHA
Encoding: 2475 2475 25
Width: 900
VWidth: 0
Flags: HW
HStem: 0 21G<424.838 588> 390 99<588 731.244> 526 110<-10 108 177 911>
VStem: 478 110<122 390> 740 108<294.61 379.26>
AnchorPoint: "anchor 1" 463 0 basechar 0
AnchorPoint: "anchor0" 473 636 basechar 0
LayerCount: 2
Back
Fore
SplineSet
683 390 m 6
 588 390 l 5
 588 0 l 5
 463 0 l 5
 110 185 l 5
 110 269 l 5
 110 269 251 336 251 371 c 4
 251 403.25 87 484 87 484 c 5
 108 530 l 5
 -10 530 l 1
 -10 636.328125 l 1
 911 636.328125 l 1
 911 530 l 1
 190 530 l 5
 190 530 240.456054688 508.037109375 293 477 c 4
 330.382100786 454.918819307 371 422 371 371 c 4
 371 312 300 264 261 237 c 5
 478 122 l 5
 478 489 l 29
 693 489 l 6
 805 489 849 439 849 366 c 4
 849 344 840.401367188 318.803710938 828 294 c 4
 806 250 743 190 743 190 c 5
 676 234 l 5
 676 234 703.182402911 272.268343255 722 304 c 4
 733.374001194 323.179701851 740 345 740 358 c 4
 740 390 699 390 683 390 c 6
EndSplineSet
EndChar

StartChar: bnGHA
Encoding: 2456 2456 26
Width: 650
VWidth: 0
Flags: HW
HStem: 0 21G<424.5 558> 365 60.8091<147.517 307> 575 61<-10 132 178.707 493 558 641>
VStem: 76 65<435.737 519.241> 493 65<78 575>
LayerCount: 2
Back
Fore
SplineSet
193 530 m 5
 194 530 169.712890625 489.701171875 188.002929688 471.190429688 c 4
 204 455 254.599609375 454 316 454 c 4
 349.087890625 454 371.002929688 454.190429688 371.002929688 454.190429688 c 5
 405 318 l 5
 265 237 l 5
 478 128 l 5
 478 530 l 5
 193 530 l 5
86.99609375 530 m 5
 -10 530 l 5
 -10 636.328125 l 5
 661 636.328125 l 5
 661 530 l 13
 588 530 l 29
 588 0 l 5
 463 0 l 5
 110 185 l 5
 110 269 l 5
 283 360.428710938 l 5
 283 360.428710938 256.048828125 360.543945312 232.78125 360.543945312 c 4
 175.145507812 360.543945312 98.9997553865 370.9998215 72 408 c 4
 62.4951171875 421.025390625 59 436 59 451 c 4
 59 489 86.99609375 530 86.99609375 530 c 5
EndSplineSet
EndChar

StartChar: bnBHA
Encoding: 2477 2477 27
Width: 800
VWidth: 0
Flags: HW
HStem: 12 114<367.608 497.711> 254 95<382.795 545.312> 399 90.0977<381.943 500> 526 110<-14 860>
VStem: 274 107<289.5 397.61> 674 124<239.779 297.164>
AnchorPoint: "anchor 1" 397 -8 basechar 0
AnchorPoint: "anchor0" 443 636 basechar 0
LayerCount: 2
Back
Fore
SplineSet
457 228 m 4
 352.8515625 228 260 255.602539062 260 349 c 4
 260 395 276.416992188 456.416992188 290 470 c 4
 309 489 326 489.09765625 358.72265625 489.09765625 c 4
 394 489.09765625 489 476 489 476 c 5
 478 397 l 21
 478 397 429.595703125 397 392.498046875 397 c 4
 372.498046875 397 369 378 369 360 c 4
 369 331.8125 416.337890625 330 465 330 c 4
 530.115234375 330 581.598632812 406 637 406 c 4
 687 406 764 303 764 244 c 4
 764 174.56640625 644 69 550 21 c 4
 527.241379248 9.37857663702 479 -11 429 -11 c 4
 363 -11 292 14 209 100 c 4
 128.46875 183.442382812 57 310 57 310 c 5
 123 358 l 5
 273 192 l 6
 321.991210938 137.783203125 374 98 430 98 c 4
 461 98 494 111 519 127 c 4
 576.537109375 163.82421875 651 214.272460938 651 241 c 4
 651 259 635 288 613 288 c 4xbe
 593.631835938 288 550.34765625 228 457 228 c 4
812 636.328125 m 17xf0
 812 530 l 25
 -14 530 l 1
 -14 636.328125 l 1
 812 636.328125 l 17xf0
EndSplineSet
EndChar

StartChar: bnKHA
Encoding: 2454 2454 28
Width: 740
VWidth: 0
Flags: HW
HStem: 0 21G<515.739 668> 526 111<668 751>
VStem: 552 199<526 637> 552 116<133 526>
AnchorPoint: "anchor0" 493 634 basechar 0
LayerCount: 2
Back
Fore
SplineSet
510 369 m 5
 276 273 l 5
 549 134 l 5
 549 628 l 13
 545 702 l 5
 621 702 l 5
 646 636.328125 l 29
 750 636.328125 l 29
 750 530 l 29
 664 530 l 29
 664 0 l 5
 549 0 l 5
 116 222 l 5
 116 330 l 5
 368 434 l 5
 351 475 l 5
 351 475 236.338867188 425.333984375 196 418 c 4
 152 410 115 429 99 444 c 4
 80.9375 460.93359375 61 489 61 530 c 4
 61 574 84 609 111 623 c 4
 134.953125 635.419921875 210 651 210 651 c 5
 234 588 l 5
 234 588 201.782226562 573.439453125 174 559 c 4
 157.6875 550.521484375 150 518 183 518 c 4
 221.807617188 518 371.098632812 586.58984375 394 597 c 4
 405 602 417.240234375 600.10546875 422 589 c 4
 434 561 510 369 510 369 c 5
EndSplineSet
EndChar

StartChar: bnTHA
Encoding: 2469 2469 29
Width: 700
VWidth: 0
Flags: HW
HStem: 502 103<142 372.359>
VStem: 379 106<426.971 492.294>
AnchorPoint: "anchor0" 453 634 basechar 0
LayerCount: 2
Back
Fore
SplineSet
235 274 m 5
 235 274 426 348 426 434 c 4
 426 555 378.10546875 605 219 605 c 4
 145 605 68 592 68 592 c 5
 83 496 l 5
 83 496 149 496 207 496 c 4
 308 496 311 481 311 454 c 4
 311 407 76 330 76 330 c 5
 76 222 l 5
 509 0 l 5
 624 0 l 5
 624 530 l 29
 710 530 l 29
 710 636.328125 l 29
 605 636.328125 l 29
 582 702 l 5
 504.95703125 702 l 5
 509 628 l 21
 509 134 l 5
 235 274 l 5
EndSplineSet
EndChar

StartChar: bnCA
Encoding: 2458 2458 30
Width: 620
VWidth: 0
Flags: HW
HStem: 0 116<198.894 299.584> 526 110<-10 80 192 631>
VStem: 80 112<119.874 393 488 526> 447 116<249.514 342.307>
AnchorPoint: "anchor 1" 187 6 basechar 0
AnchorPoint: "anchor0" 273 636 basechar 0
LayerCount: 2
Back
Fore
SplineSet
192 391 m 1
 192 208 l 1
 192 148 192 116 232 116 c 0
 276 116 360 162 417 238 c 0
 441.298828125 270.397460938 447 288 447 307 c 0
 447 343 422.219726562 344 388 351 c 0
 290.258789062 370.993164062 192 391 192 391 c 1
192 490 m 25
 192 490 238.709960938 484.448242188 276 480 c 0
 394.9765625 465.806640625 419.131835938 461.709960938 448 456 c 0
 539 438 568 375.7421875 568 316 c 0
 568 287 557.532226562 249.840820312 546 228 c 0
 480 103 331 0 233 0 c 0
 168 0 75.9951171875 29 75.9951171875 159 c 2
 75.9951171875 530 l 1
 -10 530 l 1
 -10 636.328125 l 1
 631 636.328125 l 1
 631 530 l 1
 192 530 l 17
 192 490 l 25
EndSplineSet
EndChar

StartChar: bnCHA
Encoding: 2459 2459 31
Width: 685
VWidth: 0
Flags: HW
HStem: 526 110<-14 69 174 736>
VStem: 69 105<286.617 416 506 526> 553 108<256.278 329.072>
AnchorPoint: "anchor 1" 336 -29 basechar 0
AnchorPoint: "anchor0" 343 636 basechar 0
LayerCount: 2
Back
Fore
SplineSet
299 324 m 0
 315 341 320.170898438 354.290039062 320.170898438 364.74609375 c 0
 320.170898438 390.73046875 294.337890625 394.133789062 268.15234375 398.7265625 c 0
 197.358398438 411.1484375 174.071289062 416.411132812 174.071289062 416.411132812 c 1
 174.071289062 303.268554688 l 1
 174.721679688 274.514648438 190.578125 269.98046875 202.931640625 269.98046875 c 0
 231.54296875 269.98046875 267.014648438 290.015625 299 324 c 0
419.66796875 361 m 1
 419.66796875 361 424 346.366210938 424 337 c 0
 424 303 402.590820312 275.3828125 365 240 c 4
 326.641601562 203.89453125 245.76953125 155 172 155 c 0
 133 155 69 184 69 268 c 2
 69 530 l 1
 -14 530 l 1
 -14 636.328125 l 1
 696 636.328125 l 1
 696 530 l 1
 174 530 l 1
 174 506 l 1
 174 506 246 498 461 461 c 0
 557.443976192 444.402664562 614 415 614 320 c 0
 614 292 604.256369595 236.929339782 596 207 c 0
 572 120 395 71 395 71 c 1
 628 -6 l 1
 600 -93 l 1
 600 -93 396 -57 183 21 c 1
 202 121 l 1
 202 121 475.055757414 205.692451363 493 253 c 0
 504 282 506 311 506 321 c 0
 506 333 501 342 461 352 c 0
 437.375486311 357.906128422 419.66796875 361 419.66796875 361 c 1
EndSplineSet
EndChar

StartChar: bnNGA
Encoding: 2457 2457 32
Width: 760
Flags: HW
HStem: 0 122<346.986 474.469> 258.778 105.647<449.08 580.992> 401 88<449 557.824> 547 90<451.86 556.15>
VStem: 349 100<355 401 505 543.12> 558 95<490.072 543.363> 581 133<212.429 299.679>
AnchorPoint: "anchor 1" 358 5 basechar 0
AnchorPoint: "anchor0" 383 634 basechar 0
LayerCount: 2
Back
Fore
SplineSet
439 401 m 5
 438.998046875 360.475585938 l 5
 438.998046875 360.475585938 528.998046875 365.208007812 564.998046875 365.208007812 c 4
 647.99609375 365.208007812 710 319.805664062 710 242 c 4
 710 137.130859375 565 0 399.94921875 -0.3564453125 c 4
 339.999023438 -0.486328125 262.525390625 31.8935546875 204 108 c 4
 82.5 266 46 399 46 399 c 5
 116 435.267578125 l 5
 116 435.267578125 226.165039062 268.72265625 290 186.267578125 c 4
 325.737304688 140.106445312 362.638671875 112.53515625 402.638671875 112.53515625 c 4
 490 112.53515625 592.63671875 186.208007812 592.63671875 225.208007812 c 4
 592.63671875 253.208007812 568.72265625 263.208007812 529.998046875 263.208007812 c 4
 475.998046875 263.208007812 320.998046875 263.208007812 320.998046875 263.208007812 c 5
 320.998046875 410.208007812 l 5
 320.998046875 410.208007812 271.275390625 428.262695312 217 456 c 4
 191.892578125 468.831054688 170 480 170 480 c 13
 204 552 l 5
 322 505 l 5
 322 542 322.30078125 580.4140625 348 607 c 4
 371 631 413 637 473 637 c 4
 579 637 636 628 636 529 c 4xfc
 636 464 625 401 548 401 c 6
 439 401 l 5
436 489 m 5
 491 489 l 6
 523 489 538 490 538 515 c 4
 538 539 531 547 482 547 c 4
 442 547 436 538 436 489 c 5
EndSplineSet
EndChar

StartChar: bnNA
Encoding: 2472 2472 33
Width: 645
VWidth: 0
Flags: HW
HStem: 0 21G<488 555> 362.225 70.1726<181.576 330.97> 575 61<-14 488 555 655>
VStem: 89.3553 68.3918<229.747 337.85> 488 67<0 290 363 574>
LayerCount: 2
Back
Fore
SplineSet
462 253 m 5
 462 253 296.079101562 327 236 327 c 4
 191.736328125 327 169.0390625 297.961914062 169.0390625 267.479492188 c 4
 169.0390625 228.557617188 246 162 246 162 c 5
 194 97 l 5
 194 97 138 133 103 170 c 4
 72.4632940209 202.281660606 57.35546875 245.028320312 57.35546875 286.431640625 c 4
 57.35546875 326.131835938 78.212890625 370.365234375 107 396 c 4
 146.502929688 431.177734375 172.908203125 439.3984375 220.963867188 439.3984375 c 4
 297.952148438 439.3984375 462 363 462 363 c 5
 462 530 l 5
 -14 530 l 5
 -14 636.328125 l 5
 655 636.328125 l 5
 655 530 l 5
 568 530 l 5
 568 0 l 5
 462 0 l 5
 462 253 l 5
EndSplineSet
EndChar

StartChar: bnNNA
Encoding: 2467 2467 34
Width: 640
VWidth: 0
Flags: HW
HStem: 0 21G<462 568> 500.592 106.252<177.863 334.806> 526 110<568 652>
VStem: 462 106<0 425>
AnchorPoint: "anchor0" 403 634 basechar 0
LayerCount: 2
Back
Fore
SplineSet
462 434 m 5
 462 434 346 500 268 500 c 4
 221.68359375 500 188 449.666015625 188 411 c 4
 188 370.735351562 267 295 267 295 c 5
 214 234 l 5
 214 234 161.23046875 269.041015625 123 310.735351562 c 4
 98 338 77.35546875 375.763671875 77.35546875 426.166992188 c 4
 77.35546875 477.8671875 117.928710938 546.03515625 147.298828125 571 c 4
 181.846679688 600.365234375 209.677734375 606.84375 248.091796875 606.84375 c 4
 263.393554688 606.84375 294.456054688 603.2421875 311 599 c 4
 389 579 462 540 462 540 c 5
 462 629 l 5
 487.498046875 702 l 5
 562 702 l 5
 558.6015625 636.328125 l 5
 652 636.328125 l 5
 652 530 l 5
 573 530 l 29xb0
 573 0 l 5
 462 0 l 5
 462 434 l 5
EndSplineSet
EndChar

StartChar: bnGA
Encoding: 2455 2455 35
Width: 600
VWidth: 0
Flags: HW
HStem: 0 21G<408 525> 510 115.778<168.842 275.581> 526 110<525 612>
VStem: 36.8506 139.149<401.936 505.485> 219 119<234.658 325.355> 408 117<0 460>
AnchorPoint: "anchor0" 363 634 basechar 0
LayerCount: 2
Back
Fore
SplineSet
159 121 m 5
 159 121 338 197.31640625 338 256 c 4
 338 287.665039062 325.575195313 334.231445312 322 347 c 4
 308 397 305.459799209 402.104502678 264.959960938 418.31640625 c 4
 233.896484375 430.750976562 162 451 162 467 c 4
 162 480 174.521484375 513 194 513 c 4
 214 513 262.241210938 499.090820312 285 493 c 4
 408 460 l 13xbc
 408 0 l 21
 515 0 l 5
 515 530 l 29
 612 530 l 5
 612 636.328125 l 13
 505 636.328125 l 21
 482 702 l 5
 404 702 l 5
 409 617 l 5
 408.837890625 564 l 5
 408.837890625 564 261.486328125 624.778320312 167.014648438 624.778320312 c 4
 141.110351562 624.778320312 121.220703125 622 98.220703125 603 c 4
 78.5732630354 586.769506013 35 491.19921875 35 436 c 4
 35 379.516601562 135.75 357.682617188 197 333 c 4
 219.856445312 323.4765625 224.03515625 300.245117188 224.03515625 280.23828125 c 4
 224.03515625 258.698242188 118 191 118 191 c 5
 159 121 l 5
EndSplineSet
EndChar

StartChar: bnPA
Encoding: 2474 2474 36
Width: 750
VWidth: 0
Flags: HW
HStem: 0 21G<594 700> 512 110<307.491 423.711> 526 110<700 784>
VStem: 594 190<526 636> 594 106<0 351 479 526>
AnchorPoint: "anchor0" 533 636.328 basechar 0
LayerCount: 2
Back
Fore
SplineSet
576 351 m 5xa8
 539 386 l 5
 351 218 l 5
 284 227 l 5
 157 397 l 5
 102 360 l 5
 49 427 l 5
 49 427 142 518 256 588 c 4
 286.547851562 606.7578125 323 622 352 622 c 4
 388 622 414.337890625 610.57421875 437 595 c 4
 509.928710938 544.881835938 574 479 574 479 c 5xc8
 574 628 l 5xb0
 600 702 l 5
 675 702 l 5
 672 636.328125 l 5xa8
 764 636.328125 l 5
 764 530 l 5xb0
 680 530 l 29
 680 0 l 5
 576 0 l 5
 576 351 l 5xa8
458 443 m 5
 458 443 445 457 429 470 c 4
 399.661132812 493.837890625 372 512 344 512 c 4
 316 512 296.837890625 495.756835938 284 486 c 4
 259 467 238 449 238 449 c 5
 328 334 l 5
 458 443 l 5
EndSplineSet
EndChar

StartChar: bnLA
Encoding: 2482 2482 37
Width: 770
VWidth: 0
Flags: HW
HStem: 0 21G<588 655> 384 67<158.219 335.585 445.319 572.813> 575 61<-14 588 655 759>
VStem: 73 65<257.333 364.122> 357 52<206 258.182> 588 67<0 369.076 435 574>
LayerCount: 2
Back
Fore
SplineSet
588 252 m 4
 588 303 586 353 520 353 c 4
 451.796875 353 445.461613582 335.308067909 430 258 c 6
 419 203 l 5
 328 203 l 5
 324 254 l 5
 319.635742188 339.26171875 288.225585938 352 219 352 c 4
 166.37109375 352 157 331 157 285 c 4
 157 236.916015625 194 127 194 127 c 5
 114 97 l 5
 114 97 38 200.530273438 38 321 c 4
 38 435 128 462 189 462 c 4
 269.517578125 462 357.249023438 459.481445312 377 392 c 5
 405 451 445 458 513 458 c 4
 570.284179688 458 588 430 588 430 c 5
 588 530 l 5
 -14 530 l 5
 -14 636.328125 l 5
 781 636.328125 l 5
 781 530 l 5
 694 530 l 5
 694 0 l 5
 588 0 l 5
 588 252 l 4
EndSplineSet
EndChar

StartChar: bnDA
Encoding: 2470 2470 38
Width: 575
Flags: HW
AnchorPoint: "anchor 1" 346 0 basechar 0
AnchorPoint: "anchor0" 203 636 basechar 0
LayerCount: 2
Back
Fore
SplineSet
68 530 m 21
 68.103515625 294.500976562 l 5
 126 209 l 5
 390 327 l 5
 341 -35 l 5
 415 -35 l 5
 466.400390625 66 l 5
 510.900390625 429 l 5
 435.900390625 469.60546875 l 5
 177 359 l 5
 177 530 l 5
 590 530 l 5
 590 636.328125 l 5
 -11 636.328125 l 5
 -11 530 l 5
 68 530 l 21
EndSplineSet
EndChar

StartChar: bnSHA
Encoding: 2486 2486 39
Width: 670
VWidth: 0
Flags: HW
HStem: 0 21G<488 594> 247 102<300.959 401.969> 484 111<17.5799 172.018 299.614 475.76> 526 110<594 678>
VStem: 181 112<360.999 476.617> 488 106<0 468>
AnchorPoint: "anchor0" 464 637.328 basechar 0
LayerCount: 2
Back
Fore
SplineSet
488 602 m 1
 488 629 l 1
 513.498046875 702 l 1
 594 702 l 1
 594 636.328125 l 1
 678 636.328125 l 1
 678 530 l 1
 594 530 l 25
 594 0 l 1
 488 0 l 1
 488 472 l 1xdc
 488 506 435 526 390 526 c 0
 335.770507812 526 313 497 313 444 c 0
 313 390.71484375 317.6953125 371.182617188 353 350 c 0
 388 329 443 309 443 309 c 1
 425 226 l 1
 425 226 362 231 325 248 c 0
 285.122918211 266.321902444 260 285 260 285 c 1
 260 285 240.553710938 266.16796875 194 248 c 0
 153 232 95 224 95 224 c 1
 67 310 l 1
 67 310 108.999023438 322.000976562 151 342 c 0
 195.701171875 363.28515625 200 388.141601562 200 450 c 0
 200 500 184.918945312 520.954101562 148 525 c 0
 110.108398438 529.15234375 -10 530 -10 530 c 1
 -10 636.328125 l 1
 -10 636.328125 126 636.328125 178 636.328125 c 0
 218 636.328125 244 629 268 599 c 1
 295 630 317 634 353 634 c 0
 397 634 450 622 488 602 c 1
EndSplineSet
EndChar

StartChar: bnMA
Encoding: 2478 2478 40
Width: 650
VWidth: 0
Flags: HW
HStem: 0 21G<-32 33.035> 297 73<-301.991 -228.653> 575 61<-496 -401 -326 -32 34 112>
VStem: -401 71<184.502 264.85> -225 64<357.798 431.023> -32 65<0 230.669 287 575>
LayerCount: 2
Back
Fore
SplineSet
478 284 m 5
 478 530 l 1
 256 530 l 1
 256 530 293.470372879 505.295569641 310 492 c 0
 356 455 385 426 385 384 c 0
 385 370 373 329 373 329 c 5
 478 284 l 5
126 530 m 1
 -10 530 l 1
 -10 636.328125 l 1
 661 636.328125 l 1
 661 530 l 9
 588 530 l 25
 588 0 l 1
 478 0 l 1
 478 185 l 5
 478 185 258.87890625 268 239 268 c 4
 228 268 215.08984375 261.944335938 202 241 c 4
 188.798930548 219.878288876 195.738408532 201.69351561 211 188 c 4
 249.926757812 153.072265625 288 120 288 120 c 5
 242 57 l 5
 242 57 175.81640625 86.5537109375 129 125 c 4
 108.7734375 141.610351562 78 180 78 206 c 4
 78 229 82.068359375 264.958007812 107 305 c 4
 140 358 175 380 202 380 c 4
 222 380 258 367 258 367 c 5
 258 367 266 380 266 392 c 0
 266 403 263.213494012 411.230469883 246 427 c 0
 205.033203125 464.530273438 126 530 126 530 c 1
EndSplineSet
EndChar

StartChar: bnSA
Encoding: 2488 2488 41
Width: 722
VWidth: 0
Flags: HW
HStem: 0 21G<550 615.035> 119 75<145.706 233.766> 323 80<378 442.525> 575 61<-9 172 198 550 616 711>
VStem: 550 65<0 274.666 341 575>
LayerCount: 2
Back
Fore
SplineSet
540 313 m 5
 540 530 l 5
 224 530 l 5
 224 530 253.463867188 515.0625 266 508 c 4
 314.744140625 480.540039062 370.740234375 448.719726562 394 416 c 4
 411.625976562 391.205078125 416 364 416 364 c 5
 452 364 540 313 540 313 c 5
142 530 m 21
 -10 530 l 5
 -10 636.328125 l 5
 733 636.328125 l 5
 733 530 l 13
 650 530 l 29
 650 0 l 5
 540 0 l 5
 540 188 l 5
 532.810546875 190.913085938 452.759765625 237 423 237 c 4
 411 237 402.059570312 234.975585938 387 199 c 4
 351 113 305 76 252 76 c 4
 182 76 64 146 64 146 c 5
 96 233 l 5
 96 233 197.547851562 196 214 196 c 4
 248 196 256 213 286 275 c 4
 290.69140625 284.6953125 303 314 303 332 c 4
 303 358 271.185546875 383.815429688 246 402 c 4
 206.443359375 430.561523438 123 490 123 490 c 13
 142 530 l 21
EndSplineSet
EndChar

StartChar: bnJA
Encoding: 2460 2460 42
Width: 950
Flags: HW
HStem: -2.29688 113.297<359.531 470.511> 258 94<463.069 566.805> 526 111<-15 355 463 958>
VStem: 355 108<346 408 499 526> 567 138.237<199.994 288.658> 746 72<-26 -1.71468>
AnchorPoint: "anchor 1" 723 0 basechar 0
AnchorPoint: "anchor0" 663 637 basechar 0
LayerCount: 2
Back
Fore
SplineSet
325 530 m 5
 324.998046875 263.208007812 l 5
 324.998046875 263.208007812 479.998046875 263.208007812 533.998046875 263.208007812 c 4
 572.72265625 263.208007812 596.63671875 253.208007812 596.63671875 225.208007812 c 4
 596.63671875 186.208007812 494 112.53515625 406.638671875 112.53515625 c 4
 366.638671875 112.53515625 329.737304688 140.106445312 294 186.267578125 c 4
 230.165039062 268.72265625 120 435.267578125 120 435.267578125 c 5
 50 399 l 5
 50 399 86.5 266 208 108 c 4
 266.525390625 31.8935546875 343.999023438 -0.486328125 403.94921875 -0.3564453125 c 4
 569 0 714 137.130859375 714 242 c 4
 714 319.805664062 651.99609375 365.208007812 568.998046875 365.208007812 c 4
 532.998046875 365.208007812 442.998046875 360.475585938 442.998046875 360.475585938 c 5
 443 408 l 5
 443 408 659.518554688 377.977539062 717.518554688 360.977539062 c 4
 766.256835938 346.692382812 784.528320312 317.26953125 770.518554688 267.977539062 c 4
 744.561523438 176.65234375 719 73 719 73 c 5
 726 -26 l 5
 798 -26 l 5
 798 -26 897 254.666015625 897 339 c 4
 897 413.603515625 830.142578125 442.948242188 753.518554688 460.977539062 c 4
 668.518554688 480.977539062 443 503 443 503 c 5
 443 530 l 5
 964 530 l 5
 964 636.328125 l 5
 -15 636.328125 l 5
 -15 530 l 5
 325 530 l 5
EndSplineSet
EndChar

StartChar: bnO
Encoding: 2451 2451 43
Width: 725
VWidth: 0
Flags: HW
HStem: 8 115<352.275 448.908> 328 101<368 503.566> 526 110<253 508.845>
VStem: 511 105<428.951 576> 548 123<214.714 282.884>
AnchorPoint: "anchor0" 363 634 basechar 0
LayerCount: 2
Back
Fore
SplineSet
423 530 m 4xf0
 365.293945312 530 253 530 253 530 c 5
 245 616 l 5
 245 616 335 636 432 636 c 4
 546.003759453 636 618 606 618 546 c 4xf0
 618 530 617.6875 503.8125 616 483 c 4
 613 446 610 388 590 374 c 5
 645 353 671 275.76953125 671 232 c 4
 671 176 604 92 510 36 c 4
 482.294921875 19.4951171875 443 8 409 8 c 4
 348 8 265 26 190 136 c 4
 111.921875 250.515625 54 395 54 395 c 5
 116 432 l 5
 252 240 l 6
 305.98745597 163.782415101 347 121 394 121 c 4
 440 121 484.369140625 148.557617188 500 162 c 4
 550 205 555 228 555 244 c 4xe8
 555 271 521 319 479 319 c 5
 368 319 l 5
 368 419 l 5
 368 419 428.060546875 419 462 419 c 4
 501 419 503.081054688 428.088867188 508 474 c 4
 514 530 505.705078125 530 423 530 c 4xf0
EndSplineSet
EndChar

StartChar: bnAU
Encoding: 2452 2452 44
Width: 825
VWidth: 0
Flags: HW
HStem: 25 73<335.238 470.405> 346 63<368 510.427> 563 72<253.094 514.101>
VStem: 521 69<414.879 554.233> 572 71<185.206 305.439>
LayerCount: 2
Back
Fore
SplineSet
637 329 m 1xe0
 637 329 671 291.11730467 671 232 c 0
 671 176 604 92 510 36 c 0
 482.294921875 19.4951171875 443 8 409 8 c 0
 348 8 265 26 190 136 c 0
 111.921875 250.515625 54 395 54 395 c 1
 116 432 l 1
 252 240 l 2
 305.98745597 163.782415101 347 121 394 121 c 0
 440 121 484.369140625 148.557617188 500 162 c 0
 550 205 555 228 555 244 c 0xe8
 555 271 521 319 479 319 c 1
 368 319 l 1
 368 419 l 1
 368 419 428.060546875 419 462 419 c 0
 501 419 503.081054688 428.088867188 508 474 c 0
 514 530 505.705078125 530 423 530 c 0xf0
 365.293945312 530 253 530 253 530 c 1
 245 616 l 1
 245 616 335 636 432 636 c 0
 546.003759453 636 618 606 618 546 c 0xf0
 618 530 617.6875 503.8125 616 483 c 0
 614.59797529 465.708361906 611 429 611 429 c 1
 647 429 673 445 673 493 c 0
 673 599.432617188 670 739 670 739 c 9
 760 743 l 1
 760 743 777 509.061523438 777 451 c 0
 777 351 686 329 637 329 c 1xe0
EndSplineSet
EndChar

StartChar: bnII
Encoding: 2440 2440 45
Width: 780
VWidth: 0
Flags: HW
HStem: 398 42<675.25 693> 450.313 65.6865<155.242 334.252> 575 61<-14 564 634 791> 708 64<278.036 553.09>
VStem: 336 71<366.774 446.646> 520 42<-64 -16.7692> 564 70<636 696.221>
LayerCount: 2
Back
Fore
SplineSet
84 355 m 1
 58 441 l 1
 58 441 214 489 283 489 c 0
 335 489 397 469 397 404 c 0
 397 372 371 302 371 302 c 1
 621 447 l 1
 724 447 l 1
 733 368 l 1
 662 340 l 1
 611 -73 l 1
 535 -85 l 1
 510 18 l 1
 548 278 l 1
 188 47 l 1
 124 122 l 1
 213 206 l 1
 213 206 280 312.67578125 280 353 c 0
 280 375.201171875 267 382.313476562 240.877929688 382.313476562 c 0
 195.552734375 382.313476562 84 355 84 355 c 1
575 636.328125 m 17xf0
 575 679.328125 559 682 511 682 c 0
 425.614257812 682 71 682 71 682 c 9
 67 765 l 1
 67 765 319 779 538 779 c 0
 690 779 696 714.328125 696 636.328125 c 9
 798 636.328125 l 1
 798 530 l 25
 -14 530 l 1
 -14 636.328125 l 1
 575 636.328125 l 17xf0
EndSplineSet
EndChar

StartChar: bnvL
Encoding: 2444 2444 46
Width: 650
Flags: HW
HStem: 2 109<387.615 493.19> 230 103<175.361 275.049>
VStem: 62 107<62.2846 226.266> 278 122<471.463 535.874> 290 98<113.006 216.151> 505 100<122.668 273.264>
AnchorPoint: "anchor0" 503 636.328 basechar 0
LayerCount: 2
Back
Fore
SplineSet
154 48 m 5xec
 71.9013671875 21.2509765625 l 5
 71.9013671875 21.2509765625 47 66 40.673828125 94.955078125 c 4
 21.4638671875 182.880859375 51.15234375 232.12890625 141.989257812 252.068359375 c 4
 254.229492188 276.706054688 349.208007812 277.975585938 368 162 c 4xec
 372.03515625 137.096679688 376 114 376 114 c 5
 376 114 407.8046875 118.659179688 436.794921875 124.859375 c 4
 464.048828125 130.688476562 483.106445312 134 483.106445312 162.84765625 c 4
 483.106445312 177.629882812 482.408203125 203.002929688 471.599609375 219.708007812 c 4
 441 267 186.2734375 384 186.2734375 464.548828125 c 4
 186.2734375 531 244 600 311.216796875 646.635742188 c 5
 370 589 l 5
 322 538 304 514.698242188 304 493 c 4xf4
 304 450.825195312 531.130859375 353.65234375 574 278 c 4
 591 248 597 166.409179688 597 143 c 4
 597 75 508.720703125 28.494140625 458.901367188 17.58203125 c 4
 409.354492188 6.7294921875 307.220703125 -0.3564453125 307.220703125 -0.3564453125 c 5
 289.424804688 80.7138671875 l 6
 274.272460938 149.7421875 257.919921875 169.918945312 191.142578125 153.90234375 c 4
 128.747070312 138.936523438 136 112 154 48 c 5xec
EndSplineSet
EndChar

StartChar: bnTTHA
Encoding: 2464 2464 47
Width: 580
Flags: HW
HStem: -0.148438 124.148<240.512 319.221> 526 110.328<-44 144 282 634>
VStem: 413 126<203.534 269.211>
AnchorPoint: "anchor 1" 226 20 basechar 0
LayerCount: 2
Back
Fore
SplineSet
528 225 m 4
 528 143 391.399414062 -0.1484375 269.408203125 -0.1484375 c 4
 161.00463601 -0.1484375 38 224 38 287 c 5
 38 287 121 326 175.094726562 379.038085938 c 4
 199.286132812 402.7578125 202 421.7890625 202 444 c 4
 202 472.421875 145 530 145 530 c 5
 -14 530 l 5
 -14 636.328125 l 5
 134.591796875 636.328125 l 5
 134.591796875 636.328125 135.686523438 659.389648438 161 687 c 4
 214.553710938 745.412109375 339 826 339 826 c 5
 391 766 l 5
 391 766 301.852539062 689.1796875 271 658 c 4
 260.51953125 647.408203125 256.81640625 636.328125 256.81640625 636.328125 c 5
 593 636.328125 l 5
 593 530 l 5
 274 530.000976562 l 21
 274 500.822265625 528 335 528 225 c 4
403.276367188 224.666015625 m 4
 403.276367188 255.768554688 282.341796875 356.704101562 282.341796875 356.704101562 c 5
 282.275390625 347.576171875 268.34765625 324.775390625 248 301 c 4
 217.655273438 265.544921875 167.939453125 241.46875 167.939453125 241.46875 c 5
 167.939453125 241.46875 234.288085938 123.059570312 281.268554688 123.059570312 c 4
 335.924804688 123.059570312 403.276367188 198.764648438 403.276367188 224.666015625 c 4
EndSplineSet
EndChar

StartChar: A
Encoding: 65 65 48
Width: 692
Flags: W
HStem: 0 21G<34 34 34 184.4 528.95 528.95 528.95 678> 0 21G<34 34 34 184.4 528.95 528.95 528.95 678> 162.2 124.05 712 20G<281 440.25 440.25 440.25>
LayerCount: 2
Back
Fore
SplineSet
34 0 m 1xb0
 281 732 l 1
 440.25 732 l 1
 678 0 l 1
 528.950195312 0 l 1
 476.950195312 162.200195312 l 1
 237.200195312 162.200195312 l 1
 184.400390625 0 l 1
 34 0 l 1xb0
273.549804688 286.25 m 1
 443.799804688 286.25 l 1
 361.549804688 547.5 l 1
 273.549804688 286.25 l 1
EndSplineSet
Validated: 1
EndChar

StartChar: B
Encoding: 66 66 49
Width: 604
Flags: W
HStem: 0 123.5<201.2 201.2 201.2 365.3> 324 118 608.5 123.5
VStem: 60.75 140.45 431.25 137.8 440.75 140<182.524 248.225>
LayerCount: 2
Back
Fore
SplineSet
60.75 0 m 1xf4
 60.75 732 l 1
 362.549804688 732 l 2
 514.049804688 732 569.049804688 641.599609375 569.049804688 536.5 c 0xf8
 569.049804688 469.099609375 540.349609375 393.19921875 468.799804688 379.999023438 c 1
 529.849609375 368.899414062 580.75 308.099609375 580.75 215 c 0
 580.75 78.900390625 519.299804688 0 365.299804688 0 c 2
 60.75 0 l 1xf4
201.200195312 123.5 m 1
 359.799804688 123.499023438 l 2
 402.299804688 123.499023438 440.75 143.649414062 440.75 221.399414062 c 0xf4
 440.75 275.049804688 419.049804688 324 359.799804688 324 c 2
 201.200195312 324 l 1
 201.200195312 123.5 l 1
201.200195312 441.999023438 m 1
 354.299804688 441.999023438 l 2
 404.549804688 441.999023438 431.25 472.649414062 431.25 524.94921875 c 0xf8
 431.25 592.798828125 389.799804688 608.499023438 354.299804688 608.499023438 c 2
 201.200195312 608.499023438 l 1
 201.200195312 441.999023438 l 1
EndSplineSet
Validated: 1
EndChar

StartChar: C
Encoding: 67 67 50
Width: 571
Flags: W
HStem: -6 129 611 129<272.524 342.05 191.25 372.774>
VStem: 41.8 140
LayerCount: 2
Back
Fore
SplineSet
41.7998046875 368 m 0
 41.7998046875 602 91.75 740 290.75 740 c 0
 393.349609375 740 466.94921875 730.200195312 545.749023438 706.75 c 1
 545.749023438 597.150390625 l 2
 544.749023438 597.150390625 421.798828125 611 323.749023438 611 c 0
 221.298828125 611 181.798828125 587.549804688 181.798828125 366 c 0
 181.798828125 202 208.8984375 123 324.298828125 123 c 0
 429.298828125 123 545.749023438 131.099609375 545.749023438 131.099609375 c 1
 545.749023438 21.5 l 1
 480.149414062 1.349609375 395.549804688 -7.650390625 290.75 -6 c 0
 105.75 -4.349609375 41.7998046875 135.950195312 41.7998046875 368 c 0
EndSplineSet
Validated: 33
EndChar

StartChar: D
Encoding: 68 68 51
Width: 662
Flags: W
HStem: 0 124.85 608.5 123.5<200.75 360.8 200.75 200.75>
VStem: 60.75 140<124.85 124.85 124.85 608.5> 485.75 140<290.575 453.675 255.25 461.925>
LayerCount: 2
Back
Fore
SplineSet
60.75 0 m 1
 60.75 732 l 1
 371.799804688 732 l 2
 582.5 732 625.75 544.349609375 625.75 363 c 0
 625.75 147.5 550.5 0 371.799804688 0 c 2
 60.75 0 l 1
200.75 124.849609375 m 1
 360.799804688 124.850585938 l 2
 451.549804688 124.850585938 485.75 217.150390625 485.75 364 c 0
 485.75 559.849609375 438.849609375 608.5 360.799804688 608.5 c 2
 200.75 608.5 l 1
 200.75 124.849609375 l 1
EndSplineSet
Validated: 1
EndChar

StartChar: E
Encoding: 69 69 52
Width: 567
Flags: W
HStem: -3 131.75 14 114.75 294.95 135.1 304.4 115.1 600.25 115.75 600.25 131.75
VStem: 58 140
LayerCount: 2
Back
Fore
SplineSet
58 143.900390625 m 2x82
 58.0009765625 580 l 2
 58.0009765625 707.025390625 147.965820312 733.350585938 217.000976562 732.000976562 c 2x86
 217.000976562 732.000976562 474.701171875 724.80078125 539.05078125 716.000976562 c 1
 539.05078125 600.250976562 l 1x0a
 250.000976562 600.250976562 l 2
 198.000976562 600.250976562 198.000976562 571.250976562 198.000976562 544.250976562 c 2
 198.000976562 430.05078125 l 1x26
 493.55078125 419.500976562 l 1
 493.55078125 304.401367188 l 1x12
 198.000976562 294.951171875 l 1
 198.000976562 180.750976562 l 2
 198.451171875 127.750976562 231.000976562 128.750976562 260.000976562 128.750976562 c 2xa2
 539.05078125 128.750976562 l 1
 539.05078125 14.0009765625 l 1x42
 482.400390625 6.30078125 227 -2.9990234375 227 -2.9990234375 c 2
 161.71484375 -5.8994140625 58 8.900390625 58 143.900390625 c 2x82
EndSplineSet
Validated: 33
EndChar

StartChar: F
Encoding: 70 70 53
Width: 567
Flags: W
HStem: 0 21G<58 58 58 198> 0 21G<58 58 58 198> 294.95 135.1 304.4 115.1 600.25 115.75<250 539.05> 600.25 131.75<217 250 217 539.05>
VStem: 58 140<0 294.95 430.05 544.25>
LayerCount: 2
Back
Fore
SplineSet
58 0 m 1xa2
 58 577.799804688 l 2
 58 697.25 140.264648438 733.900390625 217 732 c 2xa6
 217 732 474.700195312 724.799804688 539.049804688 716 c 1
 539.049804688 600.25 l 1x0a
 250 600.25 l 2
 198 600.25 198 571.25 198 544.25 c 2
 198 430.049804688 l 1x26
 493.549804688 419.5 l 1
 493.549804688 304.400390625 l 1x12
 198 294.950195312 l 1
 198 0 l 1
 58 0 l 1xa2
EndSplineSet
Validated: 33
EndChar

StartChar: G
Encoding: 71 71 54
Width: 614
Flags: W
HStem: -5 130.75 303 88.5<330.75 433.3 330.75 330.75> 303 113.5<330.75 515.8> 616.5 123.5<258.475 336.175 181.25 370.95>
VStem: 41.8 140 433.3 140
LayerCount: 2
Back
Fore
SplineSet
41.7998046875 370 m 0xbc
 41.7998046875 582.650390625 81.75 740 280.75 740 c 0
 391.599609375 740 456.5 733.700195312 562.25 707.5 c 1
 562.25 599 l 1
 556.25 599 428.150390625 616.5 313.75 616.5 c 0
 203.200195312 616.5 181.799804688 548.549804688 181.799804688 368 c 0
 181.799804688 177.900390625 203.549804688 126.650390625 307.299804688 125.75 c 0
 375.599609375 125.299804688 433.299804688 171.75 433.299804688 171.75 c 1
 433.299804688 303 l 1xbc
 330.75 303 l 1
 330.75 391.5 l 1xdc
 373.5 409.650390625 432.549804688 416.5 505.299804688 416.5 c 0
 526.299804688 416.5 549.299804688 415.5 573.299804688 413.5 c 1
 573.299804688 0 l 1
 472.75 0 l 1
 435.299804688 49 l 1
 402.799804688 19.2001953125 364.299804688 -2.25 279.799804688 -5 c 0
 72.7998046875 -13.0498046875 41.7998046875 161.299804688 41.7998046875 370 c 0xbc
EndSplineSet
Validated: 33
EndChar

StartChar: H
Encoding: 72 72 55
Width: 636
Flags: W
HStem: 0 21G<60.75 60.75 60.75 200.75 451.75 451.75 451.75 591.75> 0 21G<60.75 60.75 60.75 200.75 451.75 451.75 451.75 591.75> 289.5 129<200.75 451.75 200.75 451.75> 712 20G<60.75 200.75 200.75 200.75 451.75 591.75 591.75 591.75>
VStem: 60.75 140<0 289.5 418.5 732> 451.75 140<0 289.5 289.5 289.5 418.5 732 0 732>
LayerCount: 2
Back
Fore
SplineSet
60.75 0 m 1xbc
 60.75 732 l 1
 200.75 732 l 1
 200.75 418.5 l 1
 451.75 418.5 l 1
 451.75 732 l 1
 591.75 732 l 1
 591.75 0 l 1
 451.75 0 l 1
 451.75 289.5 l 1
 200.75 289.5 l 1
 200.75 0 l 1
 60.75 0 l 1xbc
EndSplineSet
Validated: 1
EndChar

StartChar: I
Encoding: 73 73 56
Width: 245
Flags: W
HStem: 0 21G<60.75 60.75 60.75 200.75> 0 21G<60.75 60.75 60.75 200.75> 712 20G<60.75 200.75 200.75 200.75>
VStem: 60.75 140<0 732 0 732>
LayerCount: 2
Back
Fore
SplineSet
60.75 0 m 1xb0
 60.75 732 l 1
 200.75 732 l 1
 200.75 0 l 1
 60.75 0 l 1xb0
EndSplineSet
Validated: 1
EndChar

StartChar: J
Encoding: 74 74 57
Width: 356
Flags: W
HStem: 712 20G<171.649 311.649 311.649 311.649>
VStem: 171.65 140
LayerCount: 2
Back
Fore
SplineSet
26.75 23.2001953125 m 1
 28.5498046875 132.19921875 l 1
 119.599609375 124.099609375 171.19921875 121.149414062 171.649414062 226.049804688 c 2
 171.649414062 732 l 1
 311.649414062 732 l 1
 311.649414062 165 l 2
 311.649414062 118 308.549804688 50 258.549804688 18 c 0
 205.549804688 -16 78.75 -10.7998046875 26.75 23.2001953125 c 1
EndSplineSet
Validated: 33
EndChar

StartChar: K
Encoding: 75 75 58
Width: 628
Flags: W
HStem: 0 21G<60.75 60.75 60.75 196.25 439.601 439.601 439.601 602.751> 0 21G<60.75 60.75 60.75 196.25 439.601 439.601 439.601 602.751> 302.5 123.5<196.25 254.15 196.25 196.25> 712 20G<60.75 195.25 195.25 195.25 439.601 602.751 602.751 602.751>
VStem: 60.75 134.5<426 732 426 732 426 732>
LayerCount: 2
Back
Fore
SplineSet
60.75 0 m 1xb8
 60.75 732 l 1
 195.25 732 l 1
 195.25 426 l 1
 254.150390625 426 l 1
 439.600585938 732 l 1
 602.750976562 732 l 1
 378.80078125 365.349609375 l 1
 602.750976562 0 l 1
 439.600585938 0 l 1
 254.150390625 302.5 l 1
 196.25 302.5 l 1
 196.25 0 l 1
 60.75 0 l 1xb8
EndSplineSet
Validated: 1
EndChar

StartChar: L
Encoding: 76 76 59
Width: 539
Flags: W
HStem: 0 129<173.375 513.75 262.75 513.75 262.75 513.75> 712 20G<60.75 200.75 200.75 200.75>
VStem: 60.75 140<154.5 181 181 732>
LayerCount: 2
Back
Fore
SplineSet
60.75 142.5 m 2
 60.75 732 l 1
 200.75 732 l 1
 200.75 181 l 2
 200.75 128 233.75 129 262.75 129 c 2
 513.75 129 l 1
 513.75 0 l 1
 213.25 0 l 2
 133.5 0 60.75 29.5 60.75 142.5 c 2
EndSplineSet
Validated: 33
EndChar

StartChar: M
Encoding: 77 77 60
Width: 847
Flags: W
HStem: 0 21G<41.7998 41.7998 41.7998 180.149 345.949 345.949 345.949 502.249 668.149 668.149 668.149 806.499> 0 21G<41.7998 41.7998 41.7998 180.149 345.949 345.949 345.949 502.249 668.149 668.149 668.149 806.499> 712 20G<106.299 300.699 300.699 300.699 543.898 737.849 737.849 737.849>
LayerCount: 2
Back
Fore
SplineSet
41.7998046875 0 m 1xa0
 106.298828125 732 l 1
 300.69921875 732 l 1
 422.548828125 231.900390625 l 1
 543.8984375 732 l 1
 737.848632812 732 l 1
 806.499023438 0 l 1
 668.149414062 -0 l 1
 620.399414062 488.549804688 l 1
 502.249023438 0 l 1
 345.94921875 -0 l 1
 223.44921875 488.549804688 l 1
 180.149414062 0 l 1
 41.7998046875 0 l 1xa0
EndSplineSet
Validated: 1
EndChar

StartChar: N
Encoding: 78 78 61
Width: 678
Flags: W
HStem: 0 21G<60.75 60.75 60.75 201.75 493.2 493.2 493.2 633.2> 0 21G<60.75 60.75 60.75 201.75 493.2 493.2 493.2 633.2> 712 20G<60.75 202.75 202.75 202.75 493.2 633.2 633.2 633.2>
VStem: 60.75 141<0 467.5 0 732> 493.2 140
LayerCount: 2
Back
Fore
SplineSet
60.75 0 m 1xb8
 60.75 732 l 1
 202.75 732 l 1
 493.200195312 259 l 1
 493.200195312 732 l 1
 633.200195312 732 l 1
 633.200195312 0 l 1
 493.200195312 0 l 1
 201.75 467.5 l 1
 201.75 0 l 1
 60.75 0 l 1xb8
EndSplineSet
Validated: 1
EndChar

StartChar: O
Encoding: 79 79 62
Width: 671
Flags: W
HStem: -4 129<281.55 402.8 281.55 434.05> 608 129<289.925 399.675>
VStem: 49.6 140 497.6 140
LayerCount: 2
Back
Fore
SplineSet
49.599609375 361 m 0
 49.599609375 704 176.049804688 737 344.049804688 737 c 0
 517.049804688 737 637.599609375 704 637.599609375 361 c 0
 637.599609375 38 524.049804688 -4 344.049804688 -4 c 0
 164.049804688 -4 49.599609375 28 49.599609375 361 c 0
189.599609375 361 m 0
 189.599609375 161.200195312 219.049804688 125 344.049804688 125 c 0
 461.549804688 125 497.599609375 163.700195312 497.599609375 361 c 0
 497.599609375 589.049804688 455.299804688 608 344.049804688 608 c 0
 235.799804688 608 189.599609375 594 189.599609375 361 c 0
EndSplineSet
Validated: 1
EndChar

StartChar: P
Encoding: 80 80 63
Width: 602
Flags: W
HStem: 0 21G<51.2002 51.2002 51.2002 191.2> 0 21G<51.2002 51.2002 51.2002 191.2> 270.5 123.5 290.5 103.5<191.2 191.2> 607.5 124.5<191.2 354.95 191.2 191.2>
VStem: 51.2 140 428 141
LayerCount: 2
Back
Fore
SplineSet
51.2001953125 0 m 1x9e
 51.2001953125 732 l 1
 365.950195312 732 l 2
 457.600585938 732 569.000976562 703.400390625 569.000976562 506.25 c 0
 569.000976562 282.950195312 449.850585938 266.650390625 365.950195312 270.5 c 0xae
 325.950195312 272.150390625 196.200195312 287.5 191.200195312 290.5 c 1
 191.200195312 0 l 1
 51.2001953125 0 l 1x9e
191.200195312 394 m 1x1e
 354.951171875 393.999023438 l 2x2e
 399.250976562 393.999023438 428.000976562 416.69921875 428.000976562 504.599609375 c 0
 427.100585938 591.049804688 389.950195312 607.5 354.950195312 607.5 c 2
 191.200195312 607.5 l 1
 191.200195312 394 l 1x1e
EndSplineSet
Validated: 33
EndChar

StartChar: Q
Encoding: 81 81 64
Width: 671
Flags: W
HStem: -174.25 113<541.949 541.949> -4 129<280.649 343.149> 608 129<289.024 398.774>
VStem: 49.6 140 497.6 140
LayerCount: 2
Back
Fore
SplineSet
49.599609375 361 m 0
 49.599609375 704 173.349609375 737 343.149414062 737 c 0
 516.149414062 737 637.599609375 704 637.599609375 361 c 0
 637.599609375 38 523.149414062 -2.900390625 343.149414062 -4 c 0
 163.149414062 -4 49.599609375 28 49.599609375 361 c 0
189.599609375 361 m 0
 189.599609375 161.200195312 218.149414062 125 343.149414062 125 c 0
 460.649414062 125 497.599609375 163.700195312 497.599609375 361 c 0
 497.599609375 589.049804688 454.399414062 608 343.149414062 608 c 0
 234.899414062 608 189.599609375 594 189.599609375 361 c 0
299.94921875 -33 m 1
 379.44921875 -33 l 1
 410.649414062 -86.349609375 482.849609375 -77.2998046875 541.94921875 -61.25 c 1
 541.94921875 -174.25 l 1
 441.349609375 -196.299804688 307.69921875 -161.049804688 299.94921875 -33 c 1
EndSplineSet
Validated: 33
EndChar

StartChar: R
Encoding: 82 82 65
Width: 607
Flags: W
HStem: 0 21G<51.2002 51.2002 51.2002 191.2 435.2 435.2 435.2 592.75> 0 21G<51.2002 51.2002 51.2002 191.2 435.2 435.2 435.2 592.75> 291 110<191.2 357.701> 607.5 124.5<191.751 357.701 191.751 191.751>
VStem: 51.2 140 429.7 141
LayerCount: 2
Back
Fore
SplineSet
51.2001953125 0 m 1xbc
 51.201171875 732 l 1
 371.451171875 732 l 2
 485.701171875 732 570.701171875 678.549804688 570.701171875 503.75 c 0
 570.701171875 322.549804688 494.80078125 301.049804688 454.150390625 288.25 c 1
 592.75 0 l 1
 435.200195312 0 l 1
 314.200195312 277 l 1
 191.200195312 291 l 1
 191.200195312 0 l 1
 51.2001953125 0 l 1xbc
191.750976562 401 m 1
 357.701171875 401 l 2
 406.451171875 401 429.701171875 415.299804688 429.701171875 503.75 c 0
 429.701171875 586.900390625 401.701171875 607.5 357.701171875 607.5 c 2
 191.750976562 607.5 l 1
 191.750976562 401 l 1
EndSplineSet
Validated: 1
EndChar

StartChar: S
Encoding: 83 83 66
Width: 590
Flags: W
HStem: -8 129<292.149 348.149 280.6 404.1> 291.75 140<150.35 384.1 268.5 351.1> 609 129
VStem: 49.6 140 417.15 140
LayerCount: 2
Back
Fore
SplineSet
49.599609375 485.75 m 2
 49.599609375 548.999023438 l 2
 49.599609375 693.999023438 135.599609375 736.348632812 247.599609375 737.999023438 c 0
 352.849609375 740.19921875 472.799804688 726.149414062 530.599609375 709.049804688 c 1
 530.599609375 599 l 1
 466.599609375 604.650390625 322.399414062 609 286.099609375 609 c 0
 224.899414062 610.349609375 189.599609375 606.099609375 189.599609375 538 c 2
 189.599609375 502.25 l 2
 189.599609375 444.25 211.799804688 431.75 268.5 431.75 c 2
 384.099609375 431.75 l 2
 527.549804688 431.75 557.149414062 318.650390625 557.149414062 237.75 c 2
 557.149414062 189 l 2
 557.149414062 22.7998046875 453.599609375 -8 354.599609375 -8 c 0
 229.69921875 -8 147.849609375 -0.349609375 72.1494140625 21.9501953125 c 1
 72.1494140625 132 l 1
 112.149414062 128 234.099609375 121 327.099609375 121 c 0
 369.19921875 121 417.149414062 127.950195312 417.149414062 184.049804688 c 2
 417.149414062 223.450195312 l 2
 417.149414062 265.049804688 404.549804688 291.75 351.099609375 291.75 c 2
 238.599609375 291.75 l 2
 62.099609375 291.75 49.599609375 422.099609375 49.599609375 485.75 c 2
EndSplineSet
Validated: 33
EndChar

StartChar: T
Encoding: 84 84 67
Width: 593
Flags: W
HStem: 0 21G<228.75 368.75 228.75 228.75> 0 21G<228.75 368.75 228.75 228.75> 603 129<31.25 572.25 31.25 228.75 368.75 368.75 368.75 572.25>
VStem: 228.75 140<0 603 0 603>
LayerCount: 2
Back
Fore
SplineSet
31.25 603 m 1xb0
 31.25 732 l 1
 572.25 732 l 1
 572.25 603 l 1
 368.75 603 l 1
 368.75 0 l 1
 228.75 0 l 1
 228.75 603 l 1
 31.25 603 l 1xb0
EndSplineSet
Validated: 1
EndChar

StartChar: U
Encoding: 85 85 68
Width: 664
Flags: W
HStem: -5 129<290.3 389.5 290.3 403.25> 712 20G<60.75 200.75 200.75 200.75 478.75 619.75 619.75 619.75>
VStem: 60.75 140<320 732> 478.75 141<320 732>
LayerCount: 2
Back
Fore
SplineSet
60.75 320 m 2
 60.75 732 l 1
 200.75 732 l 1
 200.75 320 l 2
 200.75 152.650390625 237.849609375 124 342.75 124 c 0
 436.25 124 478.75 158.450195312 478.75 320 c 2
 478.75 732 l 1
 619.75 732 l 1
 619.75 320 l 2
 619.75 -3 463.75 -5 342.75 -5 c 0
 206.75 -5 60.75 -13 60.75 320 c 2
EndSplineSet
Validated: 33
EndChar

StartChar: V
Encoding: 86 86 69
Width: 685
Flags: W
HStem: 0 21G<263.5 425.5 263.5 263.5> 0 21G<263.5 425.5 263.5 263.5> 712 20G<34 182.65 182.65 182.65 518.35 667 667 667>
LayerCount: 2
Back
Fore
SplineSet
34 732 m 1xa0
 182.650390625 732 l 1
 345.5 184 l 1
 518.349609375 732 l 1
 667 732 l 1
 425.5 0 l 1
 263.5 0 l 1
 34 732 l 1xa0
EndSplineSet
Validated: 1
EndChar

StartChar: W
Encoding: 87 87 70
Width: 992
Flags: W
HStem: 0 21G<263.5 425.5 263.5 263.5 610.9 772.9 610.9 610.9> 0 21G<263.5 425.5 263.5 263.5 610.9 772.9 610.9 610.9> 712 20G<34 182.649 182.649 182.649 476.55 626.55 626.55 626.55 825.75 974.4 974.4 974.4>
LayerCount: 2
Back
Fore
SplineSet
34 732 m 1xa0
 182.649414062 732 l 1
 345.049804688 188.950195312 l 1
 476.549804688 732 l 1
 626.549804688 732 l 1
 575.599609375 543.099609375 l 1
 691.549804688 186.25 l 1
 825.75 732 l 1
 974.400390625 732 l 1
 772.900390625 0 l 1
 610.900390625 0 l 1
 512.400390625 299.75 l 1
 425.5 0 l 1
 263.5 0 l 1
 34 732 l 1xa0
EndSplineSet
Validated: 1
EndChar

StartChar: X
Encoding: 88 88 71
Width: 641
Flags: W
HStem: 0 21G<37 191.7 37 37 463 617.7 463 463> 0 21G<37 191.7 37 37 463 617.7 463 463> 712 20G<34 188.7 188.7 188.7 468 622.7 622.7 622.7>
LayerCount: 2
Back
Fore
SplineSet
34 732 m 1xa0
 188.700195312 732 l 1
 327.450195312 482.200195312 l 1
 468 732 l 1
 622.700195312 732 l 1
 402.850585938 366.599609375 l 1
 617.700195312 0 l 1
 463 0 l 1
 327.450195312 246.400390625 l 1
 191.700195312 0 l 1
 37 -0 l 1
 251.5 366.599609375 l 1
 34 732 l 1xa0
EndSplineSet
Validated: 1
EndChar

StartChar: Y
Encoding: 89 89 72
Width: 656
Flags: W
HStem: 0 21G<257.1 397.1 257.1 257.1> 0 21G<257.1 397.1 257.1 257.1> 712 20G<34 186.5 186.5 186.5 485.5 638 638 638>
VStem: 257.1 140
LayerCount: 2
Back
Fore
SplineSet
34 732 m 1xb0
 186.5 732 l 1
 329.299804688 381 l 1
 485.5 732 l 1
 638 732 l 1
 397.099609375 227 l 1
 397.099609375 0 l 1
 257.099609375 0 l 1
 257.099609375 227 l 1
 34 732 l 1xb0
EndSplineSet
Validated: 1
EndChar

StartChar: Z
Encoding: 90 90 73
Width: 556
Flags: W
HStem: 0 129<26.75 26.75 211.75 530.75> 603 129<26.75 362.25 26.75 530.75 26.75 530.75>
LayerCount: 2
Back
Fore
SplineSet
26.75 0 m 1
 26.75 129 l 1
 362.25 603 l 1
 26.75 603 l 1
 26.75 732 l 1
 530.75 732 l 1
 530.75 603 l 1
 211.75 129 l 1
 530.75 129 l 1
 530.75 0 l 1
 26.75 0 l 1
EndSplineSet
Validated: 1
EndChar

StartChar: a
Encoding: 97 97 74
Width: 519
Flags: W
HStem: -6 112.5 430.5 110.5
VStem: 30.1 140 341.65 140
LayerCount: 2
Back
Fore
SplineSet
30.099609375 135.349609375 m 2
 30.1005859375 185.34765625 l 2
 30.1005859375 262.59765625 71.8505859375 330.998046875 185.650390625 330.998046875 c 2
 185.650390625 330.998046875 341.650390625 329.998046875 341.650390625 330.998046875 c 2
 341.650390625 330.998046875 342.650390625 363.998046875 341.650390625 364.998046875 c 0
 341.650390625 421.59765625 315.150390625 430.498046875 270.650390625 430.498046875 c 0
 224.5 430.498046875 91.2998046875 422.198242188 47.6494140625 419.047851562 c 1
 47.6494140625 505.498046875 l 1
 117.549804688 532.6484375 190.599609375 540.548828125 289.599609375 540.999023438 c 0
 403.94921875 541.44921875 481.649414062 501.94921875 481.649414062 370.499023438 c 2
 481.649414062 -0.0009765625 l 1
 371.099609375 -0.0009765625 l 1
 341.649414062 58.4990234375 l 1
 335.799804688 46.94921875 261.25 -7.650390625 180.150390625 -6 c 0
 78 -3.25 30.099609375 66.2998046875 30.099609375 135.349609375 c 2
170.100585938 155.197265625 m 2
 170.100585938 111.046875 194.000976562 106.498046875 219.750976562 106.498046875 c 0
 278.30078125 106.498046875 341.650390625 147.59765625 341.650390625 147.59765625 c 1
 341.650390625 244.947265625 l 1
 213.150390625 234.997070312 l 2
 176.200195312 231.546875 170.100585938 204.197265625 170.100585938 180.997070312 c 2
 170.100585938 155.197265625 l 2
EndSplineSet
Validated: 33
EndChar

StartChar: b
Encoding: 98 98 75
Width: 556
Flags: W
HStem: -6 119.65 429.25 109.75<323.551 331.851>
VStem: 45.7 139.1 379.4 140
LayerCount: 2
Back
Fore
SplineSet
45.7001953125 0 m 1
 45.701171875 785 l 1
 184.80078125 785 l 1
 184.80078125 504.5 l 1
 233.400390625 526.650390625 301.05078125 539 346.05078125 539 c 0
 493.201171875 539 519.401367188 428.150390625 519.401367188 263 c 0
 519.401367188 101.950195312 476.750976562 -6 346.05078125 -6 c 0
 283.000976562 -6 218.951171875 26.7998046875 185.80078125 53.5 c 1
 160.850585938 0 l 1
 45.7001953125 0 l 1
185.80078125 146.450195312 m 1
 215.600585938 127.200195312 257.151367188 113.649414062 309.750976562 113.649414062 c 0
 354.951171875 113.649414062 379.401367188 150.049804688 379.401367188 268.5 c 0
 379.401367188 404 353.951171875 429.25 309.750976562 429.25 c 0
 261.350585938 429.25 222.350585938 423.450195312 185.80078125 409.299804688 c 1
 185.80078125 146.450195312 l 1
EndSplineSet
Validated: 1
EndChar

StartChar: c
Encoding: 99 99 76
Width: 494
Flags: W
HStem: -5 112.5 423.5 112.5
VStem: 37.9 140
LayerCount: 2
Back
Fore
SplineSet
37.900390625 266 m 0
 37.900390625 484.799804688 110.900390625 536.000976562 212.900390625 536.000976562 c 0
 264.900390625 536.000976562 369.80078125 532.901367188 457.400390625 504.500976562 c 1
 457.400390625 417.500976562 l 1
 457.400390625 417.500976562 361.850585938 423.500976562 272.850585938 423.500976562 c 0
 208.450195312 423.500976562 177.900390625 419.651367188 177.900390625 263.1015625 c 0
 177.900390625 127.151367188 200.850585938 107.500976562 272.850585938 107.500976562 c 0
 364.850585938 107.500976562 464.400390625 116.850585938 464.400390625 116.850585938 c 1
 464.400390625 28.9501953125 l 1
 386.700195312 -10.5498046875 295.900390625 -4 212.900390625 -5 c 0
 113.900390625 -5 37.900390625 46.75 37.900390625 266 c 0
EndSplineSet
Validated: 33
EndChar

StartChar: d
Encoding: 100 100 77
Width: 556
Flags: W
HStem: -6 119.65 429.25 109.75<225.452 233.752 137.677 271.752>
VStem: 37.9 140 372.05 139.55
LayerCount: 2
Back
Fore
SplineSet
37.900390625 263 m 0
 37.900390625 432.549804688 64.1015625 539 211.251953125 539 c 0
 256.251953125 539 323.452148438 526.650390625 372.051757812 504.5 c 1
 372.051757812 785 l 1
 511.6015625 785 l 1
 511.6015625 0 l 1
 396.451171875 0 l 1
 371.500976562 53.5 l 1
 338.350585938 26.7998046875 274.30078125 -6 211.250976562 -6 c 0
 80.55078125 -6 37.900390625 97.5498046875 37.900390625 263 c 0
177.901367188 268.5 m 0
 177.901367188 150.049804688 202.352539062 113.650390625 247.552734375 113.650390625 c 0
 300.15234375 113.650390625 341.702148438 127.200195312 371.501953125 146.450195312 c 1
 371.501953125 409.299804688 l 1
 334.952148438 423.450195312 295.952148438 429.25 247.551757812 429.25 c 0
 203.3515625 429.25 177.901367188 404 177.901367188 268.5 c 0
EndSplineSet
Validated: 1
EndChar

StartChar: f
Encoding: 102 102 78
Width: 403
Flags: W
HStem: 0 21G<98.2998 238.3 98.2998 98.2998> 0 21G<98.2998 238.3 98.2998 98.2998> 424 90<15.0498 15.0498 15.0498 98.2998> 424 107<15.0498 98.2998 15.0498 98.2998 238.3 358.8> 679.9 106.1
VStem: 98.3 140
LayerCount: 2
Back
Fore
SplineSet
15.0498046875 424 m 1x6c
 15.0498046875 514 l 1x6c
 98.2998046875 531 l 1
 98.2998046875 630 l 2
 98.2998046875 720.849609375 134.849609375 786 254.849609375 786 c 0
 303.849609375 786 345.299804688 779.75 388.799804688 762 c 1
 388.799804688 678.900390625 l 2
 387.799804688 678.900390625 293.299804688 679.900390625 293.299804688 679.900390625 c 2
 237 680.900390625 238.299804688 652.700195312 238.299804688 597 c 2
 238.299804688 531 l 1
 358.799804688 531 l 1
 358.799804688 424 l 1
 238.299804688 424 l 1
 238.299804688 0 l 1x9c
 98.2998046875 0 l 1
 98.2998046875 424 l 1
 15.0498046875 424 l 1x6c
EndSplineSet
Validated: 33
EndChar

StartChar: g
Encoding: 103 103 79
Width: 560
Flags: W
HStem: -270 112.5 -14.3 113.05 149 112.5 420.5 112.5
VStem: 35.35 126.25 38.55 140 366.55 140 382.6 139.45
LayerCount: 2
Back
Fore
SplineSet
35.349609375 102.349609375 m 0xf9
 35.349609375 144.149414062 53.900390625 183.399414062 97.1005859375 196.899414062 c 1
 53.1005859375 224.899414062 38.55078125 290.999023438 38.55078125 343.999023438 c 0
 38.55078125 470.999023438 102.900390625 532.999023438 222.55078125 532.999023438 c 2
 545.55078125 532.999023438 l 1
 545.55078125 449.499023438 l 1
 486.55078125 431.499023438 l 1
 495.900390625 409.399414062 506.55078125 391.149414062 506.55078125 327.499023438 c 0xf6
 506.55078125 250.999023438 474.750976562 148.999023438 325.05078125 148.999023438 c 2
 202.05078125 148.999023438 l 2
 186.05078125 148.999023438 161.600585938 148.848632812 161.600585938 125.598632812 c 0
 161.600585938 102.348632812 179.908203125 98.7490234375 202.049804688 98.7490234375 c 2
 365 98.7490234375 l 2
 461.01953125 98.7490234375 522.049804688 48.69921875 522.049804688 -58.5009765625 c 2
 522.049804688 -116.000976562 l 2
 522.049804688 -192.500976562 486.549804688 -270.000976562 355.549804688 -270.000976562 c 2
 205.549804688 -270.000976562 l 2
 111.549804688 -270.000976562 40.0498046875 -221.100585938 40.0498046875 -116.000976562 c 2
 40.0498046875 -48.6005859375 l 1
 86.6494140625 -0.1005859375 l 1
 58.6494140625 15.4990234375 35.349609375 51.69921875 35.349609375 102.349609375 c 0xf9
180.600585938 -98.9501953125 m 2
 180.600585938 -151.600585938 208.5 -157.5 243.5 -157.5 c 2
 326.400390625 -157.5 l 2
 376.600585938 -157.5 382.600585938 -132.75 382.600585938 -101.700195312 c 2
 382.600585938 -62.9501953125 l 2xf1
 382.600585938 -33 370.2578125 -14.7177734375 330.55078125 -14.2998046875 c 2
 222.850585938 -14.2998046875 l 2
 203.374023438 -14.2998046875 180.600585938 -10.7001953125 180.600585938 -10.7001953125 c 1
 180.600585938 -98.9501953125 l 2
178.549804688 344.000976562 m 0xf6
 178.549804688 295.000976562 193.549804688 261.500976562 243.049804688 261.500976562 c 2
 299.25 261.500976562 l 2
 352.299804688 261.500976562 367.450195312 295.901367188 366.549804688 344.000976562 c 0
 365.200195312 399.176757812 347.549804688 420.500976562 298.25 420.500976562 c 2
 244.549804688 420.500976562 l 2
 187.849609375 420.500976562 178.549804688 383.600585938 178.549804688 344.000976562 c 0xf6
EndSplineSet
Validated: 33
EndChar

StartChar: h
Encoding: 104 104 80
Width: 550
Flags: W
HStem: 0 21G<45.7002 45.7002 45.7002 185.7 372.7 372.7 372.7 512.7> 0 21G<45.7002 45.7002 45.7002 185.7 372.7 372.7 372.7 512.7> 427.5 112.5<313.7 331.8> 762.9 20G
VStem: 45.7 140 372.7 140
LayerCount: 2
Back
Fore
SplineSet
45.7001953125 0 m 1xbc
 45.7001953125 782.900390625 l 1
 185.150390625 782.900390625 l 1
 185.150390625 474.5 l 1
 229.100585938 506.200195312 273.200195312 540 354.200195312 540 c 0
 477.799804688 540 512.700195312 454.700195312 512.700195312 353.5 c 2
 512.700195312 0 l 1
 372.700195312 0 l 1
 372.700195312 355.700195312 l 2
 372.700195312 408.5 349.549804688 427.5 314.049804688 427.5 c 0
 257.700195312 427.5 226.950195312 413 185.700195312 381.5 c 1
 185.700195312 0 l 1
 45.7001953125 0 l 1xbc
EndSplineSet
Validated: 1
EndChar

StartChar: i
Encoding: 105 105 81
Width: 227
Flags: W
HStem: 0 21G<42.9502 42.9502 42.9502 182.95> 0 21G<42.9502 42.9502 42.9502 182.95> 511 20G<42.9502 182.95 182.95 182.95> 586.85 136.65
VStem: 42.95 140
LayerCount: 2
Back
Fore
SplineSet
37.900390625 609.849609375 m 2x38
 37.900390625 698.5 l 2
 37.900390625 713.5 45.900390625 723.5 61.900390625 723.5 c 2
 166.900390625 723.5 l 2
 181.900390625 723.5 189.350585938 712.5 189.350585938 698.5 c 2
 189.350585938 609.849609375 l 2
 189.350585938 594.849609375 180.900390625 586.849609375 166.900390625 586.849609375 c 2
 61.900390625 586.849609375 l 2
 47.900390625 586.849609375 37.900390625 595.849609375 37.900390625 609.849609375 c 2x38
42.9501953125 0 m 1xb8
 42.9501953125 531 l 1
 182.950195312 531 l 1
 182.950195312 0 l 1
 42.9501953125 0 l 1xb8
EndSplineSet
Validated: 1
EndChar

StartChar: j
Encoding: 106 106 82
Width: 242
Flags: W
HStem: 511 20G<51.75 191.75 191.75 191.75> 586.85 136.65
VStem: 51.75 103<-270 531> 51.75 140<-4 531 -4 531 -4 531>
LayerCount: 2
Back
Fore
SplineSet
45.7001953125 609.849609375 m 2xc0
 45.7001953125 698.5 l 2
 45.7001953125 713.5 53.7001953125 723.5 69.7001953125 723.5 c 2
 174.700195312 723.5 l 2
 189.700195312 723.5 197.700195312 712.5 197.700195312 698.5 c 2
 197.700195312 609.849609375 l 2
 197.700195312 594.849609375 188.700195312 586.849609375 174.700195312 586.849609375 c 2
 69.7001953125 586.849609375 l 2
 55.7001953125 586.849609375 45.7001953125 595.849609375 45.7001953125 609.849609375 c 2xc0
51.75 -270 m 1xe0
 51.75 531 l 1
 191.75 531 l 1
 191.75 -4 l 2xd0
 192.75 -90 190.75 -191.099609375 154.75 -270 c 1
 51.75 -270 l 1xe0
EndSplineSet
Validated: 33
EndChar

StartChar: k
Encoding: 107 107 83
Width: 557
Flags: W
HStem: 0 21G<45.7002 45.7002 45.7002 185.7 376.45 376.45 376.45 542.7> 0 21G<45.7002 45.7002 45.7002 185.7 376.45 376.45 376.45 542.7> 511 20G<365.45 542.7 542.7 542.7> 762 20G<45.7002 185.7 185.7 185.7>
VStem: 45.7 140
LayerCount: 2
Back
Fore
SplineSet
45.7001953125 0 m 1xb8
 45.7001953125 782 l 1
 185.700195312 782 l 1
 185.700195312 353 l 1
 214.700195312 353 l 1
 365.450195312 531 l 1
 542.700195312 531 l 1
 343.549804688 299.5 l 1
 542.700195312 0 l 1
 376.450195312 0 l 1
 214.700195312 246 l 1
 185.700195312 246 l 1
 185.700195312 0 l 1
 45.7001953125 0 l 1xb8
EndSplineSet
Validated: 1
EndChar

StartChar: l
Encoding: 108 108 84
Width: 313
Flags: W
HStem: 0 86<295.2 298.7 295.2 298.7> 763 20G<45.7002 185.7 185.7 185.7>
VStem: 45.7 140
LayerCount: 2
Back
Fore
SplineSet
45.7001953125 189 m 2
 45.7001953125 783 l 1
 185.700195312 783 l 1
 185.700195312 211 l 2
 185.700195312 133.900390625 204.299804688 117.200195312 231.700195312 107 c 2
 231.700195312 107 291.700195312 86 298.700195312 86 c 1
 298.700195312 0 l 1
 183.200195312 0 l 2
 96.2998046875 0 45.7001953125 48 45.7001953125 189 c 2
EndSplineSet
Validated: 1
EndChar

StartChar: m
Encoding: 109 109 85
Width: 875
Flags: W
HStem: 0 21G<45.7002 45.7002 45.7002 185.7> 0 21G<45.7002 45.7002 45.7002 185.7> 426.15 112.5 511 20G
VStem: 45.7 140 370 140<-0.000976562 352.599 -0.000976562 353.899 -0.000976562 378.725> 698.1 140
LayerCount: 2
Back
Fore
SplineSet
45.7001953125 0 m 1xae
 45.701171875 530.999023438 l 1
 158.201171875 530.999023438 l 1x9e
 185.701171875 473.598632812 l 1
 232.951171875 507.499023438 270.951171875 538.649414062 351.05078125 538.649414062 c 0
 418.80078125 538.649414062 466.80078125 512.94921875 488.701171875 469.999023438 c 1
 536.30078125 504.749023438 597.201171875 538.649414062 679.6015625 538.649414062 c 0
 796.901367188 538.649414062 838.1015625 459.19921875 838.1015625 351.69921875 c 2
 838.1015625 -0.0009765625 l 1
 698.1015625 -0.0009765625 l 1
 698.1015625 353.899414062 l 2
 698.1015625 403.549804688 674.951171875 426.149414062 639.451171875 426.149414062 c 0
 585.750976562 426.149414062 546.850585938 415.899414062 509.450195312 384.44921875 c 0
 509.450195312 380.048828125 510 357.548828125 510 352.598632812 c 2
 510 -0.0009765625 l 1
 370 -0.0009765625 l 1
 370 353.899414062 l 2
 370 403.549804688 346.400390625 426.149414062 310.900390625 426.149414062 c 0
 255.900390625 426.149414062 226.950195312 412.099609375 185.700195312 380.599609375 c 1
 185.700195312 0 l 1
 45.7001953125 0 l 1xae
EndSplineSet
Validated: 1
EndChar

StartChar: n
Encoding: 110 110 86
Width: 550
Flags: W
HStem: 0 21G<45.7002 45.7002 45.7002 185.7 372.699 372.699 372.699 512.699> 0 21G<45.7002 45.7002 45.7002 185.7 372.699 372.699 372.699 512.699> 427.5 112.5<313.699 331.575> 511 20G<45.6992 158.199 158.199 158.199>
VStem: 45.7 140 372.7 140
LayerCount: 2
Back
Fore
SplineSet
45.7001953125 0 m 1xac
 45.69921875 531 l 1
 158.19921875 531 l 1x9c
 185.69921875 474.5 l 1
 231.298828125 507.299804688 273.19921875 540 354.19921875 540 c 0
 477.798828125 540 512.69921875 454.700195312 512.69921875 353.5 c 2
 512.69921875 0 l 1
 372.69921875 0 l 1
 372.69921875 355.700195312 l 2
 372.69921875 408.5 349.099609375 427.5 314.049804688 427.5 c 0
 257.700195312 427.5 226.950195312 413 185.700195312 381.5 c 1
 185.700195312 0 l 1
 45.7001953125 0 l 1xac
EndSplineSet
Validated: 1
EndChar

StartChar: o
Encoding: 111 111 87
Width: 560
Flags: W
HStem: -5 112.5<242.95 319.575 242.95 372.95> 423.5 112.5<238.726 321.875>
VStem: 37.9 140 382.4 140
LayerCount: 2
Back
Fore
SplineSet
37.900390625 258 m 0
 37.900390625 475 100.650390625 536 280.150390625 536 c 0
 463 536 522.400390625 469 522.400390625 258 c 0
 522.400390625 61 465.75 -5 280.150390625 -5 c 0
 96.75 -5 37.900390625 68 37.900390625 258 c 0
177.900390625 258 m 0
 177.900390625 120.599609375 205.75 107.5 280.150390625 107.5 c 0
 359 107.5 382.400390625 118.200195312 382.400390625 258 c 0
 382.400390625 406.75 363.600585938 423.5 280.150390625 423.5 c 0
 197.30078125 423.5 177.900390625 406.650390625 177.900390625 258 c 0
EndSplineSet
Validated: 1
EndChar

StartChar: p
Encoding: 112 112 88
Width: 556
Flags: W
HStem: -8 109.75 417.35 119.65
VStem: 45.7 139.1 379.4 140
LayerCount: 2
Back
Fore
SplineSet
45.7001953125 -270 m 1
 45.69921875 531 l 1
 160.849609375 531 l 1
 185.349609375 477.5 l 1
 218.5 504.200195312 283 537 346.049804688 537 c 0
 476.75 537 519.400390625 427.400390625 519.400390625 268 c 0
 519.400390625 114.400390625 493.200195312 -8 346.049804688 -8 c 0
 301.049804688 -8 233.399414062 4.349609375 184.799804688 26.5 c 1
 184.799804688 -270 l 1
 45.7001953125 -270 l 1
185.349609375 121.700195312 m 1
 221.899414062 107.549804688 261.348632812 101.749023438 309.749023438 101.749023438 c 0
 353.94921875 101.749023438 379.399414062 126.999023438 379.399414062 262.499023438 c 0
 379.399414062 380.94921875 354.94921875 417.349609375 309.749023438 417.349609375 c 0
 257.149414062 417.349609375 215.149414062 403.799804688 185.349609375 384.549804688 c 1
 185.349609375 121.700195312 l 1
EndSplineSet
Validated: 1
EndChar

StartChar: q
Encoding: 113 113 89
Width: 555
Flags: W
HStem: -10 110.3 430 107
VStem: 37.9 140 369.85 140
LayerCount: 2
Back
Fore
SplineSet
37.900390625 268 m 0
 37.900390625 453.599609375 107.350585938 537 232.350585938 537 c 0
 338.350585938 537 459.000976562 520.75 509.850585938 506.849609375 c 1
 509.850585938 -270 l 1
 369.850585938 -270 l 1
 369.850585938 29 l 1
 328.950195312 1.349609375 277.350585938 -10 232.350585938 -10 c 0
 79.3505859375 -10 37.900390625 91.2998046875 37.900390625 268 c 0
177.900390625 271.849609375 m 0
 177.900390625 171.099609375 178.850585938 100.298828125 258.750976562 100.298828125 c 0
 303.05078125 100.298828125 325.900390625 104.298828125 369.850585938 121.999023438 c 1
 369.850585938 429.999023438 l 1
 259.850585938 429.999023438 l 2
 179.80078125 429.999023438 177.900390625 333.19921875 177.900390625 271.849609375 c 0
EndSplineSet
Validated: 1
EndChar

StartChar: r
Encoding: 114 114 90
Width: 417
Flags: W
HStem: 0 21G<45.7002 45.7002 45.7002 185.7> 0 21G<45.7002 45.7002 45.7002 185.7> 397.65 138.8
VStem: 45.7 140
LayerCount: 2
Back
Fore
SplineSet
45.7001953125 0 m 1xb0
 45.7001953125 531.001953125 l 1
 163.700195312 531.001953125 l 1
 185.700195312 464.001953125 l 1
 222.5 499.551757812 272 536.452148438 338.049804688 536.452148438 c 0
 361 536.452148438 383 535.551757812 397.200195312 530.1015625 c 1
 397.200195312 394.951171875 l 1
 383 396.30078125 350.549804688 397.650390625 320.450195312 397.650390625 c 0
 262.450195312 397.650390625 220.350585938 388.200195312 185.700195312 338.549804688 c 1
 185.700195312 0 l 1
 45.7001953125 0 l 1xb0
EndSplineSet
Validated: 1
EndChar

StartChar: s
Encoding: 115 115 91
Width: 508
Flags: W
HStem: -5 116.35 204.45 121.3 420.65 115.35
VStem: 30.1 140 338.1 140
LayerCount: 2
Back
Fore
SplineSet
30.099609375 347 m 2
 30.1015625 393.000976562 l 2
 30.1015625 475.000976562 65.1015625 536.000976562 168.1015625 536.000976562 c 0
 270.151367188 536.000976562 410.651367188 532.701171875 451.651367188 509.000976562 c 1
 451.651367188 420.651367188 l 1
 211.000976562 420.651367188 l 2
 175.05078125 420.651367188 170.100585938 409.401367188 170.100585938 384.201171875 c 2
 170.100585938 360.201171875 l 2
 170.100585938 326.651367188 187.750976562 325.750976562 211.000976562 325.750976562 c 2
 337.100585938 325.750976562 l 2
 438.400390625 325.750976562 478.100585938 265.701171875 478.100585938 188.500976562 c 2
 478.100585938 134.000976562 l 2
 478.100585938 25.0009765625 412.100585938 -4.9990234375 348.100585938 -4.9990234375 c 0
 247.400390625 -4.9990234375 89 -0.44921875 52.099609375 23.900390625 c 1
 52.099609375 111.350585938 l 1
 303 111.350585938 l 2
 312.349609375 111.350585938 338.099609375 112.500976562 338.099609375 145.000976562 c 2
 338.099609375 169.80078125 l 2
 338.099609375 192.150390625 331.599609375 204.450195312 303 204.450195312 c 2
 179.099609375 204.450195312 l 2
 85.099609375 204.450195312 30.099609375 244 30.099609375 347 c 2
EndSplineSet
Validated: 1
EndChar

StartChar: t
Encoding: 116 116 92
Width: 381
Flags: W
HStem: -0.100006 86 425 107
VStem: 100.85 140
LayerCount: 2
Back
Fore
SplineSet
15.0498046875 425 m 1
 15.0498046875 503.000976562 l 1
 100.849609375 532.000976562 l 1
 124.349609375 680.000976562 l 1
 240.849609375 680.000976562 l 1
 240.849609375 532.000976562 l 1
 359.549804688 532.000976562 l 1
 359.549804688 425.000976562 l 1
 240.849609375 425.000976562 l 1
 240.849609375 212.000976562 l 2
 240.849609375 133.80078125 258.899414062 117.100585938 286.299804688 106.900390625 c 2
 286.299804688 106.900390625 346.299804688 85.900390625 353.299804688 85.900390625 c 1
 353.299804688 -0.099609375 l 1
 231.200195312 -0.099609375 l 2
 152.549804688 -0.099609375 100.849609375 49 100.849609375 190 c 2
 100.849609375 425 l 1
 15.0498046875 425 l 1
EndSplineSet
Validated: 1
EndChar

StartChar: u
Encoding: 117 117 93
Width: 550
Flags: W
HStem: -9 112.5<219.026 236.9> 0 21G<392.4 504.9 392.4 392.4> 0 21G<392.4 504.9 392.4 392.4> 511 20G<37.9014 177.901 177.901 177.901 364.9 504.9 504.9 504.9>
VStem: 37.9 140 364.9 140
LayerCount: 2
Back
Fore
SplineSet
37.900390625 177.5 m 2x9c
 37.9013671875 531 l 1
 177.901367188 531 l 1
 177.901367188 175.299804688 l 2
 177.901367188 122.5 201.500976562 103.5 236.55078125 103.5 c 0x9c
 292.900390625 103.5 323.650390625 118 364.900390625 149.5 c 1
 364.900390625 531 l 1
 504.900390625 531 l 1
 504.900390625 0 l 1
 392.400390625 0 l 1x5c
 364.900390625 56.5 l 1
 312.150390625 24.7998046875 277.400390625 -9 196.400390625 -9 c 0
 72.80078125 -9 37.900390625 76.2998046875 37.900390625 177.5 c 2x9c
EndSplineSet
Validated: 1
EndChar

StartChar: v
Encoding: 118 118 94
Width: 564
Flags: W
HStem: 0 21G<200.399 356.899 200.399 200.399> 0 21G<200.399 356.899 200.399 200.399> 511 20G<15.0498 164.8 164.8 164.8 400.35 549.55 549.55 549.55>
LayerCount: 2
Back
Fore
SplineSet
15.0498046875 531 m 1xa0
 164.799804688 531 l 1
 280.75 164 l 1
 400.349609375 531 l 1
 549.549804688 531 l 1
 356.899414062 0 l 1
 200.399414062 0 l 1
 15.0498046875 531 l 1xa0
EndSplineSet
Validated: 1
EndChar

StartChar: w
Encoding: 119 119 95
Width: 826
Flags: W
HStem: 0 21G<184.899 344.1 184.899 184.899 483.649 640.149 483.649 483.649> 0 21G<184.899 344.1 184.899 184.899 483.649 640.149 483.649 483.649> 511 20G<15.0498 164.8 164.8 164.8 366.3 505.7 505.7 505.7 661.5 811.8 811.8 811.8>
LayerCount: 2
Back
Fore
SplineSet
15.0498046875 531 m 1xa0
 164.799804688 531 l 1
 271.200195312 164 l 1
 366.299804688 531 l 1
 505.700195312 531 l 1
 468.75 387.950195312 l 1
 556.700195312 164 l 1
 661.5 531 l 1
 811.799804688 531 l 1
 640.149414062 0 l 1
 483.649414062 -0 l 1
 404.149414062 192.349609375 l 1
 344.099609375 0 l 1
 184.899414062 0 l 1
 15.0498046875 531 l 1xa0
EndSplineSet
Validated: 1
EndChar

StartChar: x
Encoding: 120 120 96
Width: 572
Flags: W
HStem: 0 21G<18.5 18.5 18.5 187.5 384.9 384.9 384.9 545.9> 0 21G<18.5 18.5 18.5 187.5 384.9 384.9 384.9 545.9> 511 20G<18.5 187.5 187.5 187.5 384.9 553.9 553.9 553.9>
LayerCount: 2
Back
Fore
SplineSet
18.5 0 m 1xa0
 201.700195312 266 l 1
 18.5 531 l 1
 187.5 531 l 1
 284.75 372.099609375 l 1
 384.900390625 531 l 1
 553.900390625 531 l 1
 368.150390625 263 l 1
 545.900390625 0 l 1
 384.900390625 0 l 1
 286.200195312 157.450195312 l 1
 187.5 0 l 1
 18.5 0 l 1xa0
EndSplineSet
Validated: 1
EndChar

StartChar: y
Encoding: 121 121 97
Width: 578
Flags: W
HStem: 511 20G<16.0498 163.051 163.051 163.051 414.35 560.05 560.05 560.05>
LayerCount: 2
Back
Fore
SplineSet
16.0498046875 531 m 1
 163.05078125 531 l 1
 254.650390625 159.450195312 l 2
 266.05078125 116.75 299.650390625 121 308 120.450195312 c 1
 414.349609375 531 l 1
 560.049804688 531 l 1
 376.099609375 -168 l 1
 303.299804688 -270 l 1
 203.399414062 -270 l 1
 278.149414062 0 l 1
 204.349609375 0 146.049804688 37.2001953125 120.200195312 135.299804688 c 2
 16.0498046875 531 l 1
EndSplineSet
Validated: 1
EndChar

StartChar: z
Encoding: 122 122 98
Width: 474
Flags: W
HStem: 1 118<224.5 451.85 224.5 451.85> 413 118<22.8496 451.85 22.8496 276.25 22.8496 451.85>
LayerCount: 2
Back
Fore
SplineSet
22.849609375 413 m 1
 22.849609375 531 l 1
 451.849609375 531 l 1
 451.849609375 413 l 1
 224.5 119 l 1
 451.849609375 119 l 2
 452.849609375 118 451.849609375 1 451.849609375 1 c 1
 37.849609375 1 l 1
 37.849609375 117.900390625 l 1
 276.25 413 l 1
 22.849609375 413 l 1
EndSplineSet
Validated: 33
EndChar

StartChar: bnmAA
Encoding: 2494 2494 99
Width: 320
VWidth: 0
Flags: HW
HStem: 0 21G<115 224> 526 110.299<-13 106.477 224 331>
VStem: 115 109<0 526>
AnchorPoint: "anchor0" 83 635 basechar 0
LayerCount: 2
Back
Fore
SplineSet
46 636.342773438 m 17
 118 628 l 1
 114 702 l 1
 190 702 l 1
 213 636.328125 l 9
 331 636.328125 l 17
 331 530 l 1
 224 530 l 25
 224 0 l 1
 115 0 l 1
 115 530 l 1
 -13 530 l 25
 -13 636.313476562 l 25
 46 636.342773438 l 17
EndSplineSet
EndChar

StartChar: bnmI
Encoding: 2495 2495 100
Width: 275
VWidth: 0
Flags: HW
HStem: 0 21G<96 165> 575 61<-12 82.25 165 244> 726 34<660.181 697.471> 813.1 66.3999<144.906 341.066>
VStem: 62 73<640.731 800.62> 96 69<0 575>
LayerCount: 2
Back
Fore
SplineSet
216 636.328125 m 9xf0
 291 636.328125 l 1
 291 530 l 1
 224 530 l 25
 224 0 l 1
 115 0 l 1
 115 530 l 1
 -13 530 l 25
 -13 636.328125 l 25
 46 636.328125 l 17
 111 628 l 1
 84 646 81 680 81 704 c 2
 81 764 l 2
 81 851.026367188 129.84375 879.5 207.3125 879.5 c 0
 270.4921875 879.5 359.560546875 859.922851562 450 839 c 0
 584 808 733 764 733 764 c 1
 711 683 l 1
 338 756 l 2
 338 756 270.708984375 770 245 770 c 0
 207.466796875 770 195 766.104492188 195 734 c 2
 195 706 l 2
 195 670 191 649.328125 216 636.328125 c 9xf0
EndSplineSet
EndChar

StartChar: bnmII
Encoding: 2496 2496 101
Width: 320
VWidth: 0
Flags: HW
HStem: 0 21G<93 202> 526 110<-14 91 210.119 330> 526 102<202 259.358> 680 83<-403.673 -182.848> 820 93<-278.769 34.9602>
VStem: -504 99<768.047 805.317> 93 109<0 526 636 748.604>
AnchorPoint: "anchor0" -176 637 mark 0
LayerCount: 2
Back
Fore
SplineSet
93 530 m 25
 -27.01953125 530 l 1
 -27.01953125 636.328125 l 1
 91 636.328125 l 17
 91 703.328125 78 820 -28 820 c 0
 -120 820 -321 811 -349 809 c 0
 -397 806 -405 805 -405 783 c 0
 -405 763 -390 763 -242 763 c 0
 -82 763 -69 740 -69 635 c 13
 -176 635 l 17
 -176 680 -183 680 -302 680 c 0
 -494 680 -504 685 -504 783 c 0
 -504 882 -481 889 -391 894 c 2
 -391 894 -70.501953125 913 -19 913 c 0
 177 913 198 751 197.98046875 628 c 1
 269.98046875 636.328125 l 9
 328.98046875 636.328125 l 25
 328.98046875 530 l 1
 202 530 l 1
 202 0 l 1
 93 0 l 1
 93 530 l 25
EndSplineSet
Substitution2: "Single Substitution lookup 17 subtable" bnmII2
Substitution2: "Single Substitution lookup 31 subtable" bnmII3
EndChar

StartChar: bnmE
Encoding: 2503 2503 102
Width: 350
VWidth: 0
Flags: HW
HStem: 575 61<-14 144 214 283>
VStem: 60.0088 71.0781<142.141 356.348>
LayerCount: 2
Back
Fore
SplineSet
260 530 m 1
 260 530 177.086914062 291 177.086914062 217.426757812 c 0
 177.086914062 174.400390625 180.504629895 156.685513931 234.513671875 125.704101562 c 2
 363 52 l 1
 327.78515625 -28.4794921875 l 1
 327.78515625 -28.4794921875 196.778320312 17.8046875 158.08203125 41.439453125 c 0
 80.2683462705 87.333071612 60.0087890625 132 60.0087890625 205.8984375 c 0
 60.0087890625 307.052622933 144 530 144 530 c 9
 -14 530 l 25
 -14 636.328125 l 1
 363 636.328125 l 1
 363 530 l 1
 260 530 l 1
EndSplineSet
Substitution2: "'init' Initial Forms in Bengali lookup 0 subtable" bnmE.init
Substitution2: "'init' Initial Forms in Bengali2 lookup 11 subtable" bnmE.init
EndChar

StartChar: bnmAI
Encoding: 2504 2504 103
Width: 325
VWidth: 0
Flags: HW
HStem: 575 61<-14 144 214 283>
VStem: 60.0088 71.0781<142.141 356.348>
LayerCount: 2
Back
Fore
SplineSet
277 636.328125 m 21
 277 714.65625 251 801.328125 149 801.328125 c 4
 89.28125 801.328125 -162 787.328125 -162 787.328125 c 5
 -158 702.328125 l 21
 -158 702.328125 8.6142578125 702.328125 94 702.328125 c 4
 142 702.328125 158 679.65625 158 636.328125 c 13
 -14 636.328125 l 1
 -14 530 l 25
 144 530 l 17
 144 530 60.0087890625 307.052622933 60.0087890625 205.8984375 c 0
 60.0087890625 132 80.2683462705 87.333071612 158.08203125 41.439453125 c 0
 196.778320312 17.8046875 327.78515625 -28.4794921875 327.78515625 -28.4794921875 c 1
 363 52 l 1
 234.513671875 125.704101562 l 2
 180.504629895 156.685513931 177.086914062 174.400390625 177.086914062 217.426757812 c 0
 177.086914062 291 260 530 260 530 c 1
 339 530 l 1
 339 636.328125 l 1
 277 636.328125 l 21
EndSplineSet
Substitution2: "'init' Initial Forms in Bengali lookup 0 subtable" bnmAI.init
Substitution2: "'init' Initial Forms in Bengali2 lookup 11 subtable" bnmAI.init
EndChar

StartChar: bnAUlntmk
Encoding: 2519 2519 106
Width: 320
VWidth: 0
Flags: HW
HStem: 0 21G<-783 -714> 575 61<-878 -852 -714 -622>
VStem: -783 69<0 575>
LayerCount: 2
Back
Fore
SplineSet
239 636.328125 m 9xf0
 331 636.328125 l 1
 331 530 l 1
 224 530 l 25
 224 0 l 1
 115 0 l 1
 115 530 l 1
 -13 530 l 25
 -13 636.328125 l 25
 46 636.328125 l 17
 118 628 l 1
 118 677 105 702 57 702 c 0
 -11 702 -285 702 -285 702 c 9
 -290 787 l 1
 -290 787 36.9248046875 801 96 801 c 0
 195 801 239 714.328125 239 636.328125 c 9xf0
EndSplineSet
EndChar

StartChar: bnNukta
Encoding: 2492 2492 107
Width: 0
VWidth: 0
Flags: W
HStem: -179.752 97.9033<-204.327 -109>
VStem: -204.327 95.3271<-179.752 -81.8486>
LayerCount: 2
Back
Fore
SplineSet
-225 -177 m 2xe0
 -225 -87 l 2
 -225 -72 -217 -62 -201 -62 c 2
 -113 -62 l 2
 -98 -62 -90 -73 -90 -87 c 2
 -90 -177 l 2
 -90 -192 -99 -200 -113 -200 c 2
 -201 -200 l 2
 -215 -200 -225 -191 -225 -177 c 2xe0
EndSplineSet
Validated: 1
EndChar

StartChar: bnmU
Encoding: 2497 2497 108
Width: 0
VWidth: 2048
GlyphClass: 4
Flags: HW
HStem: -329 118<-283.584 -198.335> -141.43 123.43<-320 -232.891>
VStem: -432.729 132.999<-218.742 -147.229>
AnchorPoint: "anchor 1" -178 0 mark 0
LayerCount: 2
Back
Fore
SplineSet
-72.9404296875 5.123046875 m 5
 -106 -111 l 5
 -71.8876953125 -129.701171875 86.4033203125 -257.084960938 86.4033203125 -257.084960938 c 5
 38 -327 l 5
 -147.8203125 -214.969726562 l 5
 -147.8203125 -214.969726562 -200.454101562 -326.509765625 -248.830078125 -326.509765625 c 4
 -294.873046875 -326.509765625 -448.08984375 -277.6953125 -448.08984375 -204.740234375 c 4
 -448.08984375 -166.392578125 -392.764648438 -25.9814453125 -323.361328125 -25.9814453125 c 4
 -273.336914062 -25.9814453125 -200 -70 -200 -70 c 5
 -177 5.123046875 l 5
 -72.9404296875 5.123046875 l 5
-234 -163 m 5
 -234 -163 -282.25 -131.947265625 -303.36328125 -131.947265625 c 4
 -321.618164062 -131.947265625 -337.302734375 -171.458007812 -337.302734375 -182.911132812 c 4
 -337.302734375 -206.24609375 -285.234375 -221.047851562 -273.452148438 -221.047851562 c 4
 -256.75 -221.047851562 -234 -163 -234 -163 c 5
EndSplineSet
Substitution2: "Single Substitution lookup 29 subtable" bnmU5
Substitution2: "Single Substitution lookup 28 subtable" bnmU4
Substitution2: "Single Substitution lookup 26 subtable" bnmU3
Substitution2: "Single Substitution lookup 25 subtable" bnmU2
Substitution2: "Single Substitution lookup 24 subtable" bnmU1
EndChar

StartChar: bnmUU
Encoding: 2498 2498 109
Width: 0
VWidth: 2048
GlyphClass: 4
Flags: HW
HStem: -325 116.971<-267.895 -158.448>
VStem: -423.896 123.896<-225.441 -129.512>
AnchorPoint: "anchor 1" -261 0 mark 0
LayerCount: 2
Back
Fore
SplineSet
-152 -136.844726562 m 5xb0
 -79.08984375 -136.844726562 l 5
 -14.9697265625 -173.485351562 112.125 -254.780273438 112.125 -254.780273438 c 5
 63.5 -330.290039062 l 5x70
 -106 -253 l 5
 -106 -253 -161.975585938 -342.33984375 -218.080078125 -342.33984375 c 4
 -292.504882812 -342.33984375 -430.60546875 -285.955078125 -430.60546875 -224.125 c 4
 -430.60546875 -153.134765625 -394.254882812 -38.955078125 -337.004882812 -38.955078125 c 4
 -314.525390625 -38.955078125 -288 -49 -288 -49 c 5
 -257.985351562 12.0048828125 l 5
 -149 12.0048828125 l 5
 -225 -147 l 5
 -225 -147 -256.825195312 -136 -276 -136 c 4
 -297.625 -136 -309.915039062 -163.416015625 -309.915039062 -188.254882812 c 4
 -309.915039062 -211.155273438 -264.48828125 -228 -246 -228 c 4
 -209.84375 -228 -152 -136.844726562 -152 -136.844726562 c 5xb0
EndSplineSet
Substitution2: "Single Substitution lookup 29 subtable" bnmUU5
Substitution2: "Single Substitution lookup 28 subtable" bnmUU4
Substitution2: "Single Substitution lookup 26 subtable" bnmUU3
Substitution2: "Single Substitution lookup 25 subtable" bnmUU2
Substitution2: "Single Substitution lookup 24 subtable" bnmUU1
EndChar

StartChar: bnmvR
Encoding: 2499 2499 110
Width: 0
VWidth: 2048
GlyphClass: 4
Flags: W
AnchorPoint: "anchor 1" -178 0 mark 0
LayerCount: 2
Back
Fore
SplineSet
17 -362 m 5
 -357 -207 l 5
 -363 -99 l 5
 -127 27 l 5
 -66 -77 l 5
 -186 -148 l 5
 -186 -148 -167 -157 -115 -182 c 4
 -50.9090789382 -212.812942818 59 -274 59 -274 c 5
 17 -362 l 5
EndSplineSet
Validated: 1
Substitution2: "Single Substitution lookup 26 subtable" bnmvR3
Substitution2: "Single Substitution lookup 25 subtable" bnmvR2
Substitution2: "Single Substitution lookup 24 subtable" bnmvR1
EndChar

StartChar: bnOne
Encoding: 2535 2535 113
Width: 615
Flags: HW
HStem: -2.06487 84.3218<229.51 348.752>
VStem: 423 87<177.039 286.016>
LayerCount: 2
Back
Fore
SplineSet
330 555 m 4
 366 485 569 345 569 254 c 4
 569 157.704941438 454.35546875 -16.064453125 340.838867188 -16.064453125 c 4
 289.890625 -16.064453125 242 -6 161 50 c 4
 105.06003509 88.6745436415 44 145 44 145 c 5
 109 233 l 5
 109 233 186 181.000976562 224 157 c 4
 252.053710938 139.28125 273.989257812 124.256835938 305.919921875 124.256835938 c 4
 365.57421875 124.256835938 417 214.094726562 417 252 c 4
 417 328 253.939453125 415.545898438 215 509 c 4
 195 557 198 664 198 664 c 5
 297 681 l 5
 297 681 313.836775117 586.428492827 330 555 c 4
EndSplineSet
EndChar

StartChar: bnTwo
Encoding: 2536 2536 114
Width: 596
VWidth: 0
Flags: HW
VStem: 420.53 89.8055<349.88 442.183>
LayerCount: 2
Back
Fore
SplineSet
492 266 m 4
 447.1953125 223.446289062 309 172 309 172 c 5
 517 29 l 5
 459 -65 l 5
 459 -65 243.48046875 40.654296875 41 206 c 13
 109 307 l 5
 178 266 l 5
 178 266 365 304 365 356 c 4
 365 399 294 439 275 451 c 4
 244.819335938 470.061523438 88 570 88 570 c 5
 145 662 l 5
 145 662 345.854449291 559.193299121 429 500 c 4
 461.309570312 476.998046875 526.334960938 420.879882812 526.334960938 356.750976562 c 4
 526.334960938 329.340820312 522.743164062 295.19921875 492 266 c 4
EndSplineSet
EndChar

StartChar: bnThree
Encoding: 2537 2537 115
Width: 800
VWidth: 0
Flags: HW
HStem: -5 86<378.081 515.444> 523 78<355.024 635.413>
VStem: 688 76.5069<306.439 473.528>
LayerCount: 2
Back
Fore
SplineSet
437 -3 m 4
 354 -3 288 30 204 123 c 4
 131.932617188 202.7890625 49 352 49 352 c 5
 125 406 l 5
 263 239 l 6
 333.474609375 153.03125 385 132 430 132 c 4
 523 132 622 248 622 360 c 4
 622 436 555 475 481 475 c 4
 417 475 256 456 256 456 c 5
 232 555 l 5
 232 555 366 601 532 601 c 4
 688 601 756 479 756 382 c 4
 756 259.822265625 664.296875 -3 437 -3 c 4
EndSplineSet
EndChar

StartChar: bnFour
Encoding: 2538 2538 116
Width: 650
Flags: HW
HStem: -1 77<158.02 497.308> 311 80<187.086 472.622> 564 72<186.004 472.155>
VStem: 76 76<83.9189 302.281> 105 76<397.315 556.77> 478 80<398.249 556.693> 506 80<84.5189 301.179>
LayerCount: 2
Back
Fore
SplineSet
389 409 m 6xec
 415 409 441 419 441 453 c 6
 441 480 l 6
 440 516 422 526 390 526 c 6
 270 526 l 6
 238 526 219 516 218 480 c 6
 218 452 l 6
 218 419 244 409 270 409 c 6
 389 409 l 6xec
435 636 m 6
 497 636 558 622 558 518 c 6
 558 456 l 22xec
 558 422 557 376 517 362 c 5
 559 349 585 326 586 279 c 6
 586 124 l 6
 586 123 586 121 586 120 c 4
 586 27 552 -1 451 -1 c 6
 211 -1 l 6
 128 -1 76 21 76 122 c 6
 76 274 l 6xf2
 76 321 104 350 146 363 c 5
 106 377 105 422 105 456 c 6
 105 520 l 6
 105 618 166 636 236 636 c 6
 435 636 l 6
192 164 m 6xf2
 192 121 226 117 260 117 c 6
 400 117 l 6
 455 117 468 137 468 165 c 6
 468 243 l 6
 468 276 453 294 400 294 c 6
 260 294 l 6
 218 294 192 286 192 241 c 6
 192 164 l 6xf2
EndSplineSet
EndChar

StartChar: bnSix
Encoding: 2540 2540 117
Width: 750
VWidth: 0
Flags: HW
HStem: -0 77<345.837 450.505> 370 69<405.767 618.541>
VStem: 340 65<432 614> 623 70<268.519 361.863>
LayerCount: 2
Back
Fore
SplineSet
316 614 m 1
 423 614 l 1
 423 442 l 1
 423 442 497.735351562 447 557 447 c 0
 660 447 693 408 693 344 c 0
 693 241.136496191 585.81640625 0 395 0 c 0
 340 0 261 16 199 97 c 0
 107.091378979 217.074166173 51 400 51 400 c 1
 131 434 l 1
 131 434 217.989257812 243.911132812 284 168 c 0
 323.019548834 123.128240409 359 113 395 113 c 0
 487.231083031 113 565 254 565 303 c 0
 565 335.695565449 540 344 493 344 c 0
 446.732421875 344 316 338 316 338 c 1
 316 614 l 1
EndSplineSet
EndChar

StartChar: bnNine
Encoding: 2543 2543 118
Width: 700
Flags: HW
HStem: 1 21G<347 347> 258.829 71.1658<176.56 270.315>
VStem: 61.9861 70.009<117.883 224.907> 539 79<217.591 295.319>
LayerCount: 2
Back
Fore
SplineSet
347.135742188 0.1708984375 m 1
 347.135742188 0.1708984375 343.877929688 68.2578125 326.135742188 152.170898438 c 0
 316.52734375 197.61328125 300 242 258 242 c 0
 237.8984375 242 209.454101562 224.993164062 192.004882812 213.685546875 c 0
 157 191 169.15234375 161.048828125 190 111 c 0
 198.3984375 90.8388671875 208 73 208 73 c 1
 122 29 l 1
 122 29 67 119 60 137 c 0
 22.359375 226.391601562 38.1513671875 294.313476562 131 336 c 0
 170.541015625 353.752929688 235 378 279 378 c 0
 333.556640625 378 373.126953125 361.942382812 403 298 c 0
 424.138671875 252.752929688 432 201 432 201 c 1
 433 201 495 243 495 286 c 0
 495 353 231 601 231 601 c 1
 306 691 l 1
 503 523 656 402 656 278 c 0
 656 161 430 0 347.135742188 0.1708984375 c 1
EndSplineSet
EndChar

StartChar: bnEight
Encoding: 2542 2542 119
Width: 715
VWidth: 0
Flags: HW
HStem: 0 75<128.752 244.371> 355 71<184.039 424.931>
VStem: 46 67<90.6372 336 394 636> 432 75.4513<244.237 346.612>
LayerCount: 2
Back
Fore
SplineSet
164 312 m 1
 163 218 l 1
 163 158 179 125 228 125 c 0
 281 125 346 165 399 229 c 0
 425.025390625 260.426757812 433 274 433 293 c 0
 433 329 402 331 375 331 c 0
 335.169921875 331 178.2890625 313.145507812 164 312 c 1
40 636 m 1
 163 636 l 1
 163 420 l 17
 163 420 196.8984375 426.979492188 234 433 c 0
 365.119140625 454.276367188 421.01171875 449.727539062 471 452 c 0
 493 453 668 495 668 495 c 1
 688 419 l 1
 688 419 636 395 550 367 c 1
 550 367 564.451171875 353.219726562 564.451171875 315.05078125 c 0
 564.451171875 285.383789062 553.263671875 254.807617188 539 230 c 0
 468 106 323 0 219 0 c 0
 110 0 40 63 40 217 c 2
 40 636 l 1
EndSplineSet
EndChar

StartChar: bnSeven
Encoding: 2541 2541 120
Width: 635
VWidth: 0
Flags: HW
HStem: 246 70<117.129 389.92> 561 71<258.668 373.836>
VStem: 33 71<328.646 429.863> 390 67<58.0011 257 316 545.391>
LayerCount: 2
Back
Fore
SplineSet
420 101 m 0
 420 152.002929688 420 237 420 237 c 1
 420 237 294 226 191 226 c 0
 96 226 50 279 50 355 c 0
 50 397 70.595703125 436.255859375 84 457 c 0
 168 587 288 640 359 640 c 0
 424 640 528 618 528 473 c 1
 528 473 528 137 528 117 c 0
 528 71.7294921875 568 12 568 12 c 1
 501 -34 l 1
 501 -34 420 23 420 101 c 0
420 338 m 1
 420 439 l 1
 420 499 413 527 361 527 c 0
 332 527 289 503 245 467 c 0
 213.657226562 441.35546875 185 410 185 383 c 0
 185 349 216 338 243 338 c 0
 316.821289062 338 420 338 420 338 c 1
EndSplineSet
EndChar

StartChar: bnZero
Encoding: 2534 2534 121
Width: 600
Flags: W
HStem: 1 74<193.515 413.003> 468 74<191.221 414.872>
VStem: 68 74<130.237 412.335> 462 74<132.206 415.804>
LayerCount: 2
Back
Fore
SplineSet
36 264 m 0
 36 481 120 542 302 542 c 0
 489 542 561 481 561 264 c 0
 561 67 481 0 302 0 c 0
 123 0 36 65 36 264 c 0
170 264 m 0
 170 122 185 121 302 121 c 0
 425 121 435 122 435 265 c 0
 435 419 423 419 306 419 c 0
 185 419 170 418 170 264 c 0
EndSplineSet
Validated: 1
EndChar

StartChar: bnFive
Encoding: 2539 2539 122
Width: 635
VWidth: 0
Flags: HW
HStem: -0.157068 84.9448<144.855 256.752>
VStem: 57.1837 78.3915<88.2473 472.706> 373 70<261.524 398.793>
LayerCount: 2
Back
Fore
SplineSet
222 660 m 1
 224 577 l 1
 428 517 l 1
 476 598 l 1
 548 572 l 1
 548 572 471 370 471 304 c 0
 471 277.59375 561.172851562 199.259765625 561.172851562 168.206054688 c 0
 561.172851562 95 212.552734375 -78.8466796875 126 24 c 0
 97.8232421875 57.48046875 82.18359375 127 82.18359375 233.508789062 c 0
 82.18359375 425.5703125 125 666 125 666 c 1
 222 660 l 1
387 416 m 1
 215.140625 464.596679688 l 1
 215.140625 464.596679688 201 360.762695312 201 250 c 0
 201 180.0703125 207.317382812 153.462890625 218 141 c 0
 248 106 415.516601562 170.459960938 415.516601562 200.658203125 c 0
 415.516601562 215.327148438 366 265.73046875 366 291 c 0
 366 333 387 416 387 416 c 1
EndSplineSet
EndChar

StartChar: bnCandrabindu
Encoding: 2433 2433 123
Width: 0
VWidth: 0
GlyphClass: 4
Flags: HW
HStem: 656.862 62.0538<-148.198 -63.3252>
AnchorPoint: "anchor0" -218 635 mark 0
LayerCount: 2
Back
Fore
SplineSet
-176.14453125 884.135742188 m 2
 -237.525390625 931.659179688 l 2
 -253.3671875 943.5390625 -257.327148438 959.377929688 -245.4453125 975.220703125 c 2
 -197.923828125 1038.58300781 l 2
 -186.043945312 1054.42285156 -168.223632812 1054.42285156 -152.381835938 1042.54296875 c 2
 -91 997 l 2
 -73.1796875 983.139648438 -75.1591796875 967.30078125 -85.0595703125 953.439453125 c 2
 -132.58203125 890.077148438 l 2
 -144.462890625 876.216796875 -160.301757812 874.235351562 -176.14453125 884.135742188 c 2
-369 844 m 1
 -307 917 l 1
 -307 917 -194.46484375 818.916015625 -164.416015625 818.916015625 c 0
 -158.919921875 818.916015625 -153.787109375 820.208007812 -149 823 c 0
 -108.28515625 846.744140625 17 967 17 967 c 1
 77 905 l 1
 77 905 -19 769 -94 719 c 0
 -119.19140625 702.206054688 -144.008789062 697.862304688 -164.16796875 697.862304688 c 0
 -244.213867188 697.862304688 -369 844 -369 844 c 1
EndSplineSet
Substitution2: "Single Substitution lookup 17 subtable" bnCandrabindu2
EndChar

StartChar: bnAnusvara
Encoding: 2434 2434 124
Width: 445
Flags: HW
HStem: 219 69.3058<92.3128 232.465> 359 61<158.898 289.959> 569 60<160.476 288.865>
VStem: 92 58<428.065 559.238> 298 59<426.934 561.407>
LayerCount: 2
Back
Fore
SplineSet
73.6943359375 484.6875 m 0
 73.6943359375 613.5546875 124.974609375 636.328125 223 636.328125 c 0
 323.844726562 636.328125 373.380859375 613.400390625 373.380859375 484.6875 c 0
 373.380859375 366.73828125 323.844726562 336.235351562 223 336.235351562 c 0
 122.157226562 336.235351562 73.6943359375 370.559570312 73.6943359375 484.6875 c 0
169.241210938 487.698242188 m 0
 169.241210938 443.3203125 170.61328125 433.698242188 226 433.698242188 c 0
 278.844726562 433.698242188 279.529296875 442.401367188 279.529296875 486.6875 c 0
 279.529296875 528.015625 278.111328125 538.698242188 226 538.698242188 c 0
 171.706054688 538.698242188 169.241210938 527.720703125 169.241210938 487.698242188 c 0
72 276 m 1
 75.6103515625 276.369140625 166.895998486 288.305783288 185.775166813 288.305783288 c 0
 249 288.305783288 311.87890625 259.134765625 355 177 c 0
 376 137 421 54 449 -21 c 1
 365 -55 l 1
 247 96 l 2
 195.658352621 161.699904697 165 166 139 166 c 0
 114.861328125 166 81 163 81 163 c 1
 72 276 l 1
EndSplineSet
EndChar

StartChar: bnVisarga
Encoding: 2435 2435 125
Width: 445
Flags: HW
HStem: 9 60.208<159.161 290.055> 218.283 60.208<160.623 288.922> 359.342 60.208<159.161 290.055> 568.625 60.208<160.623 288.922>
VStem: 92.1709 58.21<77.6899 208.884 428.032 559.226> 298.22 59.1602<76.4482 209.296 426.79 559.638>
LayerCount: 2
Back
Fore
SplineSet
73.6943359375 148.452148438 m 0
 73.6943359375 277.319335938 124.974609375 300.092773438 223 300.092773438 c 0
 323.844726562 300.092773438 373.380859375 277.165039062 373.380859375 148.452148438 c 0
 373.380859375 30.5029296875 323.844726562 0 223 0 c 0
 122.157226562 0 73.6943359375 34.32421875 73.6943359375 148.452148438 c 0
169.241210938 151.462890625 m 0
 169.241210938 107.084960938 170.61328125 97.462890625 226 97.462890625 c 0
 278.844726562 97.462890625 279.529296875 106.166015625 279.529296875 150.452148438 c 0
 279.529296875 191.780273438 278.111328125 202.462890625 226 202.462890625 c 0
 171.706054688 202.462890625 169.241210938 191.485351562 169.241210938 151.462890625 c 0
73.6943359375 484.6875 m 0
 73.6943359375 613.5546875 124.974609375 636.328125 223 636.328125 c 0
 323.844726562 636.328125 373.380859375 613.400390625 373.380859375 484.6875 c 0
 373.380859375 366.73828125 323.844726562 336.235351562 223 336.235351562 c 0
 122.157226562 336.235351562 73.6943359375 370.559570312 73.6943359375 484.6875 c 0
169.241210938 487.698242188 m 0
 169.241210938 443.3203125 170.61328125 433.698242188 226 433.698242188 c 0
 278.844726562 433.698242188 279.529296875 442.401367188 279.529296875 486.6875 c 0
 279.529296875 528.015625 278.111328125 538.698242188 226 538.698242188 c 0
 171.706054688 538.698242188 169.241210938 527.720703125 169.241210938 487.698242188 c 0
EndSplineSet
EndChar

StartChar: bnVirama
Encoding: 2509 2509 126
Width: 0
VWidth: 2048
Flags: W
HStem: -273 260.148
VStem: -219 307
AnchorPoint: "anchor 1" -207 0 mark 0
LayerCount: 2
Back
Fore
SplineSet
-162.615234375 -12.8515625 m 1
 -162.615234375 -12.8515625 -153.416816453 -18.3920700749 -117 -44 c 0
 -43.0169524943 -96.0241163478 30 -152 88 -203 c 1
 38 -273 l 1
 -219 -106 l 1
 -162.615234375 -12.8515625 l 1
EndSplineSet
Validated: 1
Substitution2: "Single Substitution lookup 26 subtable" bnVirama3
Substitution2: "Single Substitution lookup 25 subtable" bnVirama2
Substitution2: "Single Substitution lookup 24 subtable" bnVirama1
EndChar

StartChar: bnTAkhanda
Encoding: 2510 2510 127
Width: 475
VWidth: 0
Flags: HW
HStem: 518 119<187.5 353.641>
VStem: 88 119<374.454 510.955> 314.045 128.955<97.2241 256.5>
AnchorPoint: "anchor0" 163 634 basechar 0
LayerCount: 2
Back
Fore
SplineSet
399 503 m 1
 399 503 261 518 228 518 c 0
 186.305664062 518 177 458.548828125 177 399 c 0
 177 337 413 287 413 183 c 1
 413 113 345 -33 345 -33 c 1
 252 -10 l 1
 252 -10 284.044921875 113 284.044921875 168 c 0
 284.044921875 216.666992188 55 272.805664062 55 356.90234375 c 0
 55 510.072265625 66.6943359375 637 183 637 c 0
 284 637 416 587 416 587 c 1
 399 503 l 1
EndSplineSet
LCarets2: 2 0 0
Ligature2: "'half' Half Forms in Bengali2 lookup 7 subtable" bnTA bnVirama uni200D
Ligature2: "'half' Half Forms in Bengali lookup 6 subtable" bnTA.half bnVirama uni200D
EndChar

StartChar: NameMe.65536
Encoding: 65537 -1 128
Width: 633
VWidth: 2048
Flags: W
HStem: 0 48<132 495> 648 48<132 495>
VStem: 84 48<48 648> 495 48<48 648>
LayerCount: 2
Back
Fore
SplineSet
84 696 m 1
 543 696 l 1
 543 0 l 1
 84 0 l 1
 84 696 l 1
132 48 m 1
 495 48 l 1
 495 648 l 1
 132 648 l 1
 132 48 l 1
EndSplineSet
Validated: 1
EndChar

StartChar: bnK_SSA
Encoding: 65565 -1 156
Width: 1000
VWidth: 0
Flags: HW
HStem: 0 21G<604 714> 328 100<534.672 604 715 848.419> 386 113<171.315 230.616> 526 110<-14 239 338 439 534 604 715 990>
VStem: 46.085 114.915<314.596 378.867> 264 104<463.684 516.542> 438.701 95.2988<428.739 525.988> 604 110<0 124 217 328 428 526>
AnchorPoint: "anchor 1" 590 0 basechar 0
AnchorPoint: "anchor0" 590 636 basechar 0
LayerCount: 2
Back
Fore
SplineSet
701 328 m 25
 701 0 l 1
 591 0 l 9
 591 124 l 1
 591 124 348 222 324 222 c 0
 302 222 287 189 299 175 c 0
 306.836914062 165.856445312 372 117 372 117 c 1
 322 42 l 1
 322 42 263.869140625 69.103515625 217 108 c 0
 169.203125 147.666992188 158.288085938 193.736328125 194 254 c 0
 226 308 250 330 277 330 c 0
 287 330 301 328 301 328 c 1
 301 328 224.001953125 374.002929688 192 390 c 0
 176.138671875 397.928710938 168.651367188 388.236328125 164 381 c 0
 155 367 163 358 175 346 c 0
 190.5078125 330.4921875 199 323 199 323 c 1
 155 261 l 1
 155 261 103.047851562 287.952148438 79 312 c 0
 51 340 51 391 71 426 c 0
 98.7568359375 474.575195312 128 499 160 499 c 0
 196 499 247 463.349609375 247 463.349609375 c 1xbf
 247 463.349609375 251 478.348632812 251 489 c 0
 251 504 226 530 226 530 c 1
 -14 530 l 1
 -14 636.328125 l 1
 1011 636.328125 l 1
 1011 530 l 25
 702 530 l 1
 702 428 l 25
 835 428 l 2
 960 428 984 319 932 231 c 0
 906.973632812 188.6484375 845 129 845 129 c 1
 776 179 l 1
 827 257 l 2
 861.030273438 308.560546875 841 328 790 328 c 2
 701 328 l 25
343 415 m 1
 346.885742188 412.09375 402.372070312 380.494140625 416 352 c 0
 427 329 411 297 411 297 c 1
 591 221 l 1
 591 328 l 1
 532 328 455 332 432 384 c 0
 417.342773438 417.138671875 426 530 426 530 c 1
 325 530 l 17
 325 530 355 501 355 480 c 0
 355 451 343 415 343 415 c 1
591 428 m 25
 591 530 l 25
 521 530 l 17
 521 530 521 484 521 456 c 0
 521 433.977539062 536 428 549 428 c 1
 591 428 l 25
EndSplineSet
LCarets2: 2 0 0
Ligature2: "'akhn' Akhand lookup 2 subtable" bnKA bnVirama bnSSA
EndChar

StartChar: bnJ_NYA
Encoding: 65566 -1 157
Width: 995
VWidth: 0
Flags: HW
HStem: 0 110.177<414.677 510.576> 74 95<683.078 857.764> 232 85<781 857.678> 275 86<472.047 566.044> 389 113<817.022 924.366> 526 111<-15 404 507 1047>
VStem: 610.099 126.901<218.129 302> 859 116<171.209 228.65 319.308 437.389>
AnchorPoint: "anchor 1" 390 4 basechar 0
AnchorPoint: "anchor0" 470 637 basechar 0
LayerCount: 2
Back
Fore
SplineSet
517 360 m 5xdf
 445 413 l 5
 434 351 l 5
 434 351 478.177734375 360 517 360 c 5xdf
399 0 m 4
 345.637695312 0 265 22 201 112 c 4
 135.575195312 204.002929688 65 406 65 406 c 5
 143 439 l 5
 143 439 234.321289062 257.297851562 288 182 c 4
 322.610351562 133.450195312 362.37890625 104 403 104 c 4
 429.963867188 104 462.323242188 115.381835938 485 132 c 4
 536.442382812 169.698242188 567.098632812 214.689453125 567.098632812 250.250976562 c 4
 567.098632812 268.484375 545.264648438 273 518 273 c 4
 489 273 320 259 320 259 c 5
 361 530 l 5
 -15 530 l 5
 -15 636.328125 l 5
 1014 636.328125 l 5
 1014 530 l 29
 459 530 l 29
 456 511 l 5
 607 399 l 5x9f
 607 399 745 502 848 502 c 4
 896.732421875 502 933 480.778320312 933 394 c 4
 933 286 905 279 905 279 c 5
 905 279 932 276 932 196 c 4
 932 87 850.708007812 61 796 61 c 4x5f
 710 61 595 79 595 79 c 5
 595 79 568.994140625 55.98828125 549 43 c 4
 511.735351562 18.7919921875 466 0 399 0 c 4
663 328 m 5
 663 328 689 309 689 265 c 4
 689 214.345703125 646 159 646 159 c 5
 773 159 l 6
 816 159 820 174 820 194 c 4
 820 231 804.220703125 232 738 232 c 5
 738 317 l 5x6f
 806 317 824 317 824 353 c 4
 824 379.76953125 822 389 806 389 c 4
 774.165039062 389 663 328 663 328 c 5
EndSplineSet
LCarets2: 2 0 0
Ligature2: "'akhn' Akhand lookup 2 subtable" bnJA bnVirama bnNYA
EndChar

StartChar: bnReph
Encoding: 65567 -1 158
Width: 0
VWidth: 2048
GlyphClass: 4
Flags: W
HStem: 652.612 289.146
AnchorPoint: "anchor0" -127 634 basechar 0
LayerCount: 2
Back
Fore
SplineSet
-243 748 m 5
 -243 748 -235.791015625 755.887695312 -198.754882812 782.854492188 c 4
 -124.787109375 836.712890625 -20.427734375 903.716796875 46.7880859375 941.7578125 c 5
 107 860 l 5
 -163.018554688 652.612304688 l 5
 -243 748 l 5
EndSplineSet
LCarets2: 1 0
Ligature2: "'rphf' Reph Form lookup 3 subtable" bnRA bnVirama
EndChar

StartChar: bnRAc2
Encoding: 65568 -1 159
Width: 0
VWidth: 0
GlyphClass: 4
Flags: HW
HStem: -228 72<-467.385 -293.361>
VStem: -157 69<-76 99> -135 47<-228 -201.273>
LayerCount: 2
Back
Fore
SplineSet
-197 -144 m 5
 -197 -144 -319.475585938 -228 -424 -228 c 4
 -467 -228 -555 -228 -616 -139 c 4
 -641.715820312 -101.48046875 -666 -41 -686 26 c 5
 -613 66 l 5
 -553 -30 l 6
 -508.071289062 -101.77734375 -449 -114 -421 -114 c 4
 -330.122070312 -114 -197 -26 -197 -26 c 5
 -197 99 l 5xc0
 -88 150 l 13xa0
 -88 -228 l 5
 -175 -228 l 5xa0
 -197 -144 l 5
EndSplineSet
LCarets2: 1 0
Ligature2: "'blwf' Below Base Forms in Bengali2 lookup 5 subtable" bnVirama bnRA
Ligature2: "'blwf' Below Base Forms in Bengali2 lookup 5 subtable" bnVirama asRA
Ligature2: "'blwf' Below Base Forms in Bengali lookup 4 subtable" asRA bnVirama
Ligature2: "'blwf' Below Base Forms in Bengali lookup 4 subtable" bnRA bnVirama
EndChar

StartChar: bnBAc2
Encoding: 65569 -1 160
Width: 0
VWidth: 0
GlyphClass: 4
Flags: HW
VStem: -177 67.5938<-206 1>
LayerCount: 2
Back
Fore
SplineSet
-70.40625 -308.99609375 m 21
 -177 -309 l 5
 -426 -135 l 5
 -426 -20 l 5
 -176 83 l 29
 -70.40625 83 l 29
 -70.40625 -308.99609375 l 21
-177 -187 m 5
 -177 -33 l 5
 -312 -91 l 5
 -177 -187 l 5
EndSplineSet
LCarets2: 1 0
Ligature2: "'blwf' Below Base Forms in Bengali2 lookup 5 subtable" bnVirama bnBA
Ligature2: "'blwf' Below Base Forms in Bengali lookup 4 subtable" bnBA bnVirama
EndChar

StartChar: bnKA.half
Encoding: 65570 -1 161
Width: 685
VWidth: 0
GlyphClass: 3
Flags: HW
HStem: 575 61<-12 312 377 647>
VStem: 312 65<212 467 542 574> 554.146 71.5596<332.102 420.17>
LayerCount: 2
Back
Fore
SplineSet
415 408 m 5
 415 112 l 5
 307 112 l 5
 49 317 l 5
 49 403 l 5
 306 511 l 5
 306 530 l 5
 -12 530 l 1
 -12 636.328125 l 1
 697 636.328125 l 1
 697 530 l 1
 416 530 l 29
 416 510 l 5
 539 473 l 6
 592.653320312 457.219726562 638.705078125 412.88671875 638.705078125 347.375976562 c 4
 638.705078125 326.4765625 635.153320312 301.643554688 620 276 c 4
 594 232 563 205 563 205 c 5
 494 248 l 5
 511.854492188 280.197265625 l 6
 524.378040355 302.781162309 533 323.34765625 533 335 c 4
 533 368.176757812 509.669921875 379.899414062 466 393 c 6
 415 408 l 5
307 245 m 5
 307 400 l 5
 182 346 l 5
 307 245 l 5
EndSplineSet
LCarets2: 1 0
Ligature2: "'half' Half Forms in Bengali2 lookup 7 subtable" bnKA bnVirama
Ligature2: "'half' Half Forms in Bengali lookup 6 subtable" bnKA bnVirama
EndChar

StartChar: bnGA.half
Encoding: 65572 -1 163
Width: 400
VWidth: 0
GlyphClass: 3
Flags: HW
HStem: 553.962 71.3504<109.191 240.188>
VStem: 19 81<479 549.62> 196 71<312.415 382.666>
LayerCount: 2
Back
Fore
SplineSet
408 464 m 21
 285 494 l 4
 262.241210938 500.090820312 195 513 175 513 c 4
 155.521484375 513 143 480 143 467 c 4
 143 451 226.896484375 430.750976562 257.959960938 418.31640625 c 4
 298.459960938 402.104492188 301 397 315 347 c 4
 318.575195312 334.231445312 331 287.665039062 331 256 c 4
 331 206.31640625 140 111 140 111 c 5
 95 182 l 5
 95 182 220.03515625 264.698242188 220.03515625 286.23828125 c 4
 220.03515625 306.245117188 213.966688864 334.744849154 191 344 c 4
 129.75 368.682617188 15.8505859375 391.694335938 15.8505859375 448.177734375 c 4
 15.8505859375 503.376953125 71.3525390625 586.76953125 91 603 c 4
 114 622 141.110351562 624.778320312 167.014648438 624.778320312 c 4
 261.486328125 624.778320312 446 547 446 547 c 5
 408 464 l 21
EndSplineSet
LCarets2: 1 0
Ligature2: "'half' Half Forms in Bengali2 lookup 7 subtable" bnGA bnVirama
Ligature2: "'half' Half Forms in Bengali lookup 6 subtable" bnGA bnVirama
EndChar

StartChar: bnNGA.half
Encoding: 65574 -1 165
Width: 590
GlyphClass: 3
Flags: HW
HStem: 123 71<227.626 367.987> 342 70<290.085 493.471> 446 59<291 438.76> 575 61<-10 236 495 601> 587 49<297.728 442.071>
VStem: 42 47<419.185 447.681> 228 63<396 446 505 573.236> 443 55<509.683 574.636> 494 69<272.281 336.597>
LayerCount: 2
Back
Fore
SplineSet
13 433 m 5
 82 464 l 5
 82 464 135 353 178 272 c 4
 206.96484375 217.4375 243 193 280 193 c 4
 308 193 325.412942447 200.504236156 350 211 c 4
 398.875976562 231.864257812 457.161132812 260 457.161132812 284 c 4
 457.161132812 299.3046875 437.344726562 300 398 300 c 4
 369 300 208 300 208 300 c 5
 208 481 l 6
 208 518 216 530 216 530 c 5xf680
 -10 530 l 5
 -10 636.328125 l 5
 601 636.328125 l 5
 601 530 l 5
 495 530 l 21
 495 530 497.891601562 527.564453125 498 509 c 5xf7
 498 444 489.994140625 411 413 411 c 6
 309 411 l 5
 309 378 l 5
 309 378 407.896484375 388 450 388 c 4
 527 388 568 359 568 313 c 4
 568 228 474 153 373 116 c 4
 334.685546875 101.963867188 310 95 269 95 c 4
 225 95 156.760742188 113.854492188 113 186 c 4
 38.9995646045 307.999735907 13 433 13 433 c 5
309 488 m 5
 360 488 l 6
 391.997070312 488 407 488 407 513 c 5
 407 534 398 534 347 534 c 4xef
 321.251953125 534 309 534 309 488 c 5
EndSplineSet
LCarets2: 1 0
Ligature2: "'half' Half Forms in Bengali2 lookup 7 subtable" bnNGA bnVirama
Ligature2: "'half' Half Forms in Bengali lookup 6 subtable" bnNGA bnVirama
EndChar

StartChar: bnCA.half
Encoding: 65575 -1 166
Width: 575
VWidth: 0
GlyphClass: 3
Flags: HW
HStem: 134 71<169.774 301.332> 575 61<-10 86 153 588>
VStem: 86 67<220.608 464.205 515 574> 445 65<321.198 408.903>
LayerCount: 2
Back
Fore
SplineSet
173.317382812 415.749023438 m 5
 173.317382812 324.48828125 l 5
 173.317382812 284.930664062 173.349609375 248.854492188 218.072265625 248.854492188 c 4
 252.40625 248.854492188 332 281 366.0546875 314.827148438 c 4
 407.802734375 356.295898438 393.5859375 380.59765625 345.83984375 389.943359375 c 4
 278.36328125 403.151367188 173.317382812 415.749023438 173.317382812 415.749023438 c 5
172.828125 511.379882812 m 5
 172.828125 511.379882812 291.841796875 500.448242188 383.828125 485.584960938 c 4
 452.211914062 474.536132812 510.828125 443.94140625 510.828125 384.174804688 c 4
 510.828125 341.171804687 493.37109375 312.635742188 480.828125 293.379882812 c 4
 409.828125 184.379882812 265.828125 134.379882812 191.828125 134.379882812 c 4
 126.828125 134.379882812 63.828125 171.383789062 63.828125 293.379882812 c 6
 63.828125 530 l 5
 -10.171875 530 l 5
 -10.171875 636.328125 l 5
 583.828125 636.328125 l 5
 583.828125 530 l 5
 172.828125 530 l 5
 172.828125 511.379882812 l 5
EndSplineSet
LCarets2: 1 0
Ligature2: "'half' Half Forms in Bengali lookup 6 subtable" bnCA bnVirama
EndChar

StartChar: bnTTA.half
Encoding: 65580 -1 171
Width: 595
VWidth: 0
GlyphClass: 3
Flags: HW
HStem: 134 71<163.774 280.327> 427 59<256 430.517> 427 51<256 366.363> 575 61<-13 80 147 404 474 582> 708 64<117.379 392.718>
VStem: 80 67<220.608 574> 404 70<636 696.221> 439 65<326.182 415.749>
LayerCount: 2
Back
Fore
SplineSet
497 636.328125 m 21xbc
 497 714.328125 491 779 339 779 c 4
 185 779 61 765 61 765 c 5
 65 682 l 21
 65 682 226.614257812 682 312 682 c 4
 360 682 376 679.328125 376 636.328125 c 13
 -13 636.328125 l 5
 -13 530 l 5
 98 530 l 5
 98 293 l 6
 98 171.001953125 163 134 228 134 c 4
 317 134 433 196 489.13671875 285 c 4
 501.396484375 304.436523438 522.13671875 346 522.13671875 381 c 4
 522.13671875 446 475.01953125 489 386.13671875 489 c 4xdc
 351.13671875 489 268.13671875 481 268.13671875 481 c 5
 278.13671875 390 l 5
 278.13671875 390 298.909179688 390 323 390 c 4
 364 390 410 392 410 368 c 4
 410 348 393 324 362 299 c 4
 327.14453125 270.890625 287 249 248 249 c 4
 210 249 210 285 210 345 c 5
 210 530 l 5
 612 530 l 5
 612 636.328125 l 5
 497 636.328125 l 21xbc
EndSplineSet
LCarets2: 1 0
Ligature2: "'half' Half Forms in Bengali2 lookup 7 subtable" bnTTA bnVirama
Ligature2: "'half' Half Forms in Bengali lookup 6 subtable" bnTTA bnVirama
EndChar

StartChar: bnDDHA.half
Encoding: 65588 -1 179
Width: 595
VWidth: 0
GlyphClass: 3
Flags: HW
HStem: 134 71<163.774 280.327> 427 59<256 430.517> 427 51<256 366.363> 575 61<-13 80 147 582>
VStem: 80 67<220.608 574> 439 65<325.668 415.749>
LayerCount: 2
Back
Fore
SplineSet
612 636.328125 m 17
 612 530 l 1
 210 530 l 1
 210 345 l 1
 210 285 210 249 248 249 c 0
 287 249 327.14453125 270.890625 362 299 c 0
 393 324 410 348 410 368 c 0
 410 392 364 390 323 390 c 0
 298.909179688 390 278.13671875 390 278.13671875 390 c 1
 268.13671875 481 l 1
 268.13671875 481 351.13671875 489 386.13671875 489 c 0xdc
 475.01953125 489 522.13671875 446 522.13671875 381 c 0
 522.13671875 346 501.396484375 304.436523438 489.13671875 285 c 0
 433 196 317 134 228 134 c 0
 163 134 98 171.001953125 98 293 c 2
 98 530 l 1
 -13 530 l 1
 -13 636.328125 l 1
 612 636.328125 l 17
EndSplineSet
LCarets2: 1 0
Ligature2: "'half' Half Forms in Bengali2 lookup 7 subtable" bnDDHA bnVirama
Ligature2: "'half' Half Forms in Bengali lookup 6 subtable" bnDDHA bnVirama
EndChar

StartChar: bnBA.half
Encoding: 65589 -1 180
Width: 480
VWidth: 0
GlyphClass: 3
Flags: HW
HStem: 575 61<-12 317 383 444>
VStem: 317 65<212 469 542 574>
LayerCount: 2
Back
Fore
SplineSet
415 530 m 21
 415 113 l 5
 307 113 l 5
 49 311 l 5
 49 409 l 5
 306 511 l 5
 306 530 l 5
 -12 530 l 5
 -12 636.328125 l 5
 490 636.328125 l 5
 490 530 l 5
 415 530 l 21
307 247 m 5
 307 401 l 5
 179 345 l 5
 307 247 l 5
EndSplineSet
LCarets2: 1 0
Ligature2: "'half' Half Forms in Bengali2 lookup 7 subtable" bnBA bnVirama
Ligature2: "'half' Half Forms in Bengali lookup 6 subtable" bnBA bnVirama
EndChar

StartChar: bnPA.half
Encoding: 65590 -1 181
Width: 555
VWidth: 0
GlyphClass: 3
Flags: HW
HStem: 549.054 69.6719<246.6 386.518>
LayerCount: 2
Back
Fore
SplineSet
531 366 m 5
 512 385 l 5
 324 217 l 5
 257 226 l 5
 130 396 l 5
 75 359 l 5
 22 426 l 5
 22 426 115 517 229 587 c 4
 259.547851562 605.7578125 296 621 325 621 c 4
 361 621 387.337734571 609.573991672 410 594 c 4
 482.928710937 543.881835937 593 436 593 436 c 5
 531 366 l 5
431 442 m 5
 431 442 418 456 402 469 c 4
 372.661132812 492.837890625 345 511 317 511 c 4
 289 511 269.837890625 494.756835938 257 485 c 4
 232 466 211 448 211 448 c 5
 301 333 l 5
 431 442 l 5
EndSplineSet
LCarets2: 1 0
Ligature2: "'half' Half Forms in Bengali2 lookup 7 subtable" bnPA bnVirama
Ligature2: "'half' Half Forms in Bengali lookup 6 subtable" bnPA bnVirama
EndChar

StartChar: bnNA.half
Encoding: 65591 -1 182
Width: 450
VWidth: 0
GlyphClass: 3
Flags: HW
HStem: 420.554 70.1729<182.576 322.489> 575.328 61<-13 462>
VStem: 90.3555 68.3916<288.075 396.178>
LayerCount: 2
Back
Fore
SplineSet
426 313 m 5
 426 313 282.079101562 378 222 378 c 4
 177.736328125 378 155.0390625 348.961914062 155.0390625 318.479492188 c 4
 155.0390625 279.557617188 232 213 232 213 c 5
 180 148 l 5
 180 148 124 184 89 221 c 4
 58.462890625 253.28125 43.35546875 296.028320312 43.35546875 337.431640625 c 4
 43.35546875 377.131835938 64.212890625 421.365234375 93 447 c 4
 132.502929688 482.177734375 158.908203125 490.3984375 206.963867188 490.3984375 c 4
 294.952148438 490.3984375 477 398 477 398 c 5
 426 313 l 5
464 530 m 9
 464 636.328125 l 1
 -14 636.328125 l 1
 -14 530 l 1
 464 530 l 9
EndSplineSet
LCarets2: 1 0
Ligature2: "'half' Half Forms in Bengali2 lookup 7 subtable" bnNA bnVirama
Ligature2: "'half' Half Forms in Bengali lookup 6 subtable" bnNA bnVirama
EndChar

StartChar: bnDA.half
Encoding: 65592 -1 183
Width: 495
GlyphClass: 3
Flags: HW
HStem: 575.328 61<-11 104.9 171.9 499>
VStem: 104.9 67<420 574.656>
LayerCount: 2
Back
Fore
SplineSet
75 530 m 1
 74.900390625 319 l 1
 140 250 l 1
 343 359 l 1
 293.499023438 112 l 1
 372 112 l 1
 423.400390625 213 l 1
 467 462 l 1
 386.900390625 498 l 1
 181 399 l 1
 181 530 l 1
 509 530 l 1
 509 636.328125 l 1
 -11 636.328125 l 1
 -11 530 l 1
 75 530 l 1
EndSplineSet
LCarets2: 1 0
Ligature2: "'half' Half Forms in Bengali2 lookup 7 subtable" bnDA bnVirama
Ligature2: "'half' Half Forms in Bengali lookup 6 subtable" bnDA bnVirama
EndChar

StartChar: bnNNA.half
Encoding: 65593 -1 184
Width: 460
VWidth: 0
GlyphClass: 3
Flags: HW
HStem: 538.592 68.2524<170.512 325.776>
VStem: 77.3553 68.3918<406.983 513.054>
LayerCount: 2
Back
Fore
SplineSet
441 434 m 5
 441 434 325 500 247 500 c 4
 200.68359375 500 167 449.666015625 167 411 c 4
 167 370.735351562 246 295 246 295 c 5
 193 234 l 5
 193 234 140.23046875 269.041015625 102 310.735351562 c 4
 77 338 56.35546875 375.763671875 56.35546875 426.166992188 c 4
 56.35546875 477.8671875 96.9287109375 546.03515625 126.298828125 571 c 4
 160.846679688 600.365234375 188.677734375 606.84375 227.091796875 606.84375 c 4
 242.393554688 606.84375 273.364257812 602.869140625 290 599 c 4
 376 579 491 513 491 513 c 5
 441 434 l 5
EndSplineSet
LCarets2: 1 0
Ligature2: "'half' Half Forms in Bengali2 lookup 7 subtable" bnNNA bnVirama
Ligature2: "'half' Half Forms in Bengali lookup 6 subtable" bnNNA bnVirama
EndChar

StartChar: bnDDA.half
Encoding: 65594 -1 185
Width: 630
VWidth: 0
GlyphClass: 3
Flags: HW
HStem: 154 63.9822<267.301 361.544> 410 62<345.455 491.232> 575 61<-14 280 345 645>
VStem: 280 65<458 575> 494 64<332.385 406.535>
LayerCount: 2
Back
Fore
SplineSet
316 137 m 4
 273 137 203.33984375 157.260742188 145 233 c 4
 88 307 40 404 40 404 c 5
 110 446 l 5
 110 446 165 373 201 327 c 4
 237.865234375 279.89453125 279 248 313 248 c 4
 382.946754391 248 444 326 444 350 c 4
 444 372.416487839 425 377 402 377 c 4
 349 377 253 367 253 367 c 5
 253 530 l 5
 -14 530 l 5
 -14 636.328125 l 5
 645 636.328125 l 5
 645 530 l 5
 359 530 l 29
 359 462 l 5
 359 462 408.010638203 472 453 472 c 4
 539 472 558 426 558 382 c 4
 558 282.220799174 447.538961441 137 316 137 c 4
EndSplineSet
LCarets2: 1 0
Ligature2: "'half' Half Forms in Bengali2 lookup 7 subtable" bnDDA bnVirama
Ligature2: "'half' Half Forms in Bengali lookup 6 subtable" bnDDA bnVirama
EndChar

StartChar: bnMA.half
Encoding: 65595 -1 186
Width: 695
VWidth: 0
GlyphClass: 3
Flags: HW
HStem: 342 67<332.722 413.263> 421 69<135.765 189.345> 575 61<-10 141 216 409 469 557>
VStem: 54 65<331.99 407.748> 208.834 67.1661<478.314 530.166> 439 67<435.732 545.159>
LayerCount: 2
Back
Fore
SplineSet
513 258 m 4
 468.515625 258 255 357 216 357 c 0
 195.797851562 357 165 320 165 284 c 0
 165 261.447265625 228 224 228 224 c 1
 187 156 l 1
 187 156 119 186 87 212 c 0
 55.7813027366 237.365191527 46 268 46 291 c 0
 46 370.551757812 132.012695312 470 184 470 c 0
 215 470 245 456 245 456 c 1
 245 456 248 465.052734375 248 473 c 0
 248 495 189 530 189 530 c 1
 -10 530 l 1
 -10 636.328125 l 1
 704 636.328125 l 1
 704 530 l 1
 620 530 l 5
 620 530 652 477.090820312 652 435 c 4
 652 391 563 258 513 258 c 4
350 426 m 5
 350 426 459 373 474 373 c 4
 497 373 534 415 534 437 c 4
 534 467 509 530 509 530 c 5
 313 530 l 1
 313 530 359 497 359 467 c 0
 359 443 350 426 350 426 c 5
EndSplineSet
LCarets2: 1 0
Ligature2: "'half' Half Forms in Bengali2 lookup 7 subtable" bnMA bnVirama
Ligature2: "'half' Half Forms in Bengali lookup 6 subtable" bnMA bnVirama
EndChar

StartChar: bnLA.half
Encoding: 65596 -1 187
Width: 585
VWidth: 0
GlyphClass: 3
Flags: HW
HStem: 426 64<158.875 324.585 434.319 571.755> 575 61<-14 595>
VStem: 73 65<300.059 403.122> 126 46<197.87 227.562> 346 52<272 308.909>
LayerCount: 2
Back
Fore
SplineSet
591.655273438 347 m 5
 591.655273438 347 585.50390625 385 538 385 c 4
 469.796875 385 467.34375 365.6171875 448 290 c 6
 437 247 l 5
 346 247 l 5
 342 286 l 5
 329.635742188 371.26171875 306.225585938 384 237 384 c 4
 184.37109375 384 175 363 175 317 c 4
 175 268.916015625 202 194 202 194 c 5
 122 164 l 5
 122 164 56 261.530273438 56 353 c 4
 56 467 146 494 207 494 c 4
 287.517578125 494 375.249023438 491.481445312 395 424 c 5
 423 483 463 490 531 490 c 4
 606.284179688 490 656 435 656 435 c 5
 591.655273438 347 l 5
596 636.328125 m 13
 596 530 l 21
 -14 530 l 5
 -14 636.328125 l 5
 596 636.328125 l 13
EndSplineSet
LCarets2: 1 0
Ligature2: "'half' Half Forms in Bengali2 lookup 7 subtable" bnLA bnVirama
Ligature2: "'half' Half Forms in Bengali lookup 6 subtable" bnLA bnVirama
EndChar

StartChar: bnSHA.half
Encoding: 65597 -1 188
Width: 475
VWidth: 0
GlyphClass: 3
Flags: HW
HStem: 264 66.751<37 184.45 283.794 403.674> 526 69<15.3355 190.982 284.308 472.632>
VStem: 201 71<348.986 511.392>
LayerCount: 2
Back
Fore
SplineSet
488 472 m 21
 488 506 435 526 390 526 c 4
 335.770507812 526 313 497 313 444 c 4
 313 390.71484375 317.6953125 371.182617188 353 350 c 4
 388 329 443 309 443 309 c 5
 425 226 l 5
 425 226 362 231 325 248 c 4
 285.122918211 266.321902444 260 285 260 285 c 5
 260 285 240.553710938 266.16796875 194 248 c 4
 153 232 95 224 95 224 c 5
 67 310 l 5
 67 310 108.999023438 322.000976562 151 342 c 4
 195.701171875 363.28515625 200 388.141601562 200 450 c 4
 200 500 184.918945312 520.954101562 148 525 c 4
 110.108398438 529.15234375 -10 530 -10 530 c 5
 -10 636.328125 l 5
 -10 636.328125 126 636.328125 178 636.328125 c 4
 218 636.328125 244 629 268 599 c 5
 295 630 317 634 353 634 c 4
 397 634 450 622 488 602 c 13
 488 472 l 21
EndSplineSet
LCarets2: 1 0
Ligature2: "'half' Half Forms in Bengali2 lookup 7 subtable" bnSHA bnVirama
Ligature2: "'half' Half Forms in Bengali lookup 6 subtable" bnSHA bnVirama
EndChar

StartChar: bnSA.half
Encoding: 65598 -1 189
Width: 710
VWidth: 0
GlyphClass: 3
Flags: HW
HStem: 324 75<126.545 208.755 467.67 553.331> 575 61<-10 288 352.787 554 617 718>
VStem: 578 75<425.284 539.057>
LayerCount: 2
Back
Fore
SplineSet
347 472 m 5
 347 472 486.126953125 405 512 405 c 4
 537 405 557 437 557 455 c 4
 557 482 528 530 528 530 c 5
 373 530 l 5
 347 472 l 5
542 278 m 4
 476 278 295 376 295 376 c 5
 295 376 242 274 190 274 c 4
 123 274 20 342 20 342 c 5
 57 425 l 5
 57 425 126 393 154 393 c 4
 184 393 245 530 245 530 c 5
 -10 530 l 5
 -10 636.328125 l 5
 724 636.328125 l 5
 724 530 l 5
 641 530 l 5
 641 530 674 480 674 443 c 4
 674 373 593 278 542 278 c 4
EndSplineSet
LCarets2: 1 0
Ligature2: "'half' Half Forms in Bengali2 lookup 7 subtable" bnSA bnVirama
Ligature2: "'half' Half Forms in Bengali lookup 6 subtable" bnSA bnVirama
EndChar

StartChar: bnSSA.half
Encoding: 65600 -1 191
Width: 560
VWidth: 0
GlyphClass: 3
Flags: HW
HStem: 575 61<-14 77 141 372 432 516>
VStem: 40.7046 62.2209<404.615 506.349> 406 63<424.46 536.61>
LayerCount: 2
Back
Fore
SplineSet
67 305 m 4
 20.4228515625 355.39453125 79 529.899414062 79 530 c 6
 -14 530 l 5
 -14 636.328125 l 5
 574 636.328125 l 5
 574 530 l 5
 485 530 l 5
 485 530 515 468.922851562 515 439 c 4
 515 395 454 255 417 241 c 4
 381.201171875 227.455078125 128 239 67 305 c 4
155 443 m 5
 155 443 138 387 156 367 c 4
 177.841796875 342.731445312 361 335 361 335 c 5
 155 443 l 5
401 406 m 5
 401 406 412 428 412 452 c 4
 412 479.057617188 385 530 385 530 c 5
 178 530 l 5
 173 517 l 5
 401 406 l 5
EndSplineSet
LCarets2: 1 0
Ligature2: "'half' Half Forms in Bengali2 lookup 7 subtable" bnSSA bnVirama
Ligature2: "'half' Half Forms in Bengali lookup 6 subtable" bnSSA bnVirama
EndChar

StartChar: bnK_RA
Encoding: 65634 -1 225
Width: 900
VWidth: 0
GlyphClass: 3
Flags: HW
HStem: -25 118<278.092 422.589> 373 120<399.981 527.608> 526 110<-14 929>
VStem: 553 107<177 289> 767.146 107<180.957 264.315>
AnchorPoint: "anchor 1" 556 -27 basechar 0
AnchorPoint: "anchor0" 533 636 basechar 0
LayerCount: 2
Back
Fore
SplineSet
528 180 m 1
 528 296 l 1
 528 354 489 379 447 379 c 0
 389.774414062 379 256 300 256 300 c 1xe0
 203 371 l 1
 281 456 392 499 452 499 c 0
 589.981246916 499 636 395 636 395 c 1
 770 354 l 2
 818.087691603 339.286601823 860.145507812 301.313476562 860.145507812 245.802734375 c 0
 860.145507812 224.903320312 850.020507812 195.470703125 832.440429688 171.426757812 c 0
 808 138 780.145507812 104.802734375 780.145507812 104.802734375 c 1
 708.145507812 150.802734375 l 1
 734 191 l 2
 742.600585938 206.125 749.145507812 219.150390625 749.145507812 230.802734375 c 0
 749.145507812 261.979492188 729.093137845 265.174563304 688.559570312 277 c 2
 644 288 l 1
 644 -27 l 1
 550 -27 l 1xd0
 528 57 l 17
 528 57 418.524414062 -26 317 -26 c 0
 274 -26 181 -25 120 64 c 0
 94.2841796875 101.51953125 64 159 44 226 c 1
 110 259 l 1
 176 162 l 2
 222.041992188 92.9365234375 277 86 314 86 c 0
 404.877929688 86 528 180 528 180 c 1
916 636.328125 m 9
 916 530 l 17
 -14 530 l 1
 -14 636.328125 l 1
 916 636.328125 l 9
EndSplineSet
LCarets2: 1 0
Ligature2: "'pres' Pre Base Substitutions in Bengali2 lookup 12 subtable" bnKA bnRAc2
EndChar

StartChar: bnKH_RA
Encoding: 65635 -1 226
Width: 740
VWidth: 0
GlyphClass: 3
Flags: HW
HStem: -214 118<229.864 402.502> 526 111<668 751>
VStem: 552 199<526 637> 552 116<-12 0 133 526>
AnchorPoint: "anchor0" 493 635 basechar 0
LayerCount: 2
Back
Fore
SplineSet
552 -2 m 1
 552 -18 l 1
 552 -18 421.877929688 -106 331 -106 c 0
 303 -106 243.928710938 -93.77734375 199 -22 c 2
 139 74 l 1
 66 34 l 1
 86 -33 110.284179688 -93.48046875 136 -131 c 0
 197 -220 285 -220 328 -220 c 0
 432.524414062 -220 555 -136 555 -136 c 1
 577 -220 l 1xa0
 664 -220 l 1
 664 530 l 9
 750 530 l 25
 750 636.328125 l 25
 646 636.328125 l 25
 621 702 l 1
 545 702 l 1
 549 628 l 17
 549 134 l 1
 276 273 l 1
 510 369 l 1
 510 369 434 561 422 589 c 0
 417.240234375 600.10546875 405 602 394 597 c 0
 371.098632812 586.58984375 221.807617188 518 183 518 c 0
 150 518 157.6875 550.521484375 174 559 c 0
 201.782226562 573.439453125 234 588 234 588 c 1
 210 651 l 1
 210 651 134.953125 635.419921875 111 623 c 0
 84 609 61 574 61 530 c 0
 61 489 80.9375 460.93359375 99 444 c 0
 115 429 152 410 196 418 c 0
 236.338867188 425.333984375 351 475 351 475 c 1
 368 434 l 1
 116 330 l 1
 116 222 l 1
 552 -2 l 1
EndSplineSet
LCarets2: 1 0
Ligature2: "'pres' Pre Base Substitutions in Bengali2 lookup 12 subtable" bnKHA bnRAc2
EndChar

StartChar: bnG_RA
Encoding: 65636 -1 227
Width: 725
VWidth: 0
GlyphClass: 3
Flags: HW
HStem: -84 118<259.864 432.386> 510 115.778<341.842 448.581> 526 110<698 785>
VStem: 209.851 139.149<401.936 505.485> 392 119<234.658 325.355> 581 117<118 460>
AnchorPoint: "anchor0" 473 636 basechar 0
LayerCount: 2
Back
Fore
SplineSet
532 104 m 13
 532 460 l 5xbc
 409 493 l 4
 386.241210938 499.090820312 338 513 318 513 c 4
 298.521484375 513 286 480 286 467 c 4
 286 451 357.896484375 430.750976562 388.959960938 418.31640625 c 4
 429.459960938 402.104492188 432 397 446 347 c 4
 449.575195312 334.231445312 462 287.665039062 462 256 c 4
 462 197.31640625 283 121 283 121 c 5
 242 191 l 5
 242 191 348.03515625 258.698242188 348.03515625 280.23828125 c 4
 348.03515625 300.245117188 343.856445312 323.4765625 321 333 c 4
 259.75 357.682617188 159 379.516601562 159 436 c 4
 159 491.19921875 202.573242188 586.76953125 222.220703125 603 c 4
 245.220703125 622 265.110351562 624.778320312 291.014648438 624.778320312 c 4
 385.486328125 624.778320312 532.837890625 564 532.837890625 564 c 5
 533 617 l 5
 528 702 l 5
 606 702 l 5
 629 636.328125 l 13
 736 636.328125 l 21
 736 530 l 5
 649 530 l 21
 649 -93 l 5
 562 -93 l 1xa0
 540 -9 l 1
 540 -9 417.524414062 -93 313 -93 c 0
 270 -93 182 -93 121 -4 c 0
 95.2841796875 33.51953125 71 94 51 161 c 1
 124 201 l 1
 184 105 l 2
 228.928710938 33.22265625 288 21 316 21 c 0
 406.877929688 21 532 104 532 104 c 13
EndSplineSet
LCarets2: 1 0
Ligature2: "'pres' Pre Base Substitutions in Bengali2 lookup 12 subtable" bnGA bnRAc2
EndChar

StartChar: bnGH_RA
Encoding: 65637 -1 228
Width: 720
VWidth: 0
GlyphClass: 3
Flags: HW
HStem: 0 21G<424.5 558> 365 60.8091<147.517 307> 575 61<-10 132 178.707 493 558 641>
VStem: 76 65<435.737 519.241> 493 65<78 575>
LayerCount: 2
Back
Fore
SplineSet
264 530 m 1
 265 530 240.712890625 489.701171875 259.002929688 471.190429688 c 0
 275 455 325.599609375 454 387 454 c 0
 420.087890625 454 442.002929688 454.190429688 442.002929688 454.190429688 c 1
 476 318 l 1
 336 237 l 1
 549 128 l 1
 549 530 l 1
 264 530 l 1
550 -8 m 1
 181 185 l 1
 181 269 l 1
 354 360.428710938 l 1
 354 360.428710938 327.048828125 360.543945312 303.78125 360.543945312 c 0
 246.145507812 360.543945312 170 371 143 408 c 0
 133.495117188 421.025390625 130 436 130 451 c 0
 130 489 157.99609375 530 157.99609375 530 c 1
 -10 530 l 1
 -10 636.328125 l 1
 732 636.328125 l 1
 732 530 l 9
 659 530 l 17
 659 -222 l 1
 572 -222 l 1xa0
 550 -138 l 1
 550 -138 427.524414062 -222 323 -222 c 0
 280 -222 192 -222 131 -133 c 0
 105.284179688 -95.48046875 81 -35 61 32 c 1
 134 72 l 1
 194 -24 l 2
 238.928710938 -95.77734375 298 -108 326 -108 c 0
 416.877929688 -108 550 -20 550 -20 c 1
 550 -8 l 1
EndSplineSet
LCarets2: 1 0
Ligature2: "'pres' Pre Base Substitutions in Bengali2 lookup 12 subtable" bnGHA bnRAc2
EndChar

StartChar: bnNG_RA
Encoding: 65638 -1 229
Width: 750
GlyphClass: 3
Flags: HW
HStem: -187 118<229.864 402.502> 0 122<346.986 473.841> 258.778 105.647<449.08 580.992> 401 88<449 557.824> 547 90<451.86 556.15>
VStem: 349 100<355 401 505 543.12> 552 116<15 67> 558 95<490.072 543.363> 581 133<211.286 299.679>
AnchorPoint: "anchor 1" 598 -200 basechar 0
AnchorPoint: "anchor0" 370 634 basechar 0
LayerCount: 2
Back
Fore
SplineSet
575 61 m 1
 575 61 506.186523438 -0.23046875 399.94921875 -0.3564453125 c 0
 339.999023438 -0.427734375 262.525390625 31.8935546875 204 108 c 0
 82.5 266 46 399 46 399 c 1
 116 435.267578125 l 1
 116 435.267578125 226.165039062 268.72265625 290 186.267578125 c 0
 325.737304688 140.106445312 362.638671875 112.53515625 402.638671875 112.53515625 c 0
 490 112.53515625 592.63671875 186.208007812 592.63671875 225.208007812 c 0
 592.63671875 253.208007812 568.72265625 263.208007812 529.998046875 263.208007812 c 0
 475.998046875 263.208007812 320.998046875 263.208007812 320.998046875 263.208007812 c 1
 320.998046875 410.208007812 l 1
 320.998046875 410.208007812 271.275390625 428.262695312 217 456 c 0
 191.892578125 468.831054688 170 480 170 480 c 9
 204 552 l 1
 322 505 l 1
 322 542 322.30078125 580.4140625 348 607 c 0
 371 631 413 637 473 637 c 0
 579 637 636 628 636 529 c 0xfc
 636 464 625 401 548 401 c 2
 439 401 l 1
 438.998046875 360.475585938 l 1
 438.998046875 360.475585938 528.998046875 365.208007812 564.998046875 365.208007812 c 0
 647.99609375 365.208007812 710 319.805664062 710 242 c 0
 710 210.016601562 684 156 684 156 c 9
 684 -200 l 1
 597 -200 l 1xa0
 575 -116 l 1
 575 -116 452.524414062 -200 348 -200 c 0
 305 -200 217 -200 156 -111 c 0
 130.284179688 -73.48046875 106 -13 86 54 c 1
 159 94 l 1
 219 -2 l 2
 263.928710938 -73.77734375 323 -86 351 -86 c 0
 441.877929688 -86 575 2 575 2 c 1
 575 61 l 1
436 489 m 1
 491 489 l 2
 523 489 538 490 538 515 c 0
 538 539 531 547 482 547 c 0
 442 547 436 538 436 489 c 1
EndSplineSet
LCarets2: 1 0
Substitution2: "Single Substitution lookup 21 subtable" bnNG1_RA
Ligature2: "'pres' Pre Base Substitutions in Bengali2 lookup 12 subtable" bnNGA bnRAc2
EndChar

StartChar: bnNG1_RA
Encoding: 65639 -1 230
Width: 725
GlyphClass: 3
Flags: HW
HStem: -78 118<221.864 394.502> 100 105<348.051 476.16> 300 88<419.072 556.432> 411 77<419 522.459> 526 110<-10 326 605 734> 538 98<422.662 522.993>
VStem: 318 101<378 411 488 525.815> 523 85<490.627 525.693>
AnchorPoint: "anchor 1" 557 -85 basechar 0
AnchorPoint: "anchor0" 323 636 basechar 0
LayerCount: 2
Back
Fore
SplineSet
533 153 m 1
 533 153 483.446366129 123.490252938 463 116 c 0
 424.68550003 101.963995061 400 95 359 95 c 0
 315 95 246.760742188 113.854492188 203 186 c 0
 129 308 103 433 103 433 c 1
 172 464 l 1
 172 464 225 353 268 272 c 0
 296.96484375 217.4375 333 193 370 193 c 0
 398 193 415.413085938 200.50390625 440 211 c 0
 488.875976562 231.864257812 547.161132812 260 547.161132812 284 c 0
 547.161132812 299.3046875 527.344726562 300 488 300 c 0
 459 300 298 300 298 300 c 1
 298 481 l 2
 298 518 306 530 306 530 c 1xf680
 -10 530 l 1
 -10 636.328125 l 1
 741 636.328125 l 1
 741 530 l 1
 585 530 l 17
 585 530 587.891601562 527.564453125 588 509 c 1xf7
 588 444 579.994140625 411 503 411 c 2
 399 411 l 5
 399 378 l 1
 399 378 497.896484375 388 540 388 c 0
 617 388 658 359 658 313 c 0
 658 291.642804673 642 253 642 253 c 9
 642 -85 l 1
 555 -85 l 1xa0
 533 -1 l 1
 533 -1 410.524414062 -85 306 -85 c 0
 263 -85 175 -85 114 4 c 0
 88.2841796875 41.51953125 64 102 44 169 c 1
 117 209 l 1
 177 113 l 2
 221.928710938 41.22265625 281 29 309 29 c 0
 399.877929688 29 533 117 533 117 c 1
 533 153 l 1
399 488 m 1
 450 488 l 2
 481.997070312 488 497 488 497 513 c 1
 497 534 488 534 437 534 c 0xef
 411.251953125 534 399 534 399 488 c 1
EndSplineSet
EndChar

StartChar: bnC_RA
Encoding: 65640 -1 231
Width: 720
VWidth: 0
GlyphClass: 3
Flags: HW
HStem: -164 118<119.864 292.502> 0 116<198.894 300.161> 526 110<-10 80 192 631>
VStem: 80 112<119.874 393 488 526> 442 116<38 103 242.46 344.582>
AnchorPoint: "anchor0" 393 636 basechar 0
LayerCount: 2
Back
Fore
SplineSet
292 391 m 1
 292 208 l 1
 292 148 292 116 332 116 c 0
 376 116 460 162 517 238 c 0
 541.298828125 270.397460938 547 288 547 307 c 0
 547 343 522.219726562 344 488 351 c 0
 390.258789062 370.993164062 292 391 292 391 c 1
537 95 m 1
 537 95 441.0546875 0 333 0 c 0
 268 0 175.995117188 29 175.995117188 159 c 2
 175.995117188 530 l 1
 -10 530 l 1
 -10 636.328125 l 1
 731 636.328125 l 1
 731 530 l 1
 292 530 l 17
 292 490 l 25
 292 490 338.709960938 484.448242188 376 480 c 0
 494.9765625 465.806640625 519.131835938 461.709960938 548 456 c 0
 639 438 668 375.7421875 668 316 c 0
 668 287 657.532226562 249.840820312 646 228 c 9xa0
 646 -172 l 1
 559 -172 l 1xa0
 537 -88 l 1
 537 -88 414.524414062 -172 310 -172 c 0
 267 -172 179 -172 118 -83 c 0
 92.2841796875 -45.48046875 68 15 48 82 c 1
 121 122 l 1
 181 26 l 2
 225.928710938 -45.77734375 285 -58 313 -58 c 0
 403.877929688 -58 537 30 537 30 c 1
 537 95 l 1
EndSplineSet
LCarets2: 1 0
Ligature2: "'pres' Pre Base Substitutions in Bengali2 lookup 12 subtable" bnCA bnRAc2
EndChar

StartChar: bnCH_RA
Encoding: 65641 -1 232
Width: 795
VWidth: 0
GlyphClass: 3
Flags: HW
HStem: -250 118<239.864 412.502> 526 110<-14 139 244 806>
VStem: 139 105<286.617 416 506 526> 623 108<256.278 329.072>
AnchorPoint: "anchor 1" 576 -270 basechar 0
AnchorPoint: "anchor0" 512 635 basechar 0
LayerCount: 2
Back
Fore
SplineSet
409 324 m 0
 425 341 430.170898438 354.290039062 430.170898438 364.74609375 c 0
 430.170898438 390.73046875 404.337890625 394.133789062 378.15234375 398.7265625 c 0
 307.358398438 411.1484375 284.071289062 416.411132812 284.071289062 416.411132812 c 1
 284.071289062 303.268554688 l 1
 284.721679688 274.514648438 300.578125 269.98046875 312.931640625 269.98046875 c 0
 341.54296875 269.98046875 377.014648438 290.015625 409 324 c 0
662 -83 m 8
 662 -270 l 1
 575 -270 l 1xa0
 553 -186 l 1
 553 -186 430.524414062 -270 326 -270 c 0
 283 -270 195 -270 134 -181 c 0
 108.284179688 -143.48046875 84 -83 64 -16 c 1
 137 24 l 1
 197 -72 l 2
 241.928710938 -143.77734375 301 -156 329 -156 c 0
 419.877929688 -156 553 -68 553 -68 c 1
 553 -59 l 1
 553 -59 390.006835938 -14.5234375 293 21 c 1
 312 121 l 1
 312 121 585.055664062 205.692382812 603 253 c 0
 614 282 616 311 616 321 c 0
 616 333 611 342 571 352 c 0
 547.375 357.90625 529.66796875 361 529.66796875 361 c 1
 529.66796875 361 534 346.366210938 534 337 c 0
 534 303 512.590820312 273.3828125 475 238 c 4
 436.641601562 201.89453125 355.76953125 155 282 155 c 0
 243 155 179 184 179 268 c 2
 179 530 l 1
 -14 530 l 1
 -14 636.328125 l 1
 810 636.328125 l 1
 810 530 l 1
 284 530 l 1
 284 506 l 1
 284 506 356 498 571 461 c 0
 667.444335938 444.40234375 724 415 724 320 c 0
 724 292 714.256835938 236.9296875 706 207 c 0
 682 120 505 71 505 71 c 1
 738 -6 l 1
 710 -93 l 1
 662 -83 l 8
EndSplineSet
LCarets2: 1 0
Ligature2: "'pres' Pre Base Substitutions in Bengali2 lookup 12 subtable" bnCHA bnRAc2
EndChar

StartChar: bnJ_RA
Encoding: 65642 -1 233
Width: 950
GlyphClass: 3
Flags: HW
HStem: -184 118<229.864 447.022> -2.29688 113.297<359.531 470.511> 258 94<463.069 566.805> 526 111<-15 355 463 958>
VStem: 355 108<343 408 499 526> 567 138.237<199.994 288.658>
AnchorPoint: "anchor 1" 750 -200 basechar 0
AnchorPoint: "anchor0" 483 637 basechar 0
LayerCount: 2
Back
Fore
SplineSet
835 84 m 13
 835 -200 l 1
 748 -200 l 1xa0
 726 -116 l 1
 726 -116 510.524414062 -200 346 -200 c 0
 303 -200 215 -200 154 -111 c 0
 128.284179688 -73.48046875 104 -13 84 54 c 1
 157 94 l 1
 217 -2 l 2
 261.928710938 -73.77734375 321 -86 349 -86 c 0
 509.877929688 -86 726 2 726 2 c 1
 719 73 l 5
 719 73 744.561523438 176.65234375 770.518554688 267.977539062 c 4
 784.528320312 317.26953125 766.256835938 346.692382812 717.518554688 360.977539062 c 4
 659.518554688 377.977539062 443 408 443 408 c 5
 442.998046875 360.475585938 l 5
 442.998046875 360.475585938 532.998046875 365.208007812 568.998046875 365.208007812 c 4
 651.99609375 365.208007812 714 319.805664062 714 242 c 4
 714 137.130859375 569 0 403.94921875 -0.3564453125 c 4
 343.999023438 -0.486328125 266.525390625 31.8935546875 208 108 c 4
 86.5 266 50 399 50 399 c 5
 120 435.267578125 l 5
 120 435.267578125 230.165039062 268.72265625 294 186.267578125 c 4
 329.737304688 140.106445312 366.638671875 112.53515625 406.638671875 112.53515625 c 4
 494 112.53515625 596.63671875 186.208007812 596.63671875 225.208007812 c 4
 596.63671875 253.208007812 572.72265625 263.208007812 533.998046875 263.208007812 c 4
 479.998046875 263.208007812 324.998046875 263.208007812 324.998046875 263.208007812 c 5
 325 530 l 5
 -15 530 l 5
 -15 636.328125 l 5
 964 636.328125 l 5
 964 530 l 5
 443 530 l 5
 443 503 l 5
 443 503 668.518554688 480.977539062 753.518554688 460.977539062 c 4
 830.142578125 442.948242188 897 413.603515625 897 339 c 4
 897 280.666015625 835 84 835 84 c 13
EndSplineSet
LCarets2: 1 0
Ligature2: "'pres' Pre Base Substitutions in Bengali2 lookup 12 subtable" bnJA bnRAc2
EndChar

StartChar: bnJH_RA
Encoding: 65643 -1 234
Width: 945
VWidth: 0
GlyphClass: 3
Flags: HW
HStem: -214 118<235.864 408.502> 526 110<-14 556 882 962>
VStem: 556 118<-12 0 132 168 296 388 507 526> 773 189<526 636> 773 109<39 140 246 526>
AnchorPoint: "anchor 1" 568 -216 basechar 0
AnchorPoint: "anchor0" 886 636.328 basechar 0
LayerCount: 2
Back
Fore
SplineSet
307 296 m 17xe0
 536 132 l 1
 536 388 l 1
 307 296 l 17xe0
541 -3 m 1xc0
 194 232 l 1
 194 379 l 1
 536 507 l 9
 536 530 l 1
 -14 530 l 17
 -14 636.328125 l 1
 654 636.328125 l 9
 654 293 l 1
 773 254 l 25xe8
 773 628 l 1
 768 702 l 1
 844 702 l 1
 867 636.328125 l 1
 962 636.328125 l 1
 962 530 l 1xf0
 882 530 l 25
 882 39 l 1
 773 39 l 1
 773 140 l 1xe8
 654 168 l 17
 654 -216 l 1
 567 -216 l 1xa0
 545 -132 l 1
 545 -132 422.524414062 -216 318 -216 c 0
 275 -216 187 -216 126 -127 c 0
 100.284179688 -89.48046875 76 -29 56 38 c 1
 129 78 l 1
 189 -18 l 2
 233.928710938 -89.77734375 293 -102 321 -102 c 0
 411.877929688 -102 541 -16 541 -16 c 1
 541 -3 l 1xc0
EndSplineSet
LCarets2: 1 0
Ligature2: "'pres' Pre Base Substitutions in Bengali2 lookup 12 subtable" bnJHA bnRAc2
EndChar

StartChar: bnNY_RA
Encoding: 65644 -1 235
Width: 1000
VWidth: 0
GlyphClass: 3
Flags: HW
HStem: -176 118<243.864 432.725> 0 118<325.478 490.643> 81 105<740.053 894.637> 278 101<795 888.599> 464 105<740.953 885.412> 516 120<479.051 609.11>
VStem: 633 107<26 84 202 462.197> 891 102<381.937 460.215> 901 91<190.032 272.248>
AnchorPoint: "anchor0" 644 634 basechar 0
LayerCount: 2
Back
Fore
SplineSet
597 87 m 1
 597 87 472.524414062 0 378 0 c 0
 335 0 242 2 181 91 c 0
 155.284179688 128.51953125 125 186 105 253 c 1
 171 286 l 1
 237 189 l 2
 283.041992188 119.936523438 338 113 375 113 c 0
 465.877929688 113 589 207 589 207 c 1
 589 433 l 1
 589 491 550 516 508 516 c 0
 440.774414062 516 279 413 279 413 c 1xe0
 226 484 l 1
 340 592 427 636 507 636 c 0
 639.6171875 636 686 547.081054688 686 547.081054688 c 1
 686 547 784 569 821 569 c 0
 885 569 959 568 959 455 c 2
 959 417 l 2x36
 959 384 955 337 914 331 c 1
 955 324 958 277 958 244 c 2
 958 193 l 2
 958 81 878.017578125 81 821 81 c 0x75
 779 81 706 90 706 90 c 1
 706 -182 l 1
 619 -182 l 1xa0
 597 -98 l 1
 597 -98 454.524414062 -182 300 -182 c 0
 257 -182 169 -182 108 -93 c 0
 82.2841796875 -55.48046875 58 5 38 72 c 1
 111 112 l 1
 171 16 l 2
 215.928710938 -55.77734375 275 -68 303 -68 c 0
 443.877929688 -68 597 20 597 20 c 1
 597 87 l 1
706 186 m 17x76
 706 186 780.905273438 186 821 186 c 0
 847 186 867 196 867 228 c 0x75
 867 266.677734375 851.59765625 278 814 278 c 2
 761 278 l 17
 761 379 l 9
 804 379 l 2
 843.34375 379 857 381.376953125 857 422 c 0
 857 455 838 464 813 464 c 0
 772.35546875 464 706 464 706 464 c 9
 706 186 l 17x76
EndSplineSet
LCarets2: 1 0
Ligature2: "'blws' Below Base Substitutions lookup 19 subtable" bnNYA bnRAc2
Ligature2: "'pres' Pre Base Substitutions in Bengali2 lookup 12 subtable" bnNYA bnRAc2
EndChar

StartChar: bnTT_RA
Encoding: 65645 -1 236
Width: 740
VWidth: 0
GlyphClass: 3
Flags: HW
HStem: 0 71<163.774 274.966> 337 66<269 457.897> 337 58<269 405.344> 575 61<-13 80 147 416 486 620> 708 64<132.908 404.718>
VStem: 80 67<86.6083 574> 416 70<636 696.221> 468 72<241.198 324.635>
LayerCount: 2
Back
Fore
SplineSet
641 202 m 21xa0
 660.4609375 241.928710938 668 279 668 305 c 4
 668 376.557617188 611 441 503 441 c 4
 453 441 359 433 359 433 c 5
 369 337 l 5
 369 337 378 337 423 337 c 4
 490 337 544 332 544 292 c 4
 544 277 541 247 513 215 c 4
 466.399414062 161.7421875 406 131 342 131 c 4
 283 131 282 177.6015625 282 223 c 4
 282 264 282 530 282 530 c 5
 754 530 l 13
 754 636.328125 l 5
 626 636.328125 l 21
 626 714.328125 620 779 468 779 c 4
 314 779 147 765 147 765 c 5
 151 682 l 21
 151 682 355.614257812 682 441 682 c 4
 489 682 505 679.328125 505 636.328125 c 13
 -14 636.328125 l 5
 -14 530 l 5
 169 530 l 21
 169 159 l 6
 169 37 263 0 328 0 c 4
 437.83203125 0 532 78.2900390625 532 78.2900390625 c 5
 532 14 l 5
 532 14 398.877929688 -74 308 -74 c 4
 280 -74 220.928710938 -61.77734375 176 10 c 6
 116 106 l 5
 43 66 l 5
 63 -1 87.2841796875 -61.48046875 113 -99 c 4
 174 -188 262 -188 305 -188 c 4
 409.524414062 -188 532 -104 532 -104 c 5
 554 -188 l 5xa0
 641 -188 l 5
 641 202 l 21xa0
EndSplineSet
LCarets2: 1 0
Ligature2: "'pres' Pre Base Substitutions in Bengali2 lookup 12 subtable" bnTTA bnRAc2
EndChar

StartChar: bnTTH_RA
Encoding: 65646 -1 237
Width: 695
GlyphClass: 3
Flags: HW
HStem: -177 118<219.864 392.502> -0.148438 124.148<370.513 449.801> 526 110<-14 274 412 714>
VStem: 542 116<25 76> 543 126<201.959 269.211>
AnchorPoint: "anchor 1" 535 -200 basechar 0
LayerCount: 2
Back
Fore
SplineSet
119 292 m 1
 119 292 223.000976562 325.999023438 277.094726562 379.038085938 c 0
 301.286132812 402.7578125 304 421.7890625 304 444 c 0
 304 472.421875 247 530 247 530 c 1
 -12 530 l 1
 -12 636.328125 l 1
 236.591796875 636.328125 l 1
 236.591796875 636.328125 237.686523438 659.389648438 263 687 c 0
 316.553710938 745.412109375 441 826 441 826 c 1
 493 766 l 1
 493 766 403.852539062 689.1796875 373 658 c 0
 362.51953125 647.408203125 358.81640625 636.328125 358.81640625 636.328125 c 1
 712 636.328125 l 1
 712 530 l 1
 376 530.000976562 l 17
 376 500.822265625 630 335 630 225 c 0
 630 197.868164062 622 175 622 175 c 9
 622 -200 l 1
 535 -200 l 1xa0
 513 -116 l 1
 513 -116 404.524414062 -200 316 -200 c 0
 273 -200 185 -200 124 -111 c 0
 98.2841796875 -73.48046875 74 -13 54 54 c 1
 127 94 l 1
 187 -2 l 2
 231.928710938 -73.77734375 291 -86 319 -86 c 0
 396.877929688 -86 513 2 513 2 c 1
 513 74 l 1
 513 74 465.9453125 -0.1484375 369.408203125 -0.1484375 c 0
 234.004882812 -0.1484375 119 229 119 292 c 1
502.276367188 234.666015625 m 0
 502.276367188 265.768554688 384.341796875 356.704101562 384.341796875 356.704101562 c 1
 384.275390625 347.576171875 370.34765625 324.775390625 350 301 c 0
 319.655273438 265.544921875 250.939453125 239.46875 250.939453125 239.46875 c 1
 250.939453125 239.46875 313.288085938 123.059570312 369.268554688 123.059570312 c 0
 443.924804688 123.059570312 502.276367188 208.764648438 502.276367188 234.666015625 c 0
EndSplineSet
LCarets2: 1 0
Ligature2: "'pres' Pre Base Substitutions in Bengali2 lookup 12 subtable" bnTTHA bnRAc2
EndChar

StartChar: bnDDH_RA
Encoding: 65647 -1 238
Width: 740
VWidth: 0
GlyphClass: 3
Flags: HW
HStem: -172 118<229.864 402.502> 0 131<329.102 428.328> 337 104<409 552.918>
VStem: 209 113<137.109 226> 564 124<239.197 324.073>
AnchorPoint: "anchor0" 353 636 basechar 0
LayerCount: 2
Back
Fore
SplineSet
754 636.328125 m 21
 754 530 l 21
 282 530 l 5
 282 530 282 264 282 223 c 4
 282 177.6015625 283 131 342 131 c 4
 406 131 466.399414062 161.7421875 513 215 c 4
 541 247 544 277 544 292 c 4
 544 332 490 337 423 337 c 4
 378 337 369 337 369 337 c 5
 359 433 l 5
 359 433 447 441 503 441 c 4
 611 441 668 376.557617188 668 305 c 4
 668 279 660.4609375 241.928710938 641 202 c 13xa0
 641 -188 l 5
 554 -188 l 5xa0
 532 -104 l 5
 532 -104 409.524414062 -188 305 -188 c 4
 262 -188 174 -188 113 -99 c 4
 87.2841796875 -61.48046875 63 -1 43 66 c 5
 116 106 l 5
 176 10 l 6
 220.928710938 -61.77734375 280 -74 308 -74 c 4
 398.877929688 -74 532 14 532 14 c 5
 532 78.2900390625 l 5
 532 78.2900390625 437.83203125 0 328 0 c 4
 263 0 169 37 169 159 c 6
 169 530 l 13
 -14 530 l 5
 -14 636.328125 l 5
 754 636.328125 l 21
EndSplineSet
LCarets2: 1 0
Ligature2: "'pres' Pre Base Substitutions in Bengali2 lookup 12 subtable" bnDDHA bnRAc2
EndChar

StartChar: bnNN_RA
Encoding: 65648 -1 239
Width: 710
VWidth: 0
GlyphClass: 3
Flags: HW
HStem: -84 118<239.864 411.745> 500.592 106.252<277.863 434.806>
AnchorPoint: "anchor0" 663 637.328 basechar 0
LayerCount: 2
Back
Fore
SplineSet
643 -108 m 1
 643 530 l 25xb0
 722 530 l 1
 722 636.328125 l 1
 628.6015625 636.328125 l 1
 632 702 l 1
 557.498046875 702 l 1
 532 629 l 1
 532 540 l 1
 532 540 459 579 381 599 c 0
 364.456054688 603.2421875 333.393554688 606.84375 318.091796875 606.84375 c 0
 279.677734375 606.84375 251.846679688 600.365234375 217.298828125 571 c 0
 187.928710938 546.03515625 147.35546875 477.8671875 147.35546875 426.166992188 c 0
 147.35546875 375.763671875 168 338 193 310.735351562 c 0
 231.23046875 269.041015625 284 234 284 234 c 1
 337 295 l 1
 337 295 258 370.735351562 258 411 c 0
 258 449.666015625 291.68359375 500 338 500 c 0
 416 500 532 434 532 434 c 1
 532 95 l 1
 532 94 398.877929688 6 308 6 c 0
 280 6 220.928710938 18.22265625 176 90 c 2
 116 186 l 1
 43 146 l 1
 63 79 87.2841796875 18.51953125 113 -19 c 0
 174 -108 262 -108 305 -108 c 0
 409.524414062 -108 532 -24 532 -24 c 1
 554 -108 l 1xa0
 643 -108 l 1
EndSplineSet
LCarets2: 1 0
Ligature2: "'pres' Pre Base Substitutions in Bengali2 lookup 12 subtable" bnNNA bnRAc2
EndChar

StartChar: bnT_RA
Encoding: 65649 -1 240
Width: 710
VWidth: 0
GlyphClass: 3
Flags: HW
HStem: -0 72<242.42 416.639> 556 74<399.532 531.126>
VStem: 553 69<152 533.946> 575 47<0 26.7273>
LayerCount: 2
Back
Fore
SplineSet
722 636.328125 m 9
 722 530 l 17
 -14 530 l 1
 -14 636.328125 l 1
 722 636.328125 l 9
528 180 m 1
 528 296 l 1
 528 354 489 379 447 379 c 0
 389.774414062 379 256 300 256 300 c 1xe0
 203 371 l 1
 281 456 392 499 452 499 c 0
 550 499 644 443 644 326 c 2xe0
 644 -27 l 1
 550 -27 l 1xd0
 528 57 l 17
 528 57 411.524414062 -27 317 -27 c 0
 274 -27 181 -25 120 64 c 0
 94.2841796875 101.51953125 64 159 44 226 c 1
 110 259 l 1
 176 162 l 2
 222.041992188 92.9365234375 277 86 314 86 c 0
 404.877929688 86 528 180 528 180 c 1
EndSplineSet
LCarets2: 1 0
Ligature2: "'pres' Pre Base Substitutions in Bengali2 lookup 12 subtable" bnTA bnRAc2
EndChar

StartChar: bnTH_RA
Encoding: 65650 -1 241
Width: 740
VWidth: 0
GlyphClass: 3
Flags: HW
HStem: -214 118<229.864 402.502> 502 103<142 372.359> 526 111<668 751>
VStem: 379 106<426.971 492.294> 552 199<526 637> 552 116<-12 0 127 526>
AnchorPoint: "anchor0" 493 636 basechar 0
LayerCount: 2
Back
Fore
SplineSet
549 0 m 5xc0
 116 222 l 5
 116 330 l 5
 116 330 351 407 351 454 c 4
 351 481 348 496 247 496 c 4
 189 496 123 496 123 496 c 5
 108 592 l 5
 108 592 185 605 259 605 c 4
 418.10546875 605 466 555 466 434 c 4
 466 348 275 274 275 274 c 5
 549 134 l 5
 549 628 l 13
 544.95703125 702 l 5
 622 702 l 5
 645 636.328125 l 29
 760 636.328125 l 29
 760 530 l 29
 664 530 l 21
 664 -218 l 5
 577 -218 l 5xa0
 555 -134 l 5
 555 -134 432.524414062 -218 328 -218 c 4
 285 -218 197 -218 136 -129 c 4
 110.284179688 -91.48046875 86 -31 66 36 c 5
 139 76 l 5
 199 -20 l 6
 243.928710938 -91.77734375 303 -104 331 -104 c 4
 421.877929688 -104 549 -18 549 -18 c 5
 549 0 l 5xc0
EndSplineSet
LCarets2: 1 0
Ligature2: "'pres' Pre Base Substitutions in Bengali2 lookup 12 subtable" bnTHA bnRAc2
EndChar

StartChar: bnD_RA
Encoding: 65651 -1 242
Width: 760
GlyphClass: 3
Flags: HW
HStem: -104 118<231.864 404.502>
AnchorPoint: "anchor 1" 570 -116 basechar 0
AnchorPoint: "anchor0" 413 636 basechar 0
LayerCount: 2
Back
Fore
SplineSet
548 154 m 1
 548 86 l 1
 548 86 414.877929688 -2 324 -2 c 0
 296 -2 236.928710938 10.22265625 192 82 c 2
 132 178 l 1
 59 138 l 1
 79 71 103.284179688 10.51953125 129 -27 c 0
 190 -116 278 -116 321 -116 c 0
 425.524414062 -116 548 -32 548 -32 c 1
 570 -116 l 1xa0
 657 -116 l 1
 657 121 l 17xa0
 690.900390625 429 l 1
 615.900390625 469.60546875 l 1
 357 359 l 1
 357 530 l 1
 770 530 l 1
 770 636.328125 l 1
 -11 636.328125 l 1
 -11 530 l 1
 248 530 l 17
 248.103515625 294.500976562 l 1
 306 209 l 1
 570 327 l 1
 548 154 l 1
EndSplineSet
LCarets2: 1 0
Ligature2: "'pres' Pre Base Substitutions in Bengali2 lookup 12 subtable" bnDA bnRAc2
EndChar

StartChar: bnDH_RA
Encoding: 65652 -1 243
Width: 725
VWidth: 0
GlyphClass: 3
Flags: HW
HStem: 0 21G<378.5 512> 575 61<512 587> 606.29 55.7998<160.3 291.959>
VStem: 88.4199 62.707<516.104 597.539> 447 65<77 459 528 575>
LayerCount: 2
Back
Fore
SplineSet
544 140 m 5
 544 378 l 5
 333 294 l 5
 544 140 l 5
544 0 m 5xc0
 171 270 l 5
 171 358 l 5
 299 410 l 5
 299 410 176 457.061523438 176 534 c 4
 176 580.846679688 219.70703125 668.357421875 270.70703125 668.357421875 c 4
 325.70703125 668.357421875 416 635 416 635 c 5
 394 559 l 5
 394 559 330.84765625 571 310 571 c 4
 297 571 287 560.705078125 287 544.486328125 c 4
 287 514.209960938 433 461 433 461 c 5
 544 505 l 5
 544 628 l 5xd8
 540 702 l 5
 618 702 l 5
 641 636.328125 l 5
 737 636.328125 l 21
 737 530 l 5
 658 530 l 5
 658 279.188476562 658 -220 658 -220 c 5
 571 -220 l 5xa0
 549 -136 l 5
 549 -136 426.524414062 -220 322 -220 c 4
 279 -220 191 -220 130 -131 c 4
 104.284179688 -93.48046875 80 -33 60 34 c 5
 133 74 l 5
 193 -22 l 6
 237.928710938 -93.77734375 297 -106 325 -106 c 4
 415.877929688 -106 544 -20 544 -20 c 5
 544 0 l 5xc0
EndSplineSet
LCarets2: 1 0
Ligature2: "'pres' Pre Base Substitutions in Bengali2 lookup 12 subtable" bnDHA bnRAc2
EndChar

StartChar: bnN_RA
Encoding: 65653 -1 244
Width: 725
VWidth: 0
GlyphClass: 3
Flags: HW
HStem: 0 21G<488 555> 362.225 70.1726<181.576 330.97> 575 61<-14 488 555 655>
VStem: 89.3553 68.3918<229.747 337.85> 488 67<0 290 363 574>
LayerCount: 2
Back
Fore
SplineSet
545 4 m 5
 545 253 l 5
 545 253 379.079101562 327 319 327 c 4
 274.736328125 327 252.0390625 297.961914062 252.0390625 267.479492188 c 4
 252.0390625 228.557617188 329 162 329 162 c 5
 277 97 l 5
 277 97 221 133 186 170 c 4
 155.462890625 202.28125 140.35546875 245.028320312 140.35546875 286.431640625 c 4
 140.35546875 326.131835938 161.212890625 370.365234375 190 396 c 4
 229.502929688 431.177734375 255.908203125 439.3984375 303.963867188 439.3984375 c 4
 380.952148438 439.3984375 545 363 545 363 c 5
 545 530 l 5
 -14 530 l 5
 -14 636.328125 l 5
 738 636.328125 l 5
 738 530 l 5
 651 530 l 5
 651 -200 l 5
 564 -200 l 1xa0
 542 -116 l 1
 542 -116 419.524414062 -200 315 -200 c 0
 272 -200 184 -200 123 -111 c 0
 97.2841796875 -73.48046875 73 -13 53 54 c 1
 126 94 l 1
 186 -2 l 2
 230.928710938 -73.77734375 290 -86 318 -86 c 0
 408.877929688 -86 545 4 545 4 c 5
EndSplineSet
LCarets2: 1 0
Ligature2: "'pres' Pre Base Substitutions in Bengali2 lookup 12 subtable" bnNA bnRAc2
EndChar

StartChar: bnP_RA
Encoding: 65654 -1 245
Width: 755
VWidth: 0
GlyphClass: 3
Flags: HW
HStem: -86 118<238.864 421.956> 512 110<287.491 403.711> 526 110<700 784>
VStem: 594 190<526 636> 594 106<116 335 460 526>
AnchorPoint: "anchor0" 543 636 basechar 0
LayerCount: 2
Back
Fore
SplineSet
458 443 m 1
 458 443 445 457 429 470 c 0
 399.661132812 493.837890625 372 512 344 512 c 0
 316 512 296.837890625 495.756835938 284 486 c 0
 259 467 238 449 238 449 c 1
 328 334 l 1
 458 443 l 1
576 117 m 5
 576 351 l 1xa8
 539 386 l 1
 351 218 l 1
 284 227 l 1
 157 397 l 1
 102 360 l 1
 49 427 l 1
 49 427 142 518 256 588 c 0
 286.547851562 606.7578125 323 622 352 622 c 0
 388 622 414.337890625 610.57421875 437 595 c 0
 509.928710938 544.881835938 574 479 574 479 c 1xc8
 574 628 l 1xb0
 600 702 l 1
 675 702 l 1
 672 636.328125 l 1xa8
 764 636.328125 l 1
 764 530 l 1xb0
 680 530 l 17
 680 -88 l 5
 593 -88 l 5xa0
 571 -4 l 5
 571 -4 429.524414062 -88 314 -88 c 4
 271 -88 183 -88 122 1 c 4
 96.2841796875 38.51953125 72 99 52 166 c 5
 125 206 l 5
 185 110 l 6
 229.928710938 38.22265625 289 26 317 26 c 4
 418.877929688 26 576 117 576 117 c 5
EndSplineSet
LCarets2: 1 0
Ligature2: "'pres' Pre Base Substitutions in Bengali2 lookup 12 subtable" bnPA bnRAc2
EndChar

StartChar: bnPH_RA
Encoding: 65655 -1 246
Width: 970
VWidth: 0
GlyphClass: 3
Flags: HW
HStem: -214 118<249.864 422.502> 390 99<783 831.244>
VStem: 840 108<294.61 379.26>
AnchorPoint: "anchor 1" 573 -232 basechar 0
AnchorPoint: "anchor0" 548 636 basechar 0
LayerCount: 2
Back
Fore
SplineSet
549 -8 m 1
 549 -30 l 1
 549 -30 415.877929688 -118 325 -118 c 0
 297 -118 237.928710938 -105.77734375 193 -34 c 2
 133 62 l 1
 60 22 l 1
 80 -45 104.284179688 -105.48046875 130 -143 c 0
 191 -232 279 -232 322 -232 c 0
 426.524414062 -232 549 -148 549 -148 c 1
 571 -232 l 1xa0
 658 -232 l 1
 658 390 l 1
 753 390 l 2
 769 390 810 390 810 358 c 0
 810 345 803.374023438 323.1796875 792 304 c 0
 773.182617188 272.268554688 746 234 746 234 c 1
 813 190 l 1
 813 190 876 250 898 294 c 0
 910.401367188 318.803710938 919 344 919 366 c 0
 919 439 875 489 763 489 c 2
 548 489 l 25
 548 122 l 1
 331 237 l 1
 370 264 441 312 441 371 c 0
 441 422 400.381835938 454.918945312 363 477 c 0
 310.456054688 508.037109375 260 530 260 530 c 1
 981 530 l 1
 981 636.328125 l 1
 -10 636.328125 l 1
 -10 530 l 1
 178 530 l 1
 157 484 l 1
 157 484 321 403.25 321 371 c 0
 321 336 180 269 180 269 c 1
 180 185 l 1
 549 -8 l 1
EndSplineSet
LCarets2: 1 0
Ligature2: "'pres' Pre Base Substitutions in Bengali2 lookup 12 subtable" bnPHA bnRAc2
EndChar

StartChar: bnB_RA
Encoding: 65656 -1 247
Width: 735
VWidth: 0
GlyphClass: 3
Flags: HW
HStem: 0 21G<378.5 512.035> 575 61<-14 447 513 615>
VStem: 447 65<82 459 532 575>
LayerCount: 2
Back
Fore
SplineSet
317 296 m 21
 546 136 l 5
 546 388 l 5
 317 296 l 21
546 -1 m 5xc0
 204 232 l 5
 204 379 l 5
 546 507 l 13
 546 530 l 5
 -14 530 l 21
 -14 636.328125 l 5
 747 636.328125 l 13
 747 530 l 13
 664 530 l 21
 664 -217 l 5
 577 -217 l 5xa0
 555 -133 l 5
 555 -133 432.524414062 -217 328 -217 c 4
 285 -217 197 -217 136 -128 c 4
 110.284179688 -90.48046875 86 -30 66 37 c 5
 139 77 l 5
 199 -19 l 6
 243.928710938 -90.77734375 303 -103 331 -103 c 4
 421.877929688 -103 546 -20 546 -20 c 5
 546 -1 l 5xc0
EndSplineSet
LCarets2: 1 0
Ligature2: "'pres' Pre Base Substitutions in Bengali2 lookup 12 subtable" bnBA bnRAc2
EndChar

StartChar: bnBH_RA
Encoding: 65657 -1 248
Width: 750
VWidth: 0
GlyphClass: 3
Flags: HW
HStem: 37 75<363.864 504.38> 286 68<371.552 569.472> 340 85<612.14 671.224> 456 60.0979<371.122 500> 456 50<395.025 500> 575 61<-14 860>
VStem: 305 65<356.449 454.844> 692 79<245.224 318.398>
LayerCount: 2
Back
Fore
SplineSet
762 636.328125 m 17xf0
 762 530 l 25
 -14 530 l 1
 -14 636.328125 l 1
 762 636.328125 l 17xf0
690 244 m 12
 690 -87 l 5
 603 -87 l 5xa0
 581 -3 l 5
 581 -3 418.524414062 -87 314 -87 c 4
 271 -87 183 -87 122 2 c 4
 96.2841796875 39.51953125 72 100 52 167 c 5
 125 207 l 5
 185 111 l 6
 229.928710938 39.22265625 289 27 317 27 c 4
 407.877929688 27 581 115 581 115 c 5
 581 240 l 5xc0
 581 259 565 288 543 288 c 4xbe
 523.631835938 288 480.34765625 228 387 228 c 4
 282.8515625 228 190 255.602539062 190 349 c 4
 190 395 206.416992188 456.416992188 220 470 c 4
 239 489 256 489.09765625 288.72265625 489.09765625 c 4
 324 489.09765625 419 476 419 476 c 5
 408 397 l 21
 408 397 359.595703125 397 322.498046875 397 c 4
 302.498046875 397 299 378 299 360 c 4
 299 331.8125 346.337890625 330 395 330 c 4
 460.115234375 330 511.598632812 406 567 406 c 4
 617 406 690 303 690 244 c 12
EndSplineSet
LCarets2: 1 0
Ligature2: "'pres' Pre Base Substitutions in Bengali2 lookup 12 subtable" bnBHA bnRAc2
EndChar

StartChar: bnM_RA
Encoding: 65658 -1 249
Width: 800
VWidth: 0
Flags: HW
HStem: -105 118<239.864 412.502> 369 120<192.75 297.976> 526 110<-10 288 402 539 650 746>
VStem: 312 114<465.068 524.003> 562 116<97 276 425.814 516.301>
AnchorPoint: "anchor 1" 660 -128 basechar 0
AnchorPoint: "anchor0" 603 636 basechar 0
LayerCount: 2
Back
Fore
SplineSet
742 435 m 9xa0
 742 -128 l 1
 655 -128 l 1xa0
 633 -44 l 1
 633 -44 480.524414062 -128 336 -128 c 0
 293 -128 205 -128 144 -39 c 0
 118.284179688 -1.48046875 94 59 74 126 c 1
 147 166 l 1
 207 70 l 2
 251.928710938 -1.77734375 311 -14 339 -14 c 0
 459.877929688 -14 633 74 633 74 c 1
 633 269 l 1
 633 269 622.930664062 258 603 258 c 0
 558.515625 258 345 357 306 357 c 0
 285.797851562 357 255 320 255 284 c 0
 255 261.447265625 318 224 318 224 c 1
 277 156 l 1
 277 156 209 186 177 212 c 0
 145.78125 237.365234375 136 268 136 291 c 0
 136 370.551757812 222.012695312 470 274 470 c 0
 305 470 335 456 335 456 c 1
 335 456 338 465.052734375 338 473 c 0
 338 495 279 530 279 530 c 1
 -10 530 l 1
 -10 636.328125 l 1
 814 636.328125 l 1
 814 530 l 1
 710 530 l 1
 710 530 742 477.090820312 742 435 c 9xa0
440 426 m 1
 440 426 549 373 564 373 c 0
 587 373 624 415 624 437 c 0
 624 467 599 530 599 530 c 1
 403 530 l 1
 403 530 449 497 449 467 c 0
 449 443 440 426 440 426 c 1
EndSplineSet
LCarets2: 1 0
Ligature2: "'pres' Pre Base Substitutions in Bengali2 lookup 12 subtable" bnMA bnRAc2
EndChar

StartChar: bnY_RA
Encoding: 65659 -1 250
Width: 707
VWidth: 0
GlyphClass: 3
Flags: HW
HStem: 0 21G<-45.5 88.035> 575 61<-501 -372 -340 23 89 196>
VStem: -182.952 88.1683<380.118 431.281> 23 65<82 575>
LayerCount: 2
Back
Fore
SplineSet
319 240 m 1
 538 122 l 1
 538 530 l 1
 251 530 l 1
 251 530 305 509 353 478 c 0
 387.287109375 455.856445312 436 425 436 378 c 0
 436 325 388 285 319 240 c 1
539 -8 m 1
 170 185 l 1
 170.001953125 269 l 1
 170.001953125 269 322 343 322 377 c 0
 322 407.25 148 488 148 488 c 1
 161 529.998046875 l 1
 -10 530 l 1
 -10 636.328125 l 1
 721 636.328125 l 1
 721 530 l 9
 648 530 l 17
 648 -228 l 1
 561 -228 l 1xa0
 539 -144 l 1
 539 -144 416.524414062 -228 312 -228 c 0
 269 -228 181 -228 120 -139 c 0
 94.2841796875 -101.48046875 70 -41 50 26 c 1
 123 66 l 1
 183 -30 l 2
 227.928710938 -101.77734375 287 -114 315 -114 c 0
 405.877929688 -114 539 -26 539 -26 c 1
 539 -8 l 1
EndSplineSet
LCarets2: 1 0
Ligature2: "'pres' Pre Base Substitutions in Bengali2 lookup 12 subtable" bnYA bnRAc2
EndChar

StartChar: bnR_RA
Encoding: 65660 -1 251
Width: 740
VWidth: 0
GlyphClass: 3
Flags: HW
HStem: -179.752 97.9033<-204.327 -109>
VStem: -204.327 95.3271<-179.752 -81.8486>
LayerCount: 2
Back
Fore
SplineSet
327 296 m 17
 556 138 l 1
 556 388 l 1
 327 296 l 17
256.052734375 -45 m 2xe0
 256.052734375 45 l 2
 256.052734375 60 264.052734375 70 280.052734375 70 c 2
 368.052734375 70 l 2
 383.052734375 70 391.052734375 59 391.052734375 45 c 2
 391.052734375 -45 l 2
 391.052734375 -60 382.052734375 -68 368.052734375 -68 c 2
 280.052734375 -68 l 2
 266.052734375 -68 256.052734375 -59 256.052734375 -45 c 2xe0
560 0 m 1
 214 232 l 1
 214 379 l 1
 556 507 l 9
 556 530 l 1
 -14 530 l 17
 -14 636.328125 l 1
 754 636.328125 l 9
 754 530 l 9
 674 530 l 17
 674 -254 l 5
 587 -254 l 5xa0
 565 -170 l 5
 565 -170 412.524414062 -254 308 -254 c 4
 265 -254 177 -254 116 -165 c 4
 90.2841796875 -127.48046875 66 -67 46 0 c 5
 119 40 l 5
 179 -56 l 6
 223.928710938 -127.77734375 283 -140 311 -140 c 4
 401.877929688 -140 560 -54 560 -54 c 5
 560 0 l 1
EndSplineSet
LCarets2: 1 0
Ligature2: "'pres' Pre Base Substitutions in Bengali2 lookup 12 subtable" bnRA bnRAc2
EndChar

StartChar: bnL_RA
Encoding: 65661 -1 252
Width: 830
VWidth: 0
GlyphClass: 3
Flags: HW
HStem: 0 21G<588 655> 384 67<158.219 335.585 445.319 572.813> 575 61<-14 588 655 759>
VStem: 73 65<257.333 364.122> 357 52<206 258.182> 588 67<0 369.076 435 574>
LayerCount: 2
Back
Fore
SplineSet
658 -26 m 5
 658 -26 441.877929688 -114 321 -114 c 0
 293 -114 233.928710938 -101.77734375 189 -30 c 2
 129 66 l 1
 56 26 l 1
 76 -41 100.284179688 -101.48046875 126 -139 c 0
 187 -228 275 -228 318 -228 c 0
 462.524414062 -228 655 -144 655 -144 c 1
 677 -228 l 1xa0
 764 -228 l 5
 764 530 l 5
 842 530 l 5
 842 636.328125 l 5
 -14 636.328125 l 5
 -14 530 l 5
 658 530 l 5
 658 430 l 5
 658 430 640.284179688 458 583 458 c 4
 515 458 475 451 447 392 c 5
 427.249023438 459.481445312 339.517578125 462 259 462 c 4
 198 462 108 435 108 321 c 4
 108 200.530273438 184 97 184 97 c 5
 264 127 l 5
 264 127 227 236.916015625 227 285 c 4
 227 331 236.37109375 352 289 352 c 4
 358.225585938 352 389.635742188 339.26171875 394 254 c 5
 398 203 l 5
 489 203 l 5
 500 258 l 6
 515.461914062 335.307617188 521.796875 353 590 353 c 4
 656 353 658 303 658 252 c 4
 658 -26 l 5
EndSplineSet
LCarets2: 1 0
Ligature2: "'pres' Pre Base Substitutions in Bengali2 lookup 12 subtable" bnLA bnRAc2
EndChar

StartChar: bnSH_RA
Encoding: 65662 -1 253
Width: 680
VWidth: 0
GlyphClass: 3
Flags: HW
HStem: -128 118<175.864 350.204> 247 102<300.959 401.969> 484 111<17.5799 172.018 299.614 475.76> 526 110<594 678>
VStem: 181 112<360.999 476.617> 488 106<74 468>
AnchorPoint: "anchor0" 463 636 basechar 0
LayerCount: 2
Back
Fore
SplineSet
518 136 m 5
 518 472 l 5xdc
 518 506 465 526 420 526 c 4
 365.770507812 526 343 497 343 444 c 4
 343 390.71484375 347.6953125 371.182617188 383 350 c 4
 418 329 473 309 473 309 c 5
 455 226 l 5
 455 226 392 231 355 248 c 4
 315.123046875 266.322265625 290 285 290 285 c 5
 290 285 270.553710938 266.16796875 224 248 c 4
 183 232 125 224 125 224 c 5
 97 310 l 5
 97 310 138.999023438 322.000976562 181 342 c 4
 225.701171875 363.28515625 230 388.141601562 230 450 c 4
 230 500 214.918945312 520.954101562 178 525 c 4
 140.108398438 529.15234375 -10 530 -10 530 c 5
 -10 636.328125 l 5
 -10 636.328125 156 636.328125 208 636.328125 c 4
 248 636.328125 274 629 298 599 c 5
 325 630 347 634 383 634 c 4
 427 634 480 622 518 602 c 5
 518 629 l 5
 543.498046875 702 l 5
 624 702 l 5
 624 636.328125 l 5
 692 636.328125 l 5
 692 530 l 5
 624 530 l 29
 624 -68 l 5
 537 -68 l 5xa0
 515 16 l 5
 515 16 382.524414062 -68 248 -68 c 4
 205 -68 117 -68 56 21 c 4
 30.2841796875 58.51953125 6 119 -14 186 c 5
 59 226 l 5
 119 130 l 6
 163.928710938 58.22265625 223 46 251 46 c 4
 371.877929688 46 518 136 518 136 c 5
EndSplineSet
LCarets2: 1 0
Ligature2: "'pres' Pre Base Substitutions in Bengali2 lookup 12 subtable" bnSHA bnRAc2
EndChar

StartChar: bnSS_RA
Encoding: 65663 -1 254
Width: 710
VWidth: 0
GlyphClass: 3
Flags: HW
HStem: 0 21G<-45.5 88.035> 575 61<-501 -372 -340 23 89 196>
VStem: -182.952 88.1683<380.118 431.281> 23 65<82 575>
LayerCount: 2
Back
Fore
SplineSet
538 401 m 1
 538 530 l 1
 253 530 l 1
 253 530 317 499 372 468 c 0
 437.360351562 431.161132812 494 401 538 401 c 1
538 297 m 1
 486 297 423 330 423 330 c 1
 423 330 404.057617188 303.403320312 390 292 c 0
 336.993164062 249 320.006835938 239 320.006835938 239 c 1
 538 122 l 1
 538 297 l 1
535 -6 m 1xc0
 170 185 l 1
 170.001953125 269 l 1
 170.001953125 269 322 343 322 377 c 0
 322 407.25 148 488 148 488 c 1
 161 529.998046875 l 1
 -10 530 l 1
 -10 636.328125 l 1
 721 636.328125 l 1
 721 530 l 9
 648 530 l 17
 648 -228 l 1
 561 -228 l 1xa0
 539 -144 l 1
 539 -144 416.524414062 -228 312 -228 c 0
 269 -228 181 -228 120 -139 c 0
 94.2841796875 -101.48046875 70 -41 50 26 c 1
 123 66 l 1
 183 -30 l 2
 227.928710938 -101.77734375 287 -114 315 -114 c 0
 405.877929688 -114 535 -27 535 -27 c 1
 535 -6 l 1xc0
EndSplineSet
LCarets2: 1 0
Ligature2: "'blws' Below Base Substitutions lookup 19 subtable" bnSSA bnRAc2
EndChar

StartChar: bnS_RA
Encoding: 65664 -1 255
Width: 750
VWidth: 0
GlyphClass: 3
Flags: HW
HStem: -81 118<259.864 432.502> 274 119<156.576 253.5> 278 127<504.96 579.537> 526 110<-10 285 409 568 681 784>
VStem: 582 116<121 278> 597 117<421.288 511.147>
AnchorPoint: "anchor 1" 586 -68 basechar 0
AnchorPoint: "anchor0" 573 636 basechar 0
LayerCount: 2
Back
Fore
SplineSet
367 472 m 5
 367 472 506.126953125 405 532 405 c 4
 557 405 577 437 577 455 c 4
 577 482 548 530 548 530 c 5
 393 530 l 5
 367 472 l 5
671 370 m 13
 671 -68 l 5
 584 -68 l 5xa0
 562 16 l 5
 562 16 439.524414062 -68 335 -68 c 4
 292 -68 204 -68 143 21 c 4
 117.284179688 58.51953125 93 119 73 186 c 5
 146 226 l 5
 206 130 l 6
 250.928710938 58.22265625 310 46 338 46 c 4
 437.877929688 46 562 137 562 137 c 5
 562 278 l 5xc0
 496 278 315 376 315 376 c 5
 315 376 262 274 210 274 c 4
 143 274 40 342 40 342 c 5
 77 425 l 5
 77 425 146 393 174 393 c 4
 204 393 265 530 265 530 c 5
 -10 530 l 5
 -10 636.328125 l 5
 762 636.328125 l 5
 762 530 l 5
 661 530 l 5
 661 530 694 480 694 443 c 4
 694 406.740234375 671 370 671 370 c 13
EndSplineSet
LCarets2: 1 0
Ligature2: "'pres' Pre Base Substitutions in Bengali2 lookup 12 subtable" bnSA bnRAc2
EndChar

StartChar: bnH_RA
Encoding: 65665 -1 256
Width: 795
VWidth: 0
GlyphClass: 3
Flags: HW
HStem: -214 118<212.864 385.502> 378 111<367 667.948> 526 110<-14 836>
VStem: 674 112<302.941 371.615>
AnchorPoint: "anchor 1" 573 -250 basechar 0
AnchorPoint: "anchor0" 415 636 basechar 0
LayerCount: 2
Back
Fore
SplineSet
660 -71 m 13
 660 -250 l 5
 573 -250 l 1xa0
 551 -167 l 1
 551 -167 442.524414062 -250 334 -250 c 0
 291 -250 203 -250 142 -161 c 0
 116.284179688 -123.48046875 92 -63 72 4 c 1
 145 44 l 1
 205 -52 l 2
 249.928710938 -123.77734375 309 -136 337 -136 c 0
 437.877929688 -136 551 -48 551 -48 c 5
 551 -29 l 5
 551 -29 339.153320312 58.5185546875 278 96 c 5
 290 198 l 1
 290 198 611 269 611 334 c 0
 611 368 601 378 531 378 c 0xe8
 468 378 307 378 307 378 c 1
 296 468 l 1
 296 468 426.418945312 489 521 489 c 0
 689 489 728 436.578125 728 329 c 0
 728 189 474 130 474 130 c 1
 720 7 l 1
 680 -78 l 5
 660 -71 l 13
806 636.328125 m 17xf0
 806 530 l 25
 -14 530 l 1
 -14 636.328125 l 1
 806 636.328125 l 17xf0
EndSplineSet
LCarets2: 1 0
Ligature2: "'pres' Pre Base Substitutions in Bengali2 lookup 12 subtable" bnHA bnRAc2
EndChar

StartChar: bnDDx_RA
Encoding: 65666 -1 257
Width: 785
VWidth: 0
GlyphClass: 3
Flags: HW
HStem: -337 118<271.864 444.502> -170 138<312.146 446.837> -0.356445 116.892<359.361 465.652> 354 102<443.149 596.554>
VStem: 312 135<-169.896 -32.0717> 601.639 108.361<260.884 345.421>
AnchorPoint: "anchor 1" 606 -348 basechar 0
AnchorPoint: "anchor0" 446 636 basechar 0
LayerCount: 2
Back
Fore
SplineSet
583 69 m 5
 583 -146 l 5
 583 -146 449.877929688 -234 359 -234 c 4
 331 -234 271.928710938 -221.77734375 227 -150 c 6
 167 -54 l 5
 94 -94 l 5
 114 -161 138.284179688 -221.48046875 164 -259 c 4
 225 -348 313 -348 356 -348 c 4
 460.524414062 -348 583 -264 583 -264 c 5
 605 -348 l 5xa0
 692 -348 l 5
 692 230 l 21
 692 230 714.001953125 283.022314155 714.001953125 328.791992188 c 4
 714.001953125 406.59765625 651.998046875 456 569 456 c 4
 533 456 443 447.267578125 443 447.267578125 c 5
 443 530 l 13
 798 530 l 5
 798 636.328125 l 13
 -14 636.328125 l 5
 -14 530 l 5
 325 530 l 21
 325 340 l 5
 325 340 485 350 539 350 c 4
 577.724609375 350 601.638671875 336 601.638671875 308 c 4
 601.638671875 251 506 112.53515625 422.638671875 112.53515625 c 4
 382.638671875 112.53515625 345.737304688 140.106445312 310 186.267578125 c 4
 246.165039062 268.72265625 136 435.267578125 136 435.267578125 c 5
 66 399 l 5
 66 399 102.5 266 224 108 c 4
 282.525390625 31.8935546875 359.998940335 -0.3564453125 419.94921875 -0.3564453125 c 4
 504 -0.3564453125 583 69 583 69 c 5
312 -157 m 2xfa
 312 -67 l 2
 312 -52 320 -42 336 -42 c 2
 424 -42 l 2
 439 -42 447 -53 447 -67 c 2
 447 -157 l 2
 447 -172 438 -180 424 -180 c 2
 336 -180 l 2
 322 -180 312 -171 312 -157 c 2xfa
EndSplineSet
LCarets2: 1 0
Substitution2: "Single Substitution lookup 21 subtable" bnDDx1_RA
Ligature2: "'pres' Pre Base Substitutions in Bengali2 lookup 12 subtable" bnDDxA bnRAc2
EndChar

StartChar: bnDDx1_RA
Encoding: 65667 -1 258
Width: 785
VWidth: 0
GlyphClass: 3
Flags: HW
HStem: -346 138<162.146 296.837> -177 118<271.864 444.502> -0.356445 116.892<358.407 465.571> 354 102<443.149 596.554>
VStem: 162 135<-345.896 -208.072> 601.639 108.361<260.884 345.421>
AnchorPoint: "anchor 1" 605 -190 basechar 0
AnchorPoint: "anchor0" 463 636 basechar 0
LayerCount: 2
Back
Fore
SplineSet
583 72 m 1
 583 12 l 1
 583 12 459.877929688 -76 339 -76 c 0
 311 -76 251.928710938 -63.77734375 207 8 c 2
 147 104 l 1
 74 64 l 1
 94 -3 118.284179688 -63.48046875 144 -101 c 0
 205 -190 293 -190 336 -190 c 0
 462.524414062 -190 583 -106 583 -106 c 1
 605 -190 l 1xa0
 692 -190 l 1
 692 230 l 17
 692 230 714.001953125 283.022314155 714.001953125 328.791992188 c 0
 714.001953125 406.59765625 651.998046875 456 569 456 c 0
 533 456 443 447.267578125 443 447.267578125 c 1
 443 530 l 9
 798 530 l 1
 798 636.328125 l 9
 -14 636.328125 l 1
 -14 530 l 1
 325 530 l 17
 325 340 l 1
 325 340 485 350 539 350 c 0
 577.724609375 350 601.638671875 336 601.638671875 308 c 0
 601.638671875 251 506 112.53515625 422.638671875 112.53515625 c 0
 382.638671875 112.53515625 345.737304688 140.106445312 310 186.267578125 c 0
 246.165039062 268.72265625 136 435.267578125 136 435.267578125 c 1
 66 399 l 1
 66 399 102.5 266 224 108 c 0
 282.525390625 31.8935546875 359.998940335 -0.3564453125 419.94921875 -0.3564453125 c 0
 510 -0.3564453125 583 72 583 72 c 1
342 -332 m 2
 342 -242 l 2
 342 -227 350 -217 366 -217 c 2
 454 -217 l 2
 469 -217 477 -228 477 -242 c 2
 477 -332 l 2
 477 -347 468 -355 454 -355 c 2
 366 -355 l 2
 352 -355 342 -346 342 -332 c 2
EndSplineSet
EndChar

StartChar: bnDDHx_RA
Encoding: 65668 -1 259
Width: 740
VWidth: 0
GlyphClass: 3
Flags: HW
HStem: -336 118<240.864 413.502> -168 138<299.146 433.837> 0 131<340.102 439.328> 337 104<420 563.918>
VStem: 220 113<137.109 226> 299 135<-167.896 -30.0717> 575 124<239.197 324.073>
AnchorPoint: "anchor0" 413 636 basechar 0
LayerCount: 2
Back
Fore
SplineSet
754 636.328125 m 17
 754 530 l 17
 282 530 l 1
 282 530 282 264 282 223 c 0
 282 177.6015625 283 131 342 131 c 0
 406 131 466.399414062 161.7421875 513 215 c 0
 541 247 544 277 544 292 c 0
 544 332 490 337 423 337 c 0
 378 337 369 337 369 337 c 1
 359 433 l 1
 359 433 447 441 503 441 c 0
 611 441 668 376.557617188 668 305 c 4
 668 279 660.4609375 241.928710938 641 202 c 13xa0
 641 -340 l 5
 554 -340 l 5xa0
 532 -256 l 5
 532 -256 409.524414062 -340 305 -340 c 4
 262 -340 174 -340 113 -251 c 4
 87.2841796875 -213.48046875 63 -153 43 -86 c 5
 116 -46 l 5
 176 -142 l 6
 220.928710938 -213.77734375 280 -226 308 -226 c 4
 398.877929688 -226 532 -138 532 -138 c 5
 532 78.2900390625 l 5
 532 78.2900390625 437.83203125 0 328 0 c 4
 263 0 169 37 169 159 c 6
 169 530 l 9
 -14 530 l 1
 -14 636.328125 l 1
 754 636.328125 l 17
299 -145 m 2xf6
 299 -55 l 2
 299 -40 307 -30 323 -30 c 2
 411 -30 l 2
 426 -30 434 -41 434 -55 c 2
 434 -145 l 2
 434 -160 425 -168 411 -168 c 2
 323 -168 l 2
 309 -168 299 -159 299 -145 c 2xf6
EndSplineSet
Substitution2: "Single Substitution lookup 21 subtable" bnDDHx1_RA
LCarets2: 1 0
Ligature2: "'pres' Pre Base Substitutions in Bengali2 lookup 12 subtable" bnDDHxA bnRAc2
EndChar

StartChar: bnYx_RA
Encoding: 65669 -1 260
Width: 710
VWidth: 0
GlyphClass: 3
Flags: HW
HStem: 0 21G<-45.5 88.035> 575 61<-501 -372 -340 23 89 196>
VStem: -182.952 88.1683<380.118 431.281> 23 65<82 575>
LayerCount: 2
Back
Fore
SplineSet
319 240 m 1
 538 122 l 1
 538 530 l 1
 251 530 l 1
 251 530 305 509 353 478 c 0
 387.287109375 455.856445312 436 425 436 378 c 0
 436 325 388 285 319 240 c 1
539 -8 m 1
 170 185 l 1
 170.001953125 269 l 1
 170.001953125 269 322 343 322 377 c 0
 322 407.25 148 488 148 488 c 1
 161 529.998046875 l 1
 -10 530 l 1
 -10 636.328125 l 1
 721 636.328125 l 1
 721 530 l 9
 648 530 l 17
 648 -240 l 1
 561 -240 l 1xa0
 539 -156 l 1
 539 -156 416.524414062 -240 312 -240 c 0
 269 -240 181 -240 120 -151 c 0
 94.2841796875 -113.48046875 70 -53 50 14 c 1
 123 54 l 1
 183 -42 l 2
 227.928710938 -113.77734375 287 -126 315 -126 c 0
 405.877929688 -126 539 -38 539 -38 c 1
 539 -8 l 1
255 -65 m 2xe0
 255 25 l 2
 255 40 263 50 279 50 c 2
 367 50 l 2
 382 50 390 39 390 25 c 2
 390 -65 l 2
 390 -80 381 -88 367 -88 c 2
 279 -88 l 2
 265 -88 255 -79 255 -65 c 2xe0
EndSplineSet
LCarets2: 1 0
Ligature2: "'pres' Pre Base Substitutions in Bengali2 lookup 12 subtable" bnYxA bnRAc2
EndChar

StartChar: bnK_SS_RA
Encoding: 65670 -1 261
Width: 1000
VWidth: 0
GlyphClass: 3
Flags: HW
HStem: -175 118<275.864 449.197> 328 100<534.672 604 715 848.419> 386 113<171.315 230.616> 526 110<-14 239 338 439 534 604 715 1010>
VStem: 46.085 114.915<314.596 378.867> 264 104<463.684 516.542> 438.701 95.2988<428.739 525.988> 604 110<27 124 217 328 428 526>
AnchorPoint: "anchor 1" 627 -155 basechar 0
AnchorPoint: "anchor0" 603 636 basechar 0
LayerCount: 2
Back
Fore
SplineSet
714 -153 m 1
 626 -153 l 1xa0
 604 -69 l 1
 604 -69 451.524414062 -153 317 -153 c 0
 274 -153 186 -153 125 -64 c 0
 99.2841796875 -26.48046875 75 34 55 101 c 1
 128 141 l 1
 188 45 l 2
 232.928710938 -26.77734375 292 -39 320 -39 c 0
 440.877929688 -39 604 49 604 50 c 9
 604 124 l 1
 604 124 361 222 337 222 c 0
 315 222 300 189 312 175 c 0
 319.836944619 165.856897945 385 117 385 117 c 1
 335 42 l 1
 335 42 276.869140625 69.103515625 230 108 c 0
 182.202988157 147.666520434 171.288014503 193.736024474 207 254 c 0
 239 308 263 330 290 330 c 0
 300 330 314 328 314 328 c 1
 314 328 237.001953125 374.002929688 205 390 c 0
 189.138671875 397.928710938 181.651772691 388.236090853 177 381 c 0
 168 367 176 358 188 346 c 0
 203.5078125 330.4921875 212 323 212 323 c 1
 168 261 l 1
 168 261 116.048242164 287.951757836 92 312 c 0
 64 340 64 391 84 426 c 0
 111.756835938 474.575195312 141 499 173 499 c 0
 209 499 260 463.349609375 260 463.349609375 c 1xbf
 260 463.349609375 264 478.348521476 264 489 c 0
 264 504 239 530 239 530 c 1
 -14 530 l 1
 -14 636.328125 l 1
 1010 636.328125 l 1
 1010 530 l 25
 715 530 l 1
 715 428 l 25
 848 428 l 2
 973 428 997 319 945 231 c 0
 919.973632812 188.6484375 858 129 858 129 c 1
 789 179 l 1
 840 257 l 2
 874.030273438 308.560546875 854 328 803 328 c 2
 714 328 l 25
 714 -153 l 1
356 415 m 1
 359.885742188 412.09375 415.372070312 380.494140625 429 352 c 0
 440 329 424 297 424 297 c 1
 604 221 l 1
 604 328 l 1
 545 328 468 332 445 384 c 0
 430.342586268 417.13850061 439 530 439 530 c 1
 338 530 l 17
 338 530 368 501 368 480 c 0
 368 451 356 415 356 415 c 1
604 428 m 25
 604 530 l 25
 534 530 l 17
 534 530 534 484 534 456 c 0
 534 433.977284454 549 428 562 428 c 1
 604 428 l 25
EndSplineSet
LCarets2: 1 0
Ligature2: "'pres' Pre Base Substitutions in Bengali2 lookup 12 subtable" bnK_SSA bnRAc2
EndChar

StartChar: bnJ_NY_RA
Encoding: 65671 -1 262
Width: 1015
VWidth: 0
GlyphClass: 3
Flags: HW
HStem: -171 118<310.864 494.398> 0 110.177<414.677 510.576> 74 95<794 857.764> 232 85<781 857.678> 275 86<472.047 566.044> 389 113<817.022 924.366> 526 111<-15 404 507 1047>
VStem: 610.099 126.901<218.129 302> 859 116<171.209 228.65 319.308 437.389>
AnchorPoint: "anchor0" 543 637 basechar 0
LayerCount: 2
Back
Fore
SplineSet
537 360 m 1xdf
 465 413 l 1
 454 351 l 1
 454 351 498.177734375 360 537 360 c 1xdf
683 328 m 1
 683 328 709 309 709 265 c 0
 709 214.345703125 666 159 666 159 c 1
 793 159 l 2
 836 159 840 174 840 194 c 0
 840 231 824.220703125 232 758 232 c 1
 758 317 l 1x6f
 826 317 844 317 844 353 c 0
 844 379.76953125 842 389 826 389 c 0
 794.165039062 389 683 328 683 328 c 1
792 61 m 9
 792 -171 l 1
 705 -171 l 1xa0
 683 -87 l 1
 683 -87 499.524414062 -171 336 -171 c 0
 293 -171 205 -171 144 -82 c 0
 118.284179688 -44.48046875 94 16 74 83 c 1
 147 123 l 1
 207 27 l 2
 251.928710938 -44.77734375 311 -57 339 -57 c 0
 499.877929688 -57 683 31 683 31 c 1
 683 70 l 1xc0
 683 70 615 79 615 79 c 1
 615 79 588.994140625 55.98828125 569 43 c 0
 531.735351562 18.7919921875 486 0 419 0 c 0
 365.637695312 0 285 22 221 112 c 0
 155.575195312 204.002929688 85 406 85 406 c 1
 163 439 l 1
 163 439 254.321289062 257.297851562 308 182 c 0
 342.610351562 133.450195312 382.37890625 104 423 104 c 0
 449.963867188 104 482.323242188 115.381835938 505 132 c 0
 556.442382812 169.698242188 587.098632812 214.689453125 587.098632812 250.250976562 c 0
 587.098632812 268.484375 565.264648438 273 538 273 c 0
 509 273 340 259 340 259 c 1
 381 530 l 1
 -15 530 l 1
 -15 636.328125 l 1
 1034 636.328125 l 1
 1034 530 l 25
 479 530 l 25
 476 511 l 1
 627 399 l 1x9f
 627 399 765 502 868 502 c 0
 916.732421875 502 953 480.778320312 953 394 c 0
 953 286 925 279 925 279 c 1
 925 279 952 276 952 196 c 0
 952 87 870.708007812 61 816 61 c 0x5f
 808.508789062 61 792 61 792 61 c 9
EndSplineSet
LCarets2: 1 0
MultipleSubs2: "Multiple Substitution lookup 22 subtable" bnJA.half bnNY_RA
Ligature2: "'pres' Pre Base Substitutions in Bengali2 lookup 12 subtable" bnJ_NYA bnRAc2
EndChar

StartChar: bnYAc2
Encoding: 65672 -1 263
Width: 291
VWidth: 0
Flags: W
HStem: 575 61<-14 99 165 246>
VStem: 41.1172 67.3458<380.6 504.114> 124.255 69.4916<121.057 257.367>
LayerCount: 2
Back
Fore
SplineSet
199 526 m 17
 184 499 170.462890625 466.325195312 170.462890625 444.599609375 c 0
 170.462890625 352.002929688 255.747070312 269.2421875 255.747070312 183.02734375 c 0
 255.747070312 142.577148438 234.780273438 91.7802734375 192 49 c 0
 174 31 95 -35 95 -35 c 1
 25 22 l 1
 82 92 l 2
 101.794914524 116.50798941 124.255398034 149.01268578 124.255398034 179.46366811 c 0
 124.255398034 247.069750803 47.1171875 368.387695312 47.1171875 439.998046875 c 0
 47.1171875 475 85 526 85 526 c 9
 -14 526 l 1
 -14 636 l 1
 306 636 l 5
 306 526 l 5
 199 526 l 17
EndSplineSet
Validated: 1
LCarets2: 2 0 0
Ligature2: "Ligature Substitution lookup 33 subtable" uni200D bnVirama bnYA
Ligature2: "'pstf' Post Base Forms in Bengali2 lookup 9 subtable" bnVirama bnYA
Ligature2: "'pstf' Post Base Forms in Bengali lookup 8 subtable" bnYA bnVirama
EndChar

StartChar: bnK_BA
Encoding: 65673 -1 264
Width: 685
VWidth: 0
GlyphClass: 3
Flags: HW
HStem: 526 110<-12 306 415 697>
VStem: 307 108<-23 131 250 405 511 526> 533 105.705<279.286 374.211>
AnchorPoint: "anchor 1" 308 -147 basechar 0
AnchorPoint: "anchor0" 307 636 basechar 0
LayerCount: 2
Back
Fore
SplineSet
202 199 m 25
 49 325 l 1
 49 423 l 1
 306 511 l 1
 306 530 l 1
 -12 530 l 1
 -12 636.328125 l 1
 697 636.328125 l 1
 697 530 l 1
 415 530 l 25
 416 510 l 1
 539 473 l 2
 592.653320312 457.219726562 638.705078125 412.88671875 638.705078125 347.375976562 c 0
 638.705078125 326.4765625 635.153320312 301.643554688 620 276 c 0
 594 232 563 205 563 205 c 1
 494 248 l 1
 511.854492188 280.197265625 l 2
 524.357481494 302.744088214 533 323.34765625 533 335 c 0
 533 368.176757812 509.669921875 379.899414062 466 393 c 2
 415 408 l 1
 414.9921875 -148.99609375 l 1
 308.3984375 -149 l 1
 59.3984375 25 l 1
 59.3984375 140 l 1
 202 199 l 25
308 -23 m 1
 308 131 l 1
 173 73 l 1
 308 -23 l 1
307 250 m 1
 307 405 l 1
 182 357 l 1
 307 250 l 1
EndSplineSet
LCarets2: 1 0
Ligature2: "'pres' Pre Base Substitutions lookup 13 subtable" bnKA bnBAc2
EndChar

StartChar: bnG_BA
Encoding: 65675 -1 266
Width: 590
VWidth: 0
GlyphClass: 3
Flags: HW
HStem: 510 115.778<159.842 266.581> 526 110<516 603>
VStem: 27.8506 139.149<401.936 505.485> 210 119<234.658 325.355> 399 117<188 460> 409.398 106.594<-75 79>
AnchorPoint: "anchor0" 343 636 basechar 0
LayerCount: 2
Back
Fore
SplineSet
515.9921875 -199.99609375 m 1
 409.3984375 -200 l 1x74
 160.3984375 -26 l 1
 160.3984375 89 l 1
 399 188 l 25
 399 460 l 1
 276 493 l 0
 253.241210938 499.090820312 205 513 185 513 c 0
 165.521484375 513 153 480 153 467 c 0
 153 451 224.896484375 430.750976562 255.959960938 418.31640625 c 0
 296.459960938 402.104492188 299 397 313 347 c 0
 316.575195312 334.231445312 329 287.665039062 329 256 c 0
 329 197.31640625 150 121 150 121 c 1
 109 191 l 1
 109 191 215.03515625 258.698242188 215.03515625 280.23828125 c 0
 215.03515625 300.245117188 210.856445312 323.4765625 188 333 c 0
 126.75 357.682617188 26 379.516601562 26 436 c 0
 26 491.19921875 69.5732421875 586.76953125 89.220703125 603 c 0
 112.220703125 622 132.110351562 624.778320312 158.014648438 624.778320312 c 0
 252.486328125 624.778320312 399.837890625 564 399.837890625 564 c 1
 400 617 l 1
 395 702 l 1
 473 702 l 1
 496 636.328125 l 9
 603 636.328125 l 17
 603 530 l 1
 516 530 l 1
 515.9921875 -199.99609375 l 1
409.3984375 -75 m 1x34
 409.3984375 79 l 1
 274.3984375 21 l 1
 409.3984375 -75 l 1x34
EndSplineSet
LCarets2: 1 0
Ligature2: "'pres' Pre Base Substitutions lookup 13 subtable" bnGA bnBAc2
EndChar

StartChar: bnJ_BA
Encoding: 65676 -1 267
Width: 965
VWidth: 0
GlyphClass: 3
Flags: HW
HStem: -2.29688 113.297<359.531 470.511> 258 94<463.069 566.805> 526 111<-15 355 463 995>
VStem: 355 108<343 408 499 526> 567 138.237<199.994 288.658> 743 106.594<-180 -26>
AnchorPoint: "anchor0" 473 636 basechar 0
LayerCount: 2
Back
Fore
SplineSet
726 -203 m 1
 726 -49 l 1
 591 -107 l 1
 726 -203 l 1
718 63 m 17
 718 63 744.561523438 176.65234375 770.518554688 267.977539062 c 0
 784.528616146 317.269447167 766.256835938 346.692382812 717.518554688 360.977539062 c 0
 659.518554688 377.977539062 443 408 443 408 c 1
 442.998046875 360.475585938 l 1
 442.998046875 360.475585938 532.998046875 365.208007812 568.998046875 365.208007812 c 0
 651.99609375 365.208007812 714 319.805664062 714 242 c 0
 714 137.130859375 569 0 403.94921875 -0.3564453125 c 0
 343.999023438 -0.486328125 266.525390625 31.8935546875 208 108 c 0
 86.5 266 50 399 50 399 c 1
 120 435.267578125 l 1
 120 435.267578125 230.165039062 268.72265625 294 186.267578125 c 0
 329.737304688 140.106445312 366.638671875 112.53515625 406.638671875 112.53515625 c 0
 494 112.53515625 596.63671875 186.208007812 596.63671875 225.208007812 c 0
 596.63671875 253.208007812 572.72265625 263.208007812 533.998046875 263.208007812 c 0
 479.998046875 263.208007812 324.998046875 263.208007812 324.998046875 263.208007812 c 1
 325 530 l 1
 -15 530 l 1
 -15 636.328125 l 1
 981 636.328125 l 1
 981 530 l 1
 443 530 l 1
 443 503 l 1
 443 503 668.518554688 480.977539062 753.518554688 460.977539062 c 0
 830.142578125 442.948242188 897 413.603515625 897 339 c 0
 897 280.666015625 833 67 832.59375 67 c 9
 832.59375 -324.99609375 l 1
 726 -325 l 1
 477 -151 l 1
 477 -36 l 1
 718 63 l 17
EndSplineSet
LCarets2: 1 0
Ligature2: "'pres' Pre Base Substitutions lookup 13 subtable" bnJA bnBAc2
EndChar

StartChar: bnNN_BA
Encoding: 65677 -1 268
Width: 610
VWidth: 0
GlyphClass: 3
Flags: HW
HStem: 500.592 106.252<256.863 413.806> 526 110<647 731>
VStem: 541 106<3 157 273 425>
AnchorPoint: "anchor0" 392 634 basechar 0
LayerCount: 2
Back
Fore
SplineSet
440.3984375 3 m 5x20
 440.3984375 157 l 5
 305.3984375 99 l 5
 440.3984375 3 l 5x20
436 271 m 21
 436 434 l 1
 436 434 320 500 242 500 c 0
 195.68359375 500 162 449.666015625 162 411 c 0
 162 370.735351562 241 295 241 295 c 1
 188 234 l 1
 188 234 135.23046875 269.041015625 97 310.735351562 c 0
 72 338 51.35546875 375.763671875 51.35546875 426.166992188 c 0
 51.35546875 477.8671875 91.9287109375 546.03515625 121.298828125 571 c 0
 155.846679688 600.365234375 183.677734375 606.84375 222.091796875 606.84375 c 0
 237.393554688 606.84375 268.456054688 603.2421875 285 599 c 0
 363 579 436 540 436 540 c 1
 436 629 l 1
 461.498046875 702 l 1
 536 702 l 1
 532.6015625 636.328125 l 1
 626 636.328125 l 1
 626 530 l 1
 547 530 l 21x60
 546.9921875 -118.99609375 l 5
 440.3984375 -119 l 5
 191.3984375 55 l 5
 191.3984375 170 l 5
 436 271 l 21
EndSplineSet
LCarets2: 1 0
Ligature2: "'pres' Pre Base Substitutions lookup 13 subtable" bnNNA bnBAc2
EndChar

StartChar: bnT_BA
Encoding: 65678 -1 269
Width: 770
VWidth: 0
GlyphClass: 3
Flags: HW
HStem: 379 109<266 529.741> 526 110<-14 714>
VStem: 497 106.594<-74 80> 543 104<262.492 367.07>
AnchorPoint: "anchor0" 398 636 basechar 0
AnchorPoint: "anchor 1" 522 -252 basechar 0
LayerCount: 2
Back
Fore
SplineSet
780 636.328125 m 21xf0
 780 530 l 29
 -14 530 l 5
 -14 636.328125 l 5
 780 636.328125 l 21xf0
518 -123 m 1xe0
 518 31 l 1
 383 -27 l 1
 518 -123 l 1xe0
207 113 m 0
 130.061523438 193.046875 55 335 55 335 c 1
 122 385 l 1
 250 236 l 2
 299.533203125 178.028320312 357 126 413 126 c 0
 521 126 599 249.651367188 599 306 c 0
 599 365 559 379 468 379 c 0
 417 379 307 379 307 379 c 1
 295 470 l 1
 295 470 453 490 524 490 c 0
 661 490 713 420 713 331 c 0xd0
 713 204.298828125 624.59375 115 624.59375 115 c 1
 624.59375 -251.99609375 l 1
 518 -252 l 1
 259 -68 l 1
 259 30 l 1
 285 47 l 1
 285 47 254 65 207 113 c 0
EndSplineSet
LCarets2: 1 0
Ligature2: "'pres' Pre Base Substitutions lookup 13 subtable" bnTA bnBA
EndChar

StartChar: bnTH_BA
Encoding: 65679 -1 270
Width: 725
VWidth: 0
GlyphClass: 3
Flags: HW
HStem: 502 103<187 417.359>
VStem: 424 106<426.971 492.294>
AnchorPoint: "anchor0" 468 637.328 basechar 0
LayerCount: 2
Back
Fore
SplineSet
542.40234375 -86 m 1x24
 542.40234375 68 l 1
 407.40234375 10 l 1
 542.40234375 -86 l 1x24
346 98 m 17
 101 222 l 1
 101 330 l 1
 101 330 336 407 336 454 c 0
 336 481 333 496 232 496 c 0
 174 496 108 496 108 496 c 1
 93 592 l 1
 93 592 170 605 244 605 c 0
 403.10546875 605 451 555 451 434 c 0
 451 348 260 274 260 274 c 1
 484 164 l 9
 534 182 l 1
 534 628 l 9
 529.95703125 702 l 1
 607 702 l 1
 630 636.328125 l 25
 735 636.328125 l 25
 735 530 l 25
 649 530 l 17
 648.99609375 -211.99609375 l 1
 542.40234375 -212 l 1
 293.40234375 -38 l 1
 293.40234375 77 l 1
 346 98 l 17
EndSplineSet
LCarets2: 1 0
Ligature2: "'pres' Pre Base Substitutions lookup 13 subtable" bnTHA bnBAc2
EndChar

StartChar: bnD_BA
Encoding: 65680 -1 271
Width: 572
VWidth: 0
GlyphClass: 3
Flags: HW
HStem: 526 110.328<-10 70 179 582>
VStem: 70.1035 108.896<359 526> 382 106.594<-25 129>
AnchorPoint: "anchor0" 333 636 basechar 0
LayerCount: 2
Back
Fore
SplineSet
382 -25 m 1
 382 129 l 1
 247 71 l 1
 382 -25 l 1
373 241 m 21
 384 324 l 5
 134 212 l 5
 70.103515625 294.500976562 l 5
 70 530 l 13
 -10 530 l 5
 -10 636.328125 l 5
 582 636.328125 l 5
 582 530 l 5
 179 530 l 5
 179 359 l 5
 440.900390625 466.60546875 l 5
 512.900390625 429 l 5
 488.59375 245 l 13
 488.59375 -146.99609375 l 1
 382 -147 l 1
 133 27 l 1
 133 142 l 1
 373 241 l 21
EndSplineSet
LCarets2: 1 0
Ligature2: "'pres' Pre Base Substitutions lookup 13 subtable" bnDA bnBAc2
EndChar

